<?xml version="1.0" encoding="UTF-8" standalone="yes"?><svg xmlns="http://www.w3.org/2000/svg" xmlns:xlink="http://www.w3.org/1999/xlink" height="577px" style="width:3544px;height:577px;" version="1.1" viewBox="0 0 3544 577" width="3544px"><defs><filter height="300%" id="f1" width="300%" x="-1" y="-1"><feGaussianBlur result="blurOut" stdDeviation="2.0"/><feColorMatrix in="blurOut" result="blurOut2" type="matrix" values="0 0 0 0 0 0 0 0 0 0 0 0 0 0 0 0 0 0 .4 0"/><feOffset dx="4.0" dy="4.0" in="blurOut2" result="blurOut3"/><feBlend in="SourceGraphic" in2="blurOut3" mode="normal"/></filter></defs><g><polygon fill="#FFFFFF" filter="url(#f1)" points="2070,75,2149,75,2156,97.2969,2308,97.2969,2308,174,2070,174,2070,75" style="stroke: #000000; stroke-width: 2.0;"/><line style="stroke: #000000; stroke-width: 2.0;" x1="2070" x2="2156" y1="97.2969" y2="97.2969"/><text fill="#000000" font-family="sans-serif" font-size="14" font-weight="bold" lengthAdjust="spacingAndGlyphs" textLength="73" x="2073" y="90.9951">Database</text><polygon fill="#FFFFFF" filter="url(#f1)" points="22,24,84,24,91,46.2969,705,46.2969,705,423,22,423,22,24" style="stroke: #000000; stroke-width: 2.0;"/><line style="stroke: #000000; stroke-width: 2.0;" x1="22" x2="91" y1="46.2969" y2="46.2969"/><text fill="#000000" font-family="sans-serif" font-size="14" font-weight="bold" lengthAdjust="spacingAndGlyphs" textLength="56" x="25" y="39.9951">Models</text><polygon fill="#FFFFFF" filter="url(#f1)" points="729,33.5,823,33.5,830,55.7969,1908,55.7969,1908,410,729,410,729,33.5" style="stroke: #000000; stroke-width: 2.0;"/><line style="stroke: #000000; stroke-width: 2.0;" x1="729" x2="830" y1="55.7969" y2="55.7969"/><text fill="#000000" font-family="sans-serif" font-size="14" font-weight="bold" lengthAdjust="spacingAndGlyphs" textLength="88" x="732" y="49.4951">Controllers</text><polygon fill="#FFFFFF" filter="url(#f1)" points="2332,32,2386,32,2393,54.2969,3537,54.2969,3537,570,2332,570,2332,32" style="stroke: #000000; stroke-width: 2.0;"/><line style="stroke: #000000; stroke-width: 2.0;" x1="2332" x2="2393" y1="54.2969" y2="54.2969"/><text fill="#000000" font-family="sans-serif" font-size="14" font-weight="bold" lengthAdjust="spacingAndGlyphs" textLength="48" x="2335" y="47.9951">Views</text><polygon fill="#FFFFFF" filter="url(#f1)" points="2886,279,2928,279,2935,301.2969,2980,301.2969,2980,378,2886,378,2886,279" style="stroke: #000000; stroke-width: 2.0;"/><line style="stroke: #000000; stroke-width: 2.0;" x1="2886" x2="2935" y1="301.2969" y2="301.2969"/><text fill="#000000" font-family="sans-serif" font-size="14" font-weight="bold" lengthAdjust="spacingAndGlyphs" textLength="36" x="2889" y="294.9951">user</text><polygon fill="#FFFFFF" filter="url(#f1)" points="3004,279,3060,279,3067,301.2969,3324,301.2969,3324,378,3004,378,3004,279" style="stroke: #000000; stroke-width: 2.0;"/><line style="stroke: #000000; stroke-width: 2.0;" x1="3004" x2="3067" y1="301.2969" y2="301.2969"/><text fill="#000000" font-family="sans-serif" font-size="14" font-weight="bold" lengthAdjust="spacingAndGlyphs" textLength="50" x="3007" y="294.9951">report</text><polygon fill="#FFFFFF" filter="url(#f1)" points="2449,447,2530,447,2537,469.2969,3017,469.2969,3017,546,2449,546,2449,447" style="stroke: #000000; stroke-width: 2.0;"/><line style="stroke: #000000; stroke-width: 2.0;" x1="2449" x2="2537" y1="469.2969" y2="469.2969"/><text fill="#000000" font-family="sans-serif" font-size="14" font-weight="bold" lengthAdjust="spacingAndGlyphs" textLength="75" x="2452" y="462.9951">inventory</text><polygon fill="#FFFFFF" filter="url(#f1)" points="3372,271,3421,271,3428,293.2969,3505,293.2969,3505,386,3372,386,3372,271" style="stroke: #000000; stroke-width: 2.0;"/><line style="stroke: #000000; stroke-width: 2.0;" x1="3372" x2="3428" y1="293.2969" y2="293.2969"/><text fill="#000000" font-family="sans-serif" font-size="14" font-weight="bold" lengthAdjust="spacingAndGlyphs" textLength="43" x="3375" y="286.9951">index</text><polygon fill="#FFFFFF" filter="url(#f1)" points="2356,75,2400,75,2407,97.2969,2862,97.2969,2862,378,2356,378,2356,75" style="stroke: #000000; stroke-width: 2.0;"/><line style="stroke: #000000; stroke-width: 2.0;" x1="2356" x2="2407" y1="97.2969" y2="97.2969"/><text fill="#000000" font-family="sans-serif" font-size="14" font-weight="bold" lengthAdjust="spacingAndGlyphs" textLength="38" x="2359" y="90.9951">base</text><rect fill="#FEFECE" filter="url(#f1)" height="48" style="stroke: #A80036; stroke-width: 1.5;" width="79" x="2213.5" y="110"/><ellipse cx="2228.5" cy="126" fill="#ADD1B2" rx="11" ry="11" style="stroke: #A80036; stroke-width: 1.0;"/><path d="M2231.4688,131.6406 Q2230.8906,131.9375 2230.25,132.0859 Q2229.6094,132.2344 2228.9063,132.2344 Q2226.4063,132.2344 2225.0859,130.5859 Q2223.7656,128.9375 2223.7656,125.8125 Q2223.7656,122.6875 2225.0859,121.0313 Q2226.4063,119.375 2228.9063,119.375 Q2229.6094,119.375 2230.2578,119.5313 Q2230.9063,119.6875 2231.4688,119.9844 L2231.4688,122.7031 Q2230.8438,122.125 2230.25,121.8516 Q2229.6563,121.5781 2229.0313,121.5781 Q2227.6875,121.5781 2227,122.6484 Q2226.3125,123.7188 2226.3125,125.8125 Q2226.3125,127.9063 2227,128.9766 Q2227.6875,130.0469 2229.0313,130.0469 Q2229.6563,130.0469 2230.25,129.7734 Q2230.8438,129.5 2231.4688,128.9219 L2231.4688,131.6406 Z "/><text fill="#000000" font-family="sans-serif" font-size="12" lengthAdjust="spacingAndGlyphs" textLength="47" x="2242.5" y="130.1543">SQLite3</text><line style="stroke: #A80036; stroke-width: 1.5;" x1="2214.5" x2="2291.5" y1="142" y2="142"/><line style="stroke: #A80036; stroke-width: 1.5;" x1="2214.5" x2="2291.5" y1="150" y2="150"/><rect fill="#FEFECE" filter="url(#f1)" height="48" style="stroke: #A80036; stroke-width: 1.5;" width="93" x="2085.5" y="110"/><ellipse cx="2100.5" cy="126" fill="#ADD1B2" rx="11" ry="11" style="stroke: #A80036; stroke-width: 1.0;"/><path d="M2103.4688,131.6406 Q2102.8906,131.9375 2102.25,132.0859 Q2101.6094,132.2344 2100.9063,132.2344 Q2098.4063,132.2344 2097.0859,130.5859 Q2095.7656,128.9375 2095.7656,125.8125 Q2095.7656,122.6875 2097.0859,121.0313 Q2098.4063,119.375 2100.9063,119.375 Q2101.6094,119.375 2102.2578,119.5313 Q2102.9063,119.6875 2103.4688,119.9844 L2103.4688,122.7031 Q2102.8438,122.125 2102.25,121.8516 Q2101.6563,121.5781 2101.0313,121.5781 Q2099.6875,121.5781 2099,122.6484 Q2098.3125,123.7188 2098.3125,125.8125 Q2098.3125,127.9063 2099,128.9766 Q2099.6875,130.0469 2101.0313,130.0469 Q2101.6563,130.0469 2102.25,129.7734 Q2102.8438,129.5 2103.4688,128.9219 L2103.4688,131.6406 Z "/><text fill="#000000" font-family="sans-serif" font-size="12" lengthAdjust="spacingAndGlyphs" textLength="61" x="2114.5" y="130.1543">Database</text><line style="stroke: #A80036; stroke-width: 1.5;" x1="2086.5" x2="2177.5" y1="142" y2="142"/><line style="stroke: #A80036; stroke-width: 1.5;" x1="2086.5" x2="2177.5" y1="150" y2="150"/><rect fill="#FEFECE" filter="url(#f1)" height="150.4375" style="stroke: #A80036; stroke-width: 1.5;" width="144" x="112" y="59"/><ellipse cx="129.7" cy="75" fill="#ADD1B2" rx="11" ry="11" style="stroke: #A80036; stroke-width: 1.0;"/><path d="M132.6688,80.6406 Q132.0906,80.9375 131.45,81.0859 Q130.8094,81.2344 130.1063,81.2344 Q127.6062,81.2344 126.2859,79.5859 Q124.9656,77.9375 124.9656,74.8125 Q124.9656,71.6875 126.2859,70.0313 Q127.6062,68.375 130.1063,68.375 Q130.8094,68.375 131.4578,68.5313 Q132.1063,68.6875 132.6688,68.9844 L132.6688,71.7031 Q132.0438,71.125 131.45,70.8516 Q130.8563,70.5781 130.2313,70.5781 Q128.8875,70.5781 128.2,71.6484 Q127.5125,72.7188 127.5125,74.8125 Q127.5125,76.9063 128.2,77.9766 Q128.8875,79.0469 130.2313,79.0469 Q130.8563,79.0469 131.45,78.7734 Q132.0438,78.5 132.6688,77.9219 L132.6688,80.6406 Z "/><text fill="#000000" font-family="sans-serif" font-size="12" lengthAdjust="spacingAndGlyphs" textLength="106" x="144.3" y="79.1543">ProductInventory</text><line style="stroke: #A80036; stroke-width: 1.5;" x1="113" x2="255" y1="91" y2="91"/><line style="stroke: #A80036; stroke-width: 1.5;" x1="113" x2="255" y1="99" y2="99"/><text fill="#000000" font-family="sans-serif" font-size="11" lengthAdjust="spacingAndGlyphs" textLength="79" x="118" y="113.2104">str getName()</text><text fill="#000000" font-family="sans-serif" font-size="11" lengthAdjust="spacingAndGlyphs" textLength="102" x="118" y="126.0151">void setName(str)</text><text fill="#000000" font-family="sans-serif" font-size="11" lengthAdjust="spacingAndGlyphs" textLength="109" x="118" y="138.8198">float getCostPrice()</text><text fill="#000000" font-family="sans-serif" font-size="11" lengthAdjust="spacingAndGlyphs" textLength="132" x="118" y="151.6245">void setCostPrice(float)</text><text fill="#000000" font-family="sans-serif" font-size="11" lengthAdjust="spacingAndGlyphs" textLength="108" x="118" y="164.4292">float getSalePrice()</text><text fill="#000000" font-family="sans-serif" font-size="11" lengthAdjust="spacingAndGlyphs" textLength="131" x="118" y="177.2339">void setSalePrice(flaot)</text><text fill="#000000" font-family="sans-serif" font-size="11" lengthAdjust="spacingAndGlyphs" textLength="104" x="118" y="190.0386">int getStockLevel()</text><text fill="#000000" font-family="sans-serif" font-size="11" lengthAdjust="spacingAndGlyphs" textLength="127" x="118" y="202.8433">void setStockLevel(int)</text><rect fill="#FEFECE" filter="url(#f1)" height="48" style="stroke: #A80036; stroke-width: 1.5;" width="165" x="38.5" y="314"/><ellipse cx="53.5" cy="330" fill="#ADD1B2" rx="11" ry="11" style="stroke: #A80036; stroke-width: 1.0;"/><path d="M56.4688,335.6406 Q55.8906,335.9375 55.25,336.0859 Q54.6094,336.2344 53.9063,336.2344 Q51.4063,336.2344 50.0859,334.5859 Q48.7656,332.9375 48.7656,329.8125 Q48.7656,326.6875 50.0859,325.0313 Q51.4063,323.375 53.9063,323.375 Q54.6094,323.375 55.2578,323.5313 Q55.9063,323.6875 56.4688,323.9844 L56.4688,326.7031 Q55.8438,326.125 55.25,325.8516 Q54.6563,325.5781 54.0313,325.5781 Q52.6875,325.5781 52,326.6484 Q51.3125,327.7188 51.3125,329.8125 Q51.3125,331.9063 52,332.9766 Q52.6875,334.0469 54.0313,334.0469 Q54.6563,334.0469 55.25,333.7734 Q55.8438,333.5 56.4688,332.9219 L56.4688,335.6406 Z "/><text fill="#000000" font-family="sans-serif" font-size="12" lengthAdjust="spacingAndGlyphs" textLength="133" x="67.5" y="334.1543">ProductInventoryItem</text><line style="stroke: #A80036; stroke-width: 1.5;" x1="39.5" x2="202.5" y1="346" y2="346"/><line style="stroke: #A80036; stroke-width: 1.5;" x1="39.5" x2="202.5" y1="354" y2="354"/><rect fill="#FEFECE" filter="url(#f1)" height="137.6328" style="stroke: #A80036; stroke-width: 1.5;" width="297" x="238.5" y="269"/><ellipse cx="350.75" cy="285" fill="#ADD1B2" rx="11" ry="11" style="stroke: #A80036; stroke-width: 1.0;"/><path d="M353.7188,290.6406 Q353.1406,290.9375 352.5,291.0859 Q351.8594,291.2344 351.1563,291.2344 Q348.6563,291.2344 347.3359,289.5859 Q346.0156,287.9375 346.0156,284.8125 Q346.0156,281.6875 347.3359,280.0313 Q348.6563,278.375 351.1563,278.375 Q351.8594,278.375 352.5078,278.5313 Q353.1563,278.6875 353.7188,278.9844 L353.7188,281.7031 Q353.0938,281.125 352.5,280.8516 Q351.9063,280.5781 351.2813,280.5781 Q349.9375,280.5781 349.25,281.6484 Q348.5625,282.7188 348.5625,284.8125 Q348.5625,286.9063 349.25,287.9766 Q349.9375,289.0469 351.2813,289.0469 Q351.9063,289.0469 352.5,288.7734 Q353.0938,288.5 353.7188,287.9219 L353.7188,290.6406 Z "/><text fill="#000000" font-family="sans-serif" font-size="12" lengthAdjust="spacingAndGlyphs" textLength="64" x="371.25" y="289.1543">ItemModel</text><line style="stroke: #A80036; stroke-width: 1.5;" x1="239.5" x2="534.5" y1="301" y2="301"/><line style="stroke: #A80036; stroke-width: 1.5;" x1="239.5" x2="534.5" y1="309" y2="309"/><text fill="#000000" font-family="sans-serif" font-size="11" lengthAdjust="spacingAndGlyphs" textLength="285" x="244.5" y="323.2104">static ItemModel FromRowArray(table_model, row)</text><text fill="#000000" font-family="sans-serif" font-size="11" lengthAdjust="spacingAndGlyphs" textLength="240" x="244.5" y="336.0151">static ItemModel FromDB(table_model, pk)</text><text fill="#000000" font-family="sans-serif" font-size="11" lengthAdjust="spacingAndGlyphs" textLength="108" x="244.5" y="348.8198">int getPrimaryKey()</text><text fill="#000000" font-family="sans-serif" font-size="11" lengthAdjust="spacingAndGlyphs" textLength="105" x="244.5" y="361.6245">void insertIntoDB()</text><text fill="#000000" font-family="sans-serif" font-size="11" lengthAdjust="spacingAndGlyphs" textLength="115" x="244.5" y="374.4292">void deleteFromDB()</text><text fill="#000000" font-family="sans-serif" font-size="11" lengthAdjust="spacingAndGlyphs" textLength="138" x="244.5" y="387.2339">void pullValuesFromDB()</text><text fill="#000000" font-family="sans-serif" font-size="11" lengthAdjust="spacingAndGlyphs" textLength="131" x="244.5" y="400.0386">void pushValuesToDB()</text><rect fill="#FEFECE" filter="url(#f1)" height="60.8047" style="stroke: #A80036; stroke-width: 1.5;" width="191" x="291.5" y="103.5"/><ellipse cx="347.25" cy="119.5" fill="#ADD1B2" rx="11" ry="11" style="stroke: #A80036; stroke-width: 1.0;"/><path d="M350.2188,125.1406 Q349.6406,125.4375 349,125.5859 Q348.3594,125.7344 347.6563,125.7344 Q345.1563,125.7344 343.8359,124.0859 Q342.5156,122.4375 342.5156,119.3125 Q342.5156,116.1875 343.8359,114.5313 Q345.1563,112.875 347.6563,112.875 Q348.3594,112.875 349.0078,113.0313 Q349.6563,113.1875 350.2188,113.4844 L350.2188,116.2031 Q349.5938,115.625 349,115.3516 Q348.4063,115.0781 347.7813,115.0781 Q346.4375,115.0781 345.75,116.1484 Q345.0625,117.2188 345.0625,119.3125 Q345.0625,121.4063 345.75,122.4766 Q346.4375,123.5469 347.7813,123.5469 Q348.4063,123.5469 349,123.2734 Q349.5938,123 350.2188,122.4219 L350.2188,125.1406 Z "/><text fill="#000000" font-family="sans-serif" font-size="12" lengthAdjust="spacingAndGlyphs" textLength="71" x="367.75" y="123.6543">TableModel</text><line style="stroke: #A80036; stroke-width: 1.5;" x1="292.5" x2="481.5" y1="135.5" y2="135.5"/><line style="stroke: #A80036; stroke-width: 1.5;" x1="292.5" x2="481.5" y1="143.5" y2="143.5"/><text fill="#000000" font-family="sans-serif" font-size="11" lengthAdjust="spacingAndGlyphs" textLength="179" x="297.5" y="157.7104">ItemModel getItemByKey(int PK)</text><rect fill="#FEFECE" filter="url(#f1)" height="99.2188" style="stroke: #A80036; stroke-width: 1.5;" width="118" x="571" y="288.5"/><ellipse cx="611.65" cy="304.5" fill="#ADD1B2" rx="11" ry="11" style="stroke: #A80036; stroke-width: 1.0;"/><path d="M614.6188,310.1406 Q614.0406,310.4375 613.4,310.5859 Q612.7594,310.7344 612.0563,310.7344 Q609.5563,310.7344 608.2359,309.0859 Q606.9156,307.4375 606.9156,304.3125 Q606.9156,301.1875 608.2359,299.5313 Q609.5563,297.875 612.0563,297.875 Q612.7594,297.875 613.4078,298.0313 Q614.0563,298.1875 614.6188,298.4844 L614.6188,301.2031 Q613.9938,300.625 613.4,300.3516 Q612.8063,300.0781 612.1813,300.0781 Q610.8375,300.0781 610.15,301.1484 Q609.4625,302.2188 609.4625,304.3125 Q609.4625,306.4063 610.15,307.4766 Q610.8375,308.5469 612.1813,308.5469 Q612.8063,308.5469 613.4,308.2734 Q613.9938,308 614.6188,307.4219 L614.6188,310.1406 Z "/><text fill="#000000" font-family="sans-serif" font-size="12" lengthAdjust="spacingAndGlyphs" textLength="29" x="631.35" y="308.6543">User</text><line style="stroke: #A80036; stroke-width: 1.5;" x1="572" x2="688" y1="320.5" y2="320.5"/><text fill="#000000" font-family="sans-serif" font-size="11" lengthAdjust="spacingAndGlyphs" textLength="78" x="577" y="334.7104">str username</text><text fill="#000000" font-family="sans-serif" font-size="11" lengthAdjust="spacingAndGlyphs" textLength="76" x="577" y="347.5151">str password</text><line style="stroke: #A80036; stroke-width: 1.5;" x1="572" x2="688" y1="354.1094" y2="354.1094"/><text fill="#000000" font-family="sans-serif" font-size="11" lengthAdjust="spacingAndGlyphs" textLength="106" x="577" y="368.3198">str getUserName()</text><text fill="#000000" font-family="sans-serif" font-size="11" lengthAdjust="spacingAndGlyphs" textLength="102" x="577" y="381.1245">str getPassword()</text><rect fill="#FEFECE" filter="url(#f1)" height="48" style="stroke: #A80036; stroke-width: 1.5;" width="82" x="518" y="110"/><ellipse cx="533" cy="126" fill="#ADD1B2" rx="11" ry="11" style="stroke: #A80036; stroke-width: 1.0;"/><path d="M535.9688,131.6406 Q535.3906,131.9375 534.75,132.0859 Q534.1094,132.2344 533.4063,132.2344 Q530.9063,132.2344 529.5859,130.5859 Q528.2656,128.9375 528.2656,125.8125 Q528.2656,122.6875 529.5859,121.0313 Q530.9063,119.375 533.4063,119.375 Q534.1094,119.375 534.7578,119.5313 Q535.4063,119.6875 535.9688,119.9844 L535.9688,122.7031 Q535.3438,122.125 534.75,121.8516 Q534.1563,121.5781 533.5313,121.5781 Q532.1875,121.5781 531.5,122.6484 Q530.8125,123.7188 530.8125,125.8125 Q530.8125,127.9063 531.5,128.9766 Q532.1875,130.0469 533.5313,130.0469 Q534.1563,130.0469 534.75,129.7734 Q535.3438,129.5 535.9688,128.9219 L535.9688,131.6406 Z "/><text fill="#000000" font-family="sans-serif" font-size="12" lengthAdjust="spacingAndGlyphs" textLength="50" x="547" y="130.1543">UserList</text><line style="stroke: #A80036; stroke-width: 1.5;" x1="519" x2="599" y1="142" y2="142"/><line style="stroke: #A80036; stroke-width: 1.5;" x1="519" x2="599" y1="150" y2="150"/><rect fill="#FEFECE" filter="url(#f1)" height="73.6094" style="stroke: #A80036; stroke-width: 1.5;" width="422" x="1244" y="97"/><ellipse cx="1420.25" cy="113" fill="#ADD1B2" rx="11" ry="11" style="stroke: #A80036; stroke-width: 1.0;"/><path d="M1423.2188,118.6406 Q1422.6406,118.9375 1422,119.0859 Q1421.3594,119.2344 1420.6563,119.2344 Q1418.1563,119.2344 1416.8359,117.5859 Q1415.5156,115.9375 1415.5156,112.8125 Q1415.5156,109.6875 1416.8359,108.0313 Q1418.1563,106.375 1420.6563,106.375 Q1421.3594,106.375 1422.0078,106.5313 Q1422.6563,106.6875 1423.2188,106.9844 L1423.2188,109.7031 Q1422.5938,109.125 1422,108.8516 Q1421.4063,108.5781 1420.7813,108.5781 Q1419.4375,108.5781 1418.75,109.6484 Q1418.0625,110.7188 1418.0625,112.8125 Q1418.0625,114.9063 1418.75,115.9766 Q1419.4375,117.0469 1420.7813,117.0469 Q1421.4063,117.0469 1422,116.7734 Q1422.5938,116.5 1423.2188,115.9219 L1423.2188,118.6406 Z "/><text fill="#000000" font-family="sans-serif" font-size="12" lengthAdjust="spacingAndGlyphs" textLength="61" x="1440.75" y="117.1543">Controller</text><line style="stroke: #A80036; stroke-width: 1.5;" x1="1245" x2="1665" y1="129" y2="129"/><text fill="#000000" font-family="sans-serif" font-size="11" lengthAdjust="spacingAndGlyphs" textLength="170" x="1250" y="143.2104">url assigned to that controller</text><line style="stroke: #A80036; stroke-width: 1.0;" x1="1245" x2="1665" y1="149.8047" y2="149.8047"/><text fill="#000000" font-family="sans-serif" font-size="11" lengthAdjust="spacingAndGlyphs" textLength="410" x="1250" y="164.0151">return_value[View or detail associated with return value] methodName()</text><polygon fill="#FBFB77" filter="url(#f1)" points="919.5,68.5,919.5,199.5625,1208.5,199.5625,1208.5,78.5,1198.5,68.5,919.5,68.5" style="stroke: #A80036; stroke-width: 1.0;"/><polygon fill="#FBFB77" points="919.5,68.5,919.5,199.5625,1208.5,199.5625,1208.5,138,1243.83,134,1208.5,130,1208.5,78.5,1198.5,68.5,919.5,68.5" style="stroke: #A80036; stroke-width: 1.0;"/><line style="stroke: #A80036; stroke-width: 1.0;" x1="1198.5" x2="1198.5" y1="68.5" y2="78.5"/><line style="stroke: #A80036; stroke-width: 1.0;" x1="1208.5" x2="1198.5" y1="78.5" y2="78.5"/><text fill="#000000" font-family="sans-serif" font-size="13" lengthAdjust="spacingAndGlyphs" textLength="268" x="925.5" y="85.5669">methodName also corresponds to the url,</text><text fill="#000000" font-family="sans-serif" font-size="13" lengthAdjust="spacingAndGlyphs" textLength="137" x="925.5" y="100.6997">so /controller/method</text><text fill="#000000" font-family="sans-serif" font-size="13" lengthAdjust="spacingAndGlyphs" textLength="0" x="929.5" y="115.8325"/><text fill="#000000" font-family="sans-serif" font-size="13" lengthAdjust="spacingAndGlyphs" textLength="146" x="925.5" y="130.9653">return values could be:</text><text fill="#000000" font-family="sans-serif" font-size="13" lengthAdjust="spacingAndGlyphs" textLength="38" x="929.5" y="146.0981">- html</text><text fill="#000000" font-family="sans-serif" font-size="13" lengthAdjust="spacingAndGlyphs" textLength="30" x="929.5" y="161.231">- css</text><text fill="#000000" font-family="sans-serif" font-size="13" lengthAdjust="spacingAndGlyphs" textLength="70" x="929.5" y="176.3638">- javascript</text><text fill="#000000" font-family="sans-serif" font-size="13" lengthAdjust="spacingAndGlyphs" textLength="77" x="929.5" y="191.4966">- redirection</text><rect fill="#FEFECE" filter="url(#f1)" height="73.6094" style="stroke: #A80036; stroke-width: 1.5;" width="310" x="745" y="301"/><ellipse cx="848.75" cy="317" fill="#ADD1B2" rx="11" ry="11" style="stroke: #A80036; stroke-width: 1.0;"/><path d="M851.7188,322.6406 Q851.1406,322.9375 850.5,323.0859 Q849.8594,323.2344 849.1563,323.2344 Q846.6563,323.2344 845.3359,321.5859 Q844.0156,319.9375 844.0156,316.8125 Q844.0156,313.6875 845.3359,312.0313 Q846.6563,310.375 849.1563,310.375 Q849.8594,310.375 850.5078,310.5313 Q851.1563,310.6875 851.7188,310.9844 L851.7188,313.7031 Q851.0938,313.125 850.5,312.8516 Q849.9063,312.5781 849.2813,312.5781 Q847.9375,312.5781 847.25,313.6484 Q846.5625,314.7188 846.5625,316.8125 Q846.5625,318.9063 847.25,319.9766 Q847.9375,321.0469 849.2813,321.0469 Q849.9063,321.0469 850.5,320.7734 Q851.0938,320.5 851.7188,319.9219 L851.7188,322.6406 Z "/><text fill="#000000" font-family="sans-serif" font-size="12" lengthAdjust="spacingAndGlyphs" textLength="94" x="869.25" y="321.1543">LoginController</text><line style="stroke: #A80036; stroke-width: 1.5;" x1="746" x2="1054" y1="333" y2="333"/><text fill="#000000" font-family="sans-serif" font-size="11" lengthAdjust="spacingAndGlyphs" textLength="67" x="751" y="347.2104">url = /login/</text><line style="stroke: #A80036; stroke-width: 1.0;" x1="746" x2="1054" y1="353.8047" y2="353.8047"/><text fill="#000000" font-family="sans-serif" font-size="11" lengthAdjust="spacingAndGlyphs" textLength="298" x="751" y="368.0151">html[Login or redirection on POST from form] login()</text><rect fill="#FEFECE" filter="url(#f1)" height="112.0234" style="stroke: #A80036; stroke-width: 1.5;" width="390" x="1090" y="282"/><ellipse cx="1221.75" cy="298" fill="#ADD1B2" rx="11" ry="11" style="stroke: #A80036; stroke-width: 1.0;"/><path d="M1224.7188,303.6406 Q1224.1406,303.9375 1223.5,304.0859 Q1222.8594,304.2344 1222.1563,304.2344 Q1219.6563,304.2344 1218.3359,302.5859 Q1217.0156,300.9375 1217.0156,297.8125 Q1217.0156,294.6875 1218.3359,293.0313 Q1219.6563,291.375 1222.1563,291.375 Q1222.8594,291.375 1223.5078,291.5313 Q1224.1563,291.6875 1224.7188,291.9844 L1224.7188,294.7031 Q1224.0938,294.125 1223.5,293.8516 Q1222.9063,293.5781 1222.2813,293.5781 Q1220.9375,293.5781 1220.25,294.6484 Q1219.5625,295.7188 1219.5625,297.8125 Q1219.5625,299.9063 1220.25,300.9766 Q1220.9375,302.0469 1222.2813,302.0469 Q1222.9063,302.0469 1223.5,301.7734 Q1224.0938,301.5 1224.7188,300.9219 L1224.7188,303.6406 Z "/><text fill="#000000" font-family="sans-serif" font-size="12" lengthAdjust="spacingAndGlyphs" textLength="118" x="1242.25" y="302.1543">InventoryController</text><line style="stroke: #A80036; stroke-width: 1.5;" x1="1091" x2="1479" y1="314" y2="314"/><text fill="#000000" font-family="sans-serif" font-size="11" lengthAdjust="spacingAndGlyphs" textLength="92" x="1096" y="328.2104">url = /inventory/</text><line style="stroke: #A80036; stroke-width: 1.0;" x1="1091" x2="1479" y1="334.8047" y2="334.8047"/><text fill="#000000" font-family="sans-serif" font-size="11" lengthAdjust="spacingAndGlyphs" textLength="378" x="1096" y="349.0151">html[NewInventoryItem] or redirect[on POST from form] NewItem()</text><text fill="#000000" font-family="sans-serif" font-size="11" lengthAdjust="spacingAndGlyphs" textLength="375" x="1096" y="361.8198">html[NewInventoryItem] or redirect[on POST from form] EditItem()</text><text fill="#000000" font-family="sans-serif" font-size="11" lengthAdjust="spacingAndGlyphs" textLength="231" x="1096" y="374.6245">html[InventoryItemTable] ViewInventory()</text><text fill="#000000" font-family="sans-serif" font-size="11" lengthAdjust="spacingAndGlyphs" textLength="117" x="1096" y="387.4292">redirect DeleteItem()</text><rect fill="#FEFECE" filter="url(#f1)" height="73.6094" style="stroke: #A80036; stroke-width: 1.5;" width="219" x="1515.5" y="301"/><ellipse cx="1569.25" cy="317" fill="#ADD1B2" rx="11" ry="11" style="stroke: #A80036; stroke-width: 1.0;"/><path d="M1572.2188,322.6406 Q1571.6406,322.9375 1571,323.0859 Q1570.3594,323.2344 1569.6563,323.2344 Q1567.1563,323.2344 1565.8359,321.5859 Q1564.5156,319.9375 1564.5156,316.8125 Q1564.5156,313.6875 1565.8359,312.0313 Q1567.1563,310.375 1569.6563,310.375 Q1570.3594,310.375 1571.0078,310.5313 Q1571.6563,310.6875 1572.2188,310.9844 L1572.2188,313.7031 Q1571.5938,313.125 1571,312.8516 Q1570.4063,312.5781 1569.7813,312.5781 Q1568.4375,312.5781 1567.75,313.6484 Q1567.0625,314.7188 1567.0625,316.8125 Q1567.0625,318.9063 1567.75,319.9766 Q1568.4375,321.0469 1569.7813,321.0469 Q1570.4063,321.0469 1571,320.7734 Q1571.5938,320.5 1572.2188,319.9219 L1572.2188,322.6406 Z "/><text fill="#000000" font-family="sans-serif" font-size="12" lengthAdjust="spacingAndGlyphs" textLength="103" x="1589.75" y="321.1543">ReportController</text><line style="stroke: #A80036; stroke-width: 1.5;" x1="1516.5" x2="1733.5" y1="333" y2="333"/><text fill="#000000" font-family="sans-serif" font-size="11" lengthAdjust="spacingAndGlyphs" textLength="75" x="1521.5" y="347.2104">url = /report/</text><line style="stroke: #A80036; stroke-width: 1.0;" x1="1516.5" x2="1733.5" y1="353.8047" y2="353.8047"/><text fill="#000000" font-family="sans-serif" font-size="11" lengthAdjust="spacingAndGlyphs" textLength="207" x="1521.5" y="368.0151">html[StockReport] ViewStockReport()</text><rect fill="#FEFECE" filter="url(#f1)" height="48" style="stroke: #A80036; stroke-width: 1.5;" width="122" x="1770" y="314"/><ellipse cx="1785" cy="330" fill="#ADD1B2" rx="11" ry="11" style="stroke: #A80036; stroke-width: 1.0;"/><path d="M1787.9688,335.6406 Q1787.3906,335.9375 1786.75,336.0859 Q1786.1094,336.2344 1785.4063,336.2344 Q1782.9063,336.2344 1781.5859,334.5859 Q1780.2656,332.9375 1780.2656,329.8125 Q1780.2656,326.6875 1781.5859,325.0313 Q1782.9063,323.375 1785.4063,323.375 Q1786.1094,323.375 1786.7578,323.5313 Q1787.4063,323.6875 1787.9688,323.9844 L1787.9688,326.7031 Q1787.3438,326.125 1786.75,325.8516 Q1786.1563,325.5781 1785.5313,325.5781 Q1784.1875,325.5781 1783.5,326.6484 Q1782.8125,327.7188 1782.8125,329.8125 Q1782.8125,331.9063 1783.5,332.9766 Q1784.1875,334.0469 1785.5313,334.0469 Q1786.1563,334.0469 1786.75,333.7734 Q1787.3438,333.5 1787.9688,332.9219 L1787.9688,335.6406 Z "/><text fill="#000000" font-family="sans-serif" font-size="12" lengthAdjust="spacingAndGlyphs" textLength="90" x="1799" y="334.1543">UserController</text><line style="stroke: #A80036; stroke-width: 1.5;" x1="1771" x2="1891" y1="346" y2="346"/><line style="stroke: #A80036; stroke-width: 1.5;" x1="1771" x2="1891" y1="354" y2="354"/><rect fill="#FEFECE" filter="url(#f1)" height="48" style="stroke: #A80036; stroke-width: 1.5;" width="62" x="2902" y="314"/><ellipse cx="2917" cy="330" fill="#ADD1B2" rx="11" ry="11" style="stroke: #A80036; stroke-width: 1.0;"/><path d="M2919.9688,335.6406 Q2919.3906,335.9375 2918.75,336.0859 Q2918.1094,336.2344 2917.4063,336.2344 Q2914.9063,336.2344 2913.5859,334.5859 Q2912.2656,332.9375 2912.2656,329.8125 Q2912.2656,326.6875 2913.5859,325.0313 Q2914.9063,323.375 2917.4063,323.375 Q2918.1094,323.375 2918.7578,323.5313 Q2919.4063,323.6875 2919.9688,323.9844 L2919.9688,326.7031 Q2919.3438,326.125 2918.75,325.8516 Q2918.1563,325.5781 2917.5313,325.5781 Q2916.1875,325.5781 2915.5,326.6484 Q2914.8125,327.7188 2914.8125,329.8125 Q2914.8125,331.9063 2915.5,332.9766 Q2916.1875,334.0469 2917.5313,334.0469 Q2918.1563,334.0469 2918.75,333.7734 Q2919.3438,333.5 2919.9688,332.9219 L2919.9688,335.6406 Z "/><text fill="#000000" font-family="sans-serif" font-size="12" lengthAdjust="spacingAndGlyphs" textLength="30" x="2931" y="334.1543">login</text><line style="stroke: #A80036; stroke-width: 1.5;" x1="2903" x2="2963" y1="346" y2="346"/><line style="stroke: #A80036; stroke-width: 1.5;" x1="2903" x2="2963" y1="354" y2="354"/><rect fill="#FEFECE" filter="url(#f1)" height="48" style="stroke: #A80036; stroke-width: 1.5;" width="142" x="3166" y="314"/><ellipse cx="3181" cy="330" fill="#ADD1B2" rx="11" ry="11" style="stroke: #A80036; stroke-width: 1.0;"/><path d="M3183.9688,335.6406 Q3183.3906,335.9375 3182.75,336.0859 Q3182.1094,336.2344 3181.4063,336.2344 Q3178.9063,336.2344 3177.5859,334.5859 Q3176.2656,332.9375 3176.2656,329.8125 Q3176.2656,326.6875 3177.5859,325.0313 Q3178.9063,323.375 3181.4063,323.375 Q3182.1094,323.375 3182.7578,323.5313 Q3183.4063,323.6875 3183.9688,323.9844 L3183.9688,326.7031 Q3183.3438,326.125 3182.75,325.8516 Q3182.1563,325.5781 3181.5313,325.5781 Q3180.1875,325.5781 3179.5,326.6484 Q3178.8125,327.7188 3178.8125,329.8125 Q3178.8125,331.9063 3179.5,332.9766 Q3180.1875,334.0469 3181.5313,334.0469 Q3182.1563,334.0469 3182.75,333.7734 Q3183.3438,333.5 3183.9688,332.9219 L3183.9688,335.6406 Z "/><text fill="#000000" font-family="sans-serif" font-size="12" lengthAdjust="spacingAndGlyphs" textLength="110" x="3195" y="334.1543">new_stock_report</text><line style="stroke: #A80036; stroke-width: 1.5;" x1="3167" x2="3307" y1="346" y2="346"/><line style="stroke: #A80036; stroke-width: 1.5;" x1="3167" x2="3307" y1="354" y2="354"/><rect fill="#FEFECE" filter="url(#f1)" height="48" style="stroke: #A80036; stroke-width: 1.5;" width="111" x="3019.5" y="314"/><ellipse cx="3034.5" cy="330" fill="#ADD1B2" rx="11" ry="11" style="stroke: #A80036; stroke-width: 1.0;"/><path d="M3037.4688,335.6406 Q3036.8906,335.9375 3036.25,336.0859 Q3035.6094,336.2344 3034.9063,336.2344 Q3032.4063,336.2344 3031.0859,334.5859 Q3029.7656,332.9375 3029.7656,329.8125 Q3029.7656,326.6875 3031.0859,325.0313 Q3032.4063,323.375 3034.9063,323.375 Q3035.6094,323.375 3036.2578,323.5313 Q3036.9063,323.6875 3037.4688,323.9844 L3037.4688,326.7031 Q3036.8438,326.125 3036.25,325.8516 Q3035.6563,325.5781 3035.0313,325.5781 Q3033.6875,325.5781 3033,326.6484 Q3032.3125,327.7188 3032.3125,329.8125 Q3032.3125,331.9063 3033,332.9766 Q3033.6875,334.0469 3035.0313,334.0469 Q3035.6563,334.0469 3036.25,333.7734 Q3036.8438,333.5 3037.4688,332.9219 L3037.4688,335.6406 Z "/><text fill="#000000" font-family="sans-serif" font-size="12" lengthAdjust="spacingAndGlyphs" textLength="79" x="3048.5" y="334.1543">stock_report</text><line style="stroke: #A80036; stroke-width: 1.5;" x1="3020.5" x2="3129.5" y1="346" y2="346"/><line style="stroke: #A80036; stroke-width: 1.5;" x1="3020.5" x2="3129.5" y1="354" y2="354"/><rect fill="#FEFECE" filter="url(#f1)" height="48" style="stroke: #A80036; stroke-width: 1.5;" width="152" x="2654" y="482"/><ellipse cx="2669" cy="498" fill="#ADD1B2" rx="11" ry="11" style="stroke: #A80036; stroke-width: 1.0;"/><path d="M2671.9688,503.6406 Q2671.3906,503.9375 2670.75,504.0859 Q2670.1094,504.2344 2669.4063,504.2344 Q2666.9063,504.2344 2665.5859,502.5859 Q2664.2656,500.9375 2664.2656,497.8125 Q2664.2656,494.6875 2665.5859,493.0313 Q2666.9063,491.375 2669.4063,491.375 Q2670.1094,491.375 2670.7578,491.5313 Q2671.4063,491.6875 2671.9688,491.9844 L2671.9688,494.7031 Q2671.3438,494.125 2670.75,493.8516 Q2670.1563,493.5781 2669.5313,493.5781 Q2668.1875,493.5781 2667.5,494.6484 Q2666.8125,495.7188 2666.8125,497.8125 Q2666.8125,499.9063 2667.5,500.9766 Q2668.1875,502.0469 2669.5313,502.0469 Q2670.1563,502.0469 2670.75,501.7734 Q2671.3438,501.5 2671.9688,500.9219 L2671.9688,503.6406 Z "/><text fill="#000000" font-family="sans-serif" font-size="12" lengthAdjust="spacingAndGlyphs" textLength="120" x="2683" y="502.1543">edit_inventory_item</text><line style="stroke: #A80036; stroke-width: 1.5;" x1="2655" x2="2805" y1="514" y2="514"/><line style="stroke: #A80036; stroke-width: 1.5;" x1="2655" x2="2805" y1="522" y2="522"/><rect fill="#FEFECE" filter="url(#f1)" height="48" style="stroke: #A80036; stroke-width: 1.5;" width="160" x="2841" y="482"/><ellipse cx="2856" cy="498" fill="#ADD1B2" rx="11" ry="11" style="stroke: #A80036; stroke-width: 1.0;"/><path d="M2858.9688,503.6406 Q2858.3906,503.9375 2857.75,504.0859 Q2857.1094,504.2344 2856.4063,504.2344 Q2853.9063,504.2344 2852.5859,502.5859 Q2851.2656,500.9375 2851.2656,497.8125 Q2851.2656,494.6875 2852.5859,493.0313 Q2853.9063,491.375 2856.4063,491.375 Q2857.1094,491.375 2857.7578,491.5313 Q2858.4063,491.6875 2858.9688,491.9844 L2858.9688,494.7031 Q2858.3438,494.125 2857.75,493.8516 Q2857.1563,493.5781 2856.5313,493.5781 Q2855.1875,493.5781 2854.5,494.6484 Q2853.8125,495.7188 2853.8125,497.8125 Q2853.8125,499.9063 2854.5,500.9766 Q2855.1875,502.0469 2856.5313,502.0469 Q2857.1563,502.0469 2857.75,501.7734 Q2858.3438,501.5 2858.9688,500.9219 L2858.9688,503.6406 Z "/><text fill="#000000" font-family="sans-serif" font-size="12" lengthAdjust="spacingAndGlyphs" textLength="128" x="2870" y="502.1543">inventory_item_table</text><line style="stroke: #A80036; stroke-width: 1.5;" x1="2842" x2="3000" y1="514" y2="514"/><line style="stroke: #A80036; stroke-width: 1.5;" x1="2842" x2="3000" y1="522" y2="522"/><rect fill="#FEFECE" filter="url(#f1)" height="48" style="stroke: #A80036; stroke-width: 1.5;" width="153" x="2465.5" y="482"/><ellipse cx="2480.5" cy="498" fill="#ADD1B2" rx="11" ry="11" style="stroke: #A80036; stroke-width: 1.0;"/><path d="M2483.4688,503.6406 Q2482.8906,503.9375 2482.25,504.0859 Q2481.6094,504.2344 2480.9063,504.2344 Q2478.4063,504.2344 2477.0859,502.5859 Q2475.7656,500.9375 2475.7656,497.8125 Q2475.7656,494.6875 2477.0859,493.0313 Q2478.4063,491.375 2480.9063,491.375 Q2481.6094,491.375 2482.2578,491.5313 Q2482.9063,491.6875 2483.4688,491.9844 L2483.4688,494.7031 Q2482.8438,494.125 2482.25,493.8516 Q2481.6563,493.5781 2481.0313,493.5781 Q2479.6875,493.5781 2479,494.6484 Q2478.3125,495.7188 2478.3125,497.8125 Q2478.3125,499.9063 2479,500.9766 Q2479.6875,502.0469 2481.0313,502.0469 Q2481.6563,502.0469 2482.25,501.7734 Q2482.8438,501.5 2483.4688,500.9219 L2483.4688,503.6406 Z "/><text fill="#000000" font-family="sans-serif" font-size="12" lengthAdjust="spacingAndGlyphs" textLength="121" x="2494.5" y="502.1543">new_inventory_item</text><line style="stroke: #A80036; stroke-width: 1.5;" x1="2466.5" x2="2617.5" y1="514" y2="514"/><line style="stroke: #A80036; stroke-width: 1.5;" x1="2466.5" x2="2617.5" y1="522" y2="522"/><rect fill="#FEFECE" filter="url(#f1)" height="48" style="stroke: #A80036; stroke-width: 1.5;" width="65" x="3415.5" y="314"/><ellipse cx="3430.5" cy="330" fill="#ADD1B2" rx="11" ry="11" style="stroke: #A80036; stroke-width: 1.0;"/><path d="M3433.4688,335.6406 Q3432.8906,335.9375 3432.25,336.0859 Q3431.6094,336.2344 3430.9063,336.2344 Q3428.4063,336.2344 3427.0859,334.5859 Q3425.7656,332.9375 3425.7656,329.8125 Q3425.7656,326.6875 3427.0859,325.0313 Q3428.4063,323.375 3430.9063,323.375 Q3431.6094,323.375 3432.2578,323.5313 Q3432.9063,323.6875 3433.4688,323.9844 L3433.4688,326.7031 Q3432.8438,326.125 3432.25,325.8516 Q3431.6563,325.5781 3431.0313,325.5781 Q3429.6875,325.5781 3429,326.6484 Q3428.3125,327.7188 3428.3125,329.8125 Q3428.3125,331.9063 3429,332.9766 Q3429.6875,334.0469 3431.0313,334.0469 Q3431.6563,334.0469 3432.25,333.7734 Q3432.8438,333.5 3433.4688,332.9219 L3433.4688,335.6406 Z "/><text fill="#000000" font-family="sans-serif" font-size="12" lengthAdjust="spacingAndGlyphs" textLength="33" x="3444.5" y="334.1543">index</text><line style="stroke: #A80036; stroke-width: 1.5;" x1="3416.5" x2="3479.5" y1="346" y2="346"/><line style="stroke: #A80036; stroke-width: 1.5;" x1="3416.5" x2="3479.5" y1="354" y2="354"/><rect fill="#FEFECE" filter="url(#f1)" height="48" style="stroke: #A80036; stroke-width: 1.5;" width="89" x="2371.5" y="314"/><ellipse cx="2386.5" cy="330" fill="#ADD1B2" rx="11" ry="11" style="stroke: #A80036; stroke-width: 1.0;"/><path d="M2389.4688,335.6406 Q2388.8906,335.9375 2388.25,336.0859 Q2387.6094,336.2344 2386.9063,336.2344 Q2384.4063,336.2344 2383.0859,334.5859 Q2381.7656,332.9375 2381.7656,329.8125 Q2381.7656,326.6875 2383.0859,325.0313 Q2384.4063,323.375 2386.9063,323.375 Q2387.6094,323.375 2388.2578,323.5313 Q2388.9063,323.6875 2389.4688,323.9844 L2389.4688,326.7031 Q2388.8438,326.125 2388.25,325.8516 Q2387.6563,325.5781 2387.0313,325.5781 Q2385.6875,325.5781 2385,326.6484 Q2384.3125,327.7188 2384.3125,329.8125 Q2384.3125,331.9063 2385,332.9766 Q2385.6875,334.0469 2387.0313,334.0469 Q2387.6563,334.0469 2388.25,333.7734 Q2388.8438,333.5 2389.4688,332.9219 L2389.4688,335.6406 Z "/><text fill="#000000" font-family="sans-serif" font-size="12" lengthAdjust="spacingAndGlyphs" textLength="57" x="2400.5" y="334.1543">edit_item</text><line style="stroke: #A80036; stroke-width: 1.5;" x1="2372.5" x2="2459.5" y1="346" y2="346"/><line style="stroke: #A80036; stroke-width: 1.5;" x1="2372.5" x2="2459.5" y1="354" y2="354"/><rect fill="#FEFECE" filter="url(#f1)" height="48" style="stroke: #A80036; stroke-width: 1.5;" width="93" x="2495.5" y="314"/><ellipse cx="2510.5" cy="330" fill="#ADD1B2" rx="11" ry="11" style="stroke: #A80036; stroke-width: 1.0;"/><path d="M2513.4688,335.6406 Q2512.8906,335.9375 2512.25,336.0859 Q2511.6094,336.2344 2510.9063,336.2344 Q2508.4063,336.2344 2507.0859,334.5859 Q2505.7656,332.9375 2505.7656,329.8125 Q2505.7656,326.6875 2507.0859,325.0313 Q2508.4063,323.375 2510.9063,323.375 Q2511.6094,323.375 2512.2578,323.5313 Q2512.9063,323.6875 2513.4688,323.9844 L2513.4688,326.7031 Q2512.8438,326.125 2512.25,325.8516 Q2511.6563,325.5781 2511.0313,325.5781 Q2509.6875,325.5781 2509,326.6484 Q2508.3125,327.7188 2508.3125,329.8125 Q2508.3125,331.9063 2509,332.9766 Q2509.6875,334.0469 2511.0313,334.0469 Q2511.6563,334.0469 2512.25,333.7734 Q2512.8438,333.5 2513.4688,332.9219 L2513.4688,335.6406 Z "/><text fill="#000000" font-family="sans-serif" font-size="12" lengthAdjust="spacingAndGlyphs" textLength="61" x="2524.5" y="334.1543">item_form</text><line style="stroke: #A80036; stroke-width: 1.5;" x1="2496.5" x2="2587.5" y1="346" y2="346"/><line style="stroke: #A80036; stroke-width: 1.5;" x1="2496.5" x2="2587.5" y1="354" y2="354"/><rect fill="#FEFECE" filter="url(#f1)" height="48" style="stroke: #A80036; stroke-width: 1.5;" width="97" x="2623.5" y="314"/><ellipse cx="2638.5" cy="330" fill="#ADD1B2" rx="11" ry="11" style="stroke: #A80036; stroke-width: 1.0;"/><path d="M2641.4688,335.6406 Q2640.8906,335.9375 2640.25,336.0859 Q2639.6094,336.2344 2638.9063,336.2344 Q2636.4063,336.2344 2635.0859,334.5859 Q2633.7656,332.9375 2633.7656,329.8125 Q2633.7656,326.6875 2635.0859,325.0313 Q2636.4063,323.375 2638.9063,323.375 Q2639.6094,323.375 2640.2578,323.5313 Q2640.9063,323.6875 2641.4688,323.9844 L2641.4688,326.7031 Q2640.8438,326.125 2640.25,325.8516 Q2639.6563,325.5781 2639.0313,325.5781 Q2637.6875,325.5781 2637,326.6484 Q2636.3125,327.7188 2636.3125,329.8125 Q2636.3125,331.9063 2637,332.9766 Q2637.6875,334.0469 2639.0313,334.0469 Q2639.6563,334.0469 2640.25,333.7734 Q2640.8438,333.5 2641.4688,332.9219 L2641.4688,335.6406 Z "/><text fill="#000000" font-family="sans-serif" font-size="12" lengthAdjust="spacingAndGlyphs" textLength="65" x="2652.5" y="334.1543">item_table</text><line style="stroke: #A80036; stroke-width: 1.5;" x1="2624.5" x2="2719.5" y1="346" y2="346"/><line style="stroke: #A80036; stroke-width: 1.5;" x1="2624.5" x2="2719.5" y1="354" y2="354"/><rect fill="#FEFECE" filter="url(#f1)" height="48" style="stroke: #A80036; stroke-width: 1.5;" width="90" x="2756" y="314"/><ellipse cx="2771" cy="330" fill="#ADD1B2" rx="11" ry="11" style="stroke: #A80036; stroke-width: 1.0;"/><path d="M2773.9688,335.6406 Q2773.3906,335.9375 2772.75,336.0859 Q2772.1094,336.2344 2771.4063,336.2344 Q2768.9063,336.2344 2767.5859,334.5859 Q2766.2656,332.9375 2766.2656,329.8125 Q2766.2656,326.6875 2767.5859,325.0313 Q2768.9063,323.375 2771.4063,323.375 Q2772.1094,323.375 2772.7578,323.5313 Q2773.4063,323.6875 2773.9688,323.9844 L2773.9688,326.7031 Q2773.3438,326.125 2772.75,325.8516 Q2772.1563,325.5781 2771.5313,325.5781 Q2770.1875,325.5781 2769.5,326.6484 Q2768.8125,327.7188 2768.8125,329.8125 Q2768.8125,331.9063 2769.5,332.9766 Q2770.1875,334.0469 2771.5313,334.0469 Q2772.1563,334.0469 2772.75,333.7734 Q2773.3438,333.5 2773.9688,332.9219 L2773.9688,335.6406 Z "/><text fill="#000000" font-family="sans-serif" font-size="12" lengthAdjust="spacingAndGlyphs" textLength="58" x="2785" y="334.1543">new_item</text><line style="stroke: #A80036; stroke-width: 1.5;" x1="2757" x2="2845" y1="346" y2="346"/><line style="stroke: #A80036; stroke-width: 1.5;" x1="2757" x2="2845" y1="354" y2="354"/><rect fill="#FEFECE" filter="url(#f1)" height="48" style="stroke: #A80036; stroke-width: 1.5;" width="124" x="2722" y="110"/><ellipse cx="2737" cy="126" fill="#ADD1B2" rx="11" ry="11" style="stroke: #A80036; stroke-width: 1.0;"/><path d="M2739.9688,131.6406 Q2739.3906,131.9375 2738.75,132.0859 Q2738.1094,132.2344 2737.4063,132.2344 Q2734.9063,132.2344 2733.5859,130.5859 Q2732.2656,128.9375 2732.2656,125.8125 Q2732.2656,122.6875 2733.5859,121.0313 Q2734.9063,119.375 2737.4063,119.375 Q2738.1094,119.375 2738.7578,119.5313 Q2739.4063,119.6875 2739.9688,119.9844 L2739.9688,122.7031 Q2739.3438,122.125 2738.75,121.8516 Q2738.1563,121.5781 2737.5313,121.5781 Q2736.1875,121.5781 2735.5,122.6484 Q2734.8125,123.7188 2734.8125,125.8125 Q2734.8125,127.9063 2735.5,128.9766 Q2736.1875,130.0469 2737.5313,130.0469 Q2738.1563,130.0469 2738.75,129.7734 Q2739.3438,129.5 2739.9688,128.9219 L2739.9688,131.6406 Z "/><text fill="#000000" font-family="sans-serif" font-size="12" lengthAdjust="spacingAndGlyphs" textLength="92" x="2751" y="130.1543">website_layout</text><line style="stroke: #A80036; stroke-width: 1.5;" x1="2723" x2="2845" y1="142" y2="142"/><line style="stroke: #A80036; stroke-width: 1.5;" x1="2723" x2="2845" y1="150" y2="150"/><rect fill="#FEFECE" filter="url(#f1)" height="48" style="stroke: #A80036; stroke-width: 1.5;" width="126" x="1924" y="110"/><ellipse cx="1939" cy="126" fill="#ADD1B2" rx="11" ry="11" style="stroke: #A80036; stroke-width: 1.0;"/><path d="M1941.9688,131.6406 Q1941.3906,131.9375 1940.75,132.0859 Q1940.1094,132.2344 1939.4063,132.2344 Q1936.9063,132.2344 1935.5859,130.5859 Q1934.2656,128.9375 1934.2656,125.8125 Q1934.2656,122.6875 1935.5859,121.0313 Q1936.9063,119.375 1939.4063,119.375 Q1940.1094,119.375 1940.7578,119.5313 Q1941.4063,119.6875 1941.9688,119.9844 L1941.9688,122.7031 Q1941.3438,122.125 1940.75,121.8516 Q1940.1563,121.5781 1939.5313,121.5781 Q1938.1875,121.5781 1937.5,122.6484 Q1936.8125,123.7188 1936.8125,125.8125 Q1936.8125,127.9063 1937.5,128.9766 Q1938.1875,130.0469 1939.5313,130.0469 Q1940.1563,130.0469 1940.75,129.7734 Q1941.3438,129.5 1941.9688,128.9219 L1941.9688,131.6406 Z "/><text fill="#000000" font-family="sans-serif" font-size="12" lengthAdjust="spacingAndGlyphs" textLength="94" x="1953" y="130.1543">FrontController</text><line style="stroke: #A80036; stroke-width: 1.5;" x1="1925" x2="2049" y1="142" y2="142"/><line style="stroke: #A80036; stroke-width: 1.5;" x1="1925" x2="2049" y1="150" y2="150"/><path d="M256.16,134 C261.211,134 266.262,134 271.313,134 " fill="none" style="stroke: #A80036; stroke-width: 1.0;"/><polygon fill="none" points="271.426,127,291.426,134,271.426,141,271.426,127" style="stroke: #A80036; stroke-width: 1.0;"/><path d="M502.789,134 C507.823,134 512.858,134 517.892,134 " fill="none" style="stroke: #A80036; stroke-width: 1.0;"/><polygon fill="none" points="502.742,141,482.742,134,502.742,127,502.742,141" style="stroke: #A80036; stroke-width: 1.0;"/><path d="M203.605,338 C208.491,338 213.377,338 218.263,338 " fill="none" style="stroke: #A80036; stroke-width: 1.0;"/><polygon fill="none" points="218.35,331,238.35,338,218.35,345,218.35,331" style="stroke: #A80036; stroke-width: 1.0;"/><path d="M555.752,338 C560.825,338 565.898,338 570.97,338 " fill="none" style="stroke: #A80036; stroke-width: 1.0;"/><polygon fill="none" points="555.553,345,535.553,338,555.553,331,555.553,345" style="stroke: #A80036; stroke-width: 1.0;"/><path d="M376.358,177.788 C374.198,204.138 373.698,238.514 374.859,268.577 " fill="none" style="stroke: #A80036; stroke-width: 1.0;"/><polygon fill="#A80036" points="377.64,164.806,373.0699,170.384,376.4611,176.748,381.0312,171.1699,377.64,164.806" style="stroke: #A80036; stroke-width: 1.0;"/><path d="M396.911,164.806 C399.905,188.727 401.026,223.489 400.273,255.526 " fill="none" style="stroke: #A80036; stroke-width: 1.0;"/><polygon fill="none" points="399.855,268.577,404.0448,262.708,400.2388,256.5831,396.0489,262.4522,399.855,268.577" style="stroke: #A80036; stroke-width: 1.0;"/><path d="M1498.49,186.672 C1528.56,222.408 1567.83,269.064 1594.58,300.859 " fill="none" style="stroke: #A80036; stroke-width: 1.0;"/><polygon fill="none" points="1492.91,190.923,1485.39,171.114,1503.63,181.908,1492.91,190.923" style="stroke: #A80036; stroke-width: 1.0;"/><path d="M1595.46,177.953 C1647.09,197.211 1704.49,222.914 1752,255 C1776.08,271.264 1798.56,295.887 1813.33,313.907 " fill="none" style="stroke: #A80036; stroke-width: 1.0;"/><polygon fill="none" points="1592.77,184.423,1576.36,171.018,1597.54,171.263,1592.77,184.423" style="stroke: #A80036; stroke-width: 1.0;"/><path d="M1411.69,186.46 C1387.17,215.597 1356.5,252.045 1331.47,281.78 " fill="none" style="stroke: #A80036; stroke-width: 1.0;"/><polygon fill="none" points="1406.37,181.908,1424.61,171.114,1417.09,190.923,1406.37,181.908" style="stroke: #A80036; stroke-width: 1.0;"/><path d="M1325.72,177.331 C1293.22,187.822 1258.37,198.938 1226,209 C1157.79,230.206 1138.66,229.331 1072,255 C1037.42,268.314 1000.18,285.674 969.221,300.99 " fill="none" style="stroke: #A80036; stroke-width: 1.0;"/><polygon fill="none" points="1323.9,170.563,1345.09,171.067,1328.21,183.883,1323.9,170.563" style="stroke: #A80036; stroke-width: 1.0;"/><path d="M2787.65,178.373 C2791.14,219.854 2796.27,280.824 2799.05,313.788 " fill="none" style="stroke: #A80036; stroke-width: 1.0;"/><polygon fill="none" points="2780.65,178.689,2785.95,158.172,2794.6,177.514,2780.65,178.689" style="stroke: #A80036; stroke-width: 1.0;"/><path d="M2702.43,153.834 C2637,171.873 2545.28,204.005 2478,255 C2457.09,270.847 2439.75,295.533 2428.78,313.681 " fill="none" style="stroke: #A80036; stroke-width: 1.0;"/><polygon fill="none" points="2700.71,147.047,2721.84,148.682,2704.31,160.579,2700.71,147.047" style="stroke: #A80036; stroke-width: 1.0;"/><path d="M2761.37,175.818 C2738.36,217.313 2703.53,280.141 2684.87,313.788 " fill="none" style="stroke: #A80036; stroke-width: 1.0;"/><polygon fill="none" points="2755.33,172.269,2771.15,158.172,2767.58,179.058,2755.33,172.269" style="stroke: #A80036; stroke-width: 1.0;"/><path d="M2724.63,168.485 C2688.29,190.509 2642.02,221.401 2606,255 C2586.98,272.738 2569.11,296.466 2557.11,313.833 " fill="none" style="stroke: #A80036; stroke-width: 1.0;"/><polygon fill="none" points="2721.33,162.304,2742.1,158.111,2728.48,174.342,2721.33,162.304" style="stroke: #A80036; stroke-width: 1.0;"/><path d="M2866.29,141.278 C3016.79,154.258 3328.63,188.55 3412,255 C3430.24,269.536 3439.46,295.19 3443.97,313.943 " fill="none" style="stroke: #A80036; stroke-width: 1.0;"/><polygon fill="none" points="2865.51,148.237,2846.16,139.587,2866.68,134.286,2865.51,148.237" style="stroke: #A80036; stroke-width: 1.0;"/><path d="M2843.7,168.15 C2883.39,191.004 2936.09,222.935 2980,255 C3005.16,273.374 3031.86,296.807 3050.52,313.914 " fill="none" style="stroke: #A80036; stroke-width: 1.0;"/><polygon fill="none" points="2840.09,174.151,2826.18,158.166,2847.02,161.988,2840.09,174.151" style="stroke: #A80036; stroke-width: 1.0;"/><path d="M2865.85,151.448 C2942.5,169.22 3058.35,202.297 3148,255 C3174.81,270.759 3200.36,295.703 3217.16,313.945 " fill="none" style="stroke: #A80036; stroke-width: 1.0;"/><polygon fill="none" points="2864.27,158.266,2846.29,147.047,2867.34,144.607,2864.27,158.266" style="stroke: #A80036; stroke-width: 1.0;"/><path d="M2813.08,174.421 C2843.67,215.891 2890.78,279.761 2915.88,313.788 " fill="none" style="stroke: #A80036; stroke-width: 1.0;"/><polygon fill="none" points="2807.33,178.422,2801.09,158.172,2818.6,170.112,2807.33,178.422" style="stroke: #A80036; stroke-width: 1.0;"/><path d="M2542,382.165 C2542,414.014 2542,456.121 2542,481.847 " fill="none" style="stroke: #A80036; stroke-width: 1.0;"/><polygon fill="none" points="2535,382.082,2542,362.082,2549,382.082,2535,382.082" style="stroke: #A80036; stroke-width: 1.0;"/><path d="M2561.97,379.922 C2572.71,398.008 2587.56,418.062 2606,431 C2617.3,438.925 2623.49,433.168 2636,439 C2660.04,450.209 2684.47,467.586 2702.4,481.696 " fill="none" style="stroke: #A80036; stroke-width: 1.0;"/><polygon fill="none" points="2555.72,383.078,2552.29,362.167,2568.01,376.378,2555.72,383.078" style="stroke: #A80036; stroke-width: 1.0;"/><path d="M2866.42,141.024 C3003.17,152.922 3267.56,184.636 3324,255 C3372.95,316.017 3374.07,370.901 3324,431 C3283.76,479.3 3106.98,496.18 3001.38,502.0021 " fill="none" style="stroke: #A80036; stroke-width: 1.0;"/><polygon fill="none" points="2865.76,147.993,2846.41,139.346,2866.93,134.042,2865.76,147.993" style="stroke: #A80036; stroke-width: 1.0;"/></g></svg>