<?xml version="1.0" encoding="UTF-8" standalone="yes"?><svg xmlns="http://www.w3.org/2000/svg" xmlns:xlink="http://www.w3.org/1999/xlink" height="783px" style="width:4133px;height:783px;" version="1.1" viewBox="0 0 4133 783" width="4133px"><defs><filter height="300%" id="f1" width="300%" x="-1" y="-1"><feGaussianBlur result="blurOut" stdDeviation="2.0"/><feColorMatrix in="blurOut" result="blurOut2" type="matrix" values="0 0 0 0 0 0 0 0 0 0 0 0 0 0 0 0 0 0 .4 0"/><feOffset dx="4.0" dy="4.0" in="blurOut2" result="blurOut3"/><feBlend in="SourceGraphic" in2="blurOut3" mode="normal"/></filter></defs><g><polygon fill="#FFFFFF" filter="url(#f1)" points="2106,83.5,2185,83.5,2192,105.7969,2346,105.7969,2346,182.5,2106,182.5,2106,83.5" style="stroke: #000000; stroke-width: 2.0;"/><line style="stroke: #000000; stroke-width: 2.0;" x1="2106" x2="2192" y1="105.7969" y2="105.7969"/><text fill="#000000" font-family="sans-serif" font-size="14" font-weight="bold" lengthAdjust="spacingAndGlyphs" textLength="73" x="2110" y="98.4951">Database</text><polygon fill="#FFFFFF" filter="url(#f1)" points="22,58,84,58,91,80.2969,873,80.2969,873,629,22,629,22,58" style="stroke: #000000; stroke-width: 2.0;"/><line style="stroke: #000000; stroke-width: 2.0;" x1="22" x2="91" y1="80.2969" y2="80.2969"/><text fill="#000000" font-family="sans-serif" font-size="14" font-weight="bold" lengthAdjust="spacingAndGlyphs" textLength="56" x="26" y="72.9951">Models</text><polygon fill="#FFFFFF" filter="url(#f1)" points="897,45,991,45,998,67.2969,1945,67.2969,1945,616,897,616,897,45" style="stroke: #000000; stroke-width: 2.0;"/><line style="stroke: #000000; stroke-width: 2.0;" x1="897" x2="998" y1="67.2969" y2="67.2969"/><text fill="#000000" font-family="sans-serif" font-size="14" font-weight="bold" lengthAdjust="spacingAndGlyphs" textLength="88" x="901" y="59.9951">Controllers</text><polygon fill="#FFFFFF" filter="url(#f1)" points="2370,24.5,2424,24.5,2431,46.7969,4120,46.7969,4120,776,2370,776,2370,24.5" style="stroke: #000000; stroke-width: 2.0;"/><line style="stroke: #000000; stroke-width: 2.0;" x1="2370" x2="2431" y1="46.7969" y2="46.7969"/><text fill="#000000" font-family="sans-serif" font-size="14" font-weight="bold" lengthAdjust="spacingAndGlyphs" textLength="48" x="2374" y="39.4951">Views</text><polygon fill="#FFFFFF" filter="url(#f1)" points="2464,653,2506,653,2513,675.2969,2558,675.2969,2558,752,2464,752,2464,653" style="stroke: #000000; stroke-width: 2.0;"/><line style="stroke: #000000; stroke-width: 2.0;" x1="2464" x2="2513" y1="675.2969" y2="675.2969"/><text fill="#000000" font-family="sans-serif" font-size="14" font-weight="bold" lengthAdjust="spacingAndGlyphs" textLength="36" x="2468" y="667.9951">user</text><polygon fill="#FFFFFF" filter="url(#f1)" points="2925,485,2981,485,2988,507.2969,4083,507.2969,4083,584,2925,584,2925,485" style="stroke: #000000; stroke-width: 2.0;"/><line style="stroke: #000000; stroke-width: 2.0;" x1="2925" x2="2988" y1="507.2969" y2="507.2969"/><text fill="#000000" font-family="sans-serif" font-size="14" font-weight="bold" lengthAdjust="spacingAndGlyphs" textLength="50" x="2929" y="499.9951">report</text><polygon fill="#FFFFFF" filter="url(#f1)" points="2582,653,2663,653,2670,675.2969,3150,675.2969,3150,752,2582,752,2582,653" style="stroke: #000000; stroke-width: 2.0;"/><line style="stroke: #000000; stroke-width: 2.0;" x1="2582" x2="2670" y1="675.2969" y2="675.2969"/><text fill="#000000" font-family="sans-serif" font-size="14" font-weight="bold" lengthAdjust="spacingAndGlyphs" textLength="75" x="2586" y="667.9951">inventory</text><polygon fill="#FFFFFF" filter="url(#f1)" points="2747,75.5,2796,75.5,2803,97.7969,2880,97.7969,2880,190.5,2747,190.5,2747,75.5" style="stroke: #000000; stroke-width: 2.0;"/><line style="stroke: #000000; stroke-width: 2.0;" x1="2747" x2="2803" y1="97.7969" y2="97.7969"/><text fill="#000000" font-family="sans-serif" font-size="14" font-weight="bold" lengthAdjust="spacingAndGlyphs" textLength="43" x="2751" y="90.4951">index</text><polygon fill="#FFFFFF" filter="url(#f1)" points="2394,281,2438,281,2445,303.2969,2901,303.2969,2901,584,2394,584,2394,281" style="stroke: #000000; stroke-width: 2.0;"/><line style="stroke: #000000; stroke-width: 2.0;" x1="2394" x2="2445" y1="303.2969" y2="303.2969"/><text fill="#000000" font-family="sans-serif" font-size="14" font-weight="bold" lengthAdjust="spacingAndGlyphs" textLength="38" x="2398" y="295.9951">base</text><rect fill="#FEFECE" filter="url(#f1)" height="48" style="stroke: #A80036; stroke-width: 1.5;" width="79" x="2250.5" y="118.5"/><ellipse cx="2265.5" cy="134.5" fill="#ADD1B2" rx="11" ry="11" style="stroke: #A80036; stroke-width: 1.0;"/><path d="M2267.8438,130.1719 L2268.0156,130.25 C2268.2344,129.9375 2268.4375,129.8438 2268.7344,129.8438 C2269.0313,129.8438 2269.3125,129.9844 2269.4688,130.25 C2269.5625,130.4063 2269.5781,130.5313 2269.5781,130.9688 L2269.5781,132.3906 C2269.5781,132.8125 2269.5469,133 2269.4375,133.1563 C2269.2656,133.375 2269,133.5156 2268.7344,133.5156 C2268.5156,133.5156 2268.2813,133.4063 2268.1406,133.2656 C2268,133.1406 2267.9688,133.0156 2267.9063,132.6094 C2267.8125,132.2031 2267.6406,131.9844 2267.1563,131.7031 C2266.6875,131.4531 2266.0781,131.2969 2265.5,131.2969 C2263.7656,131.2969 2262.5156,132.6094 2262.5156,134.3906 L2262.5156,135.4844 C2262.5156,137.1875 2263.8125,138.2813 2265.8594,138.2813 C2266.625,138.2813 2267.3125,138.1563 2267.7344,137.8906 C2267.9219,137.7969 2267.9219,137.7969 2268.375,137.3125 C2268.5625,137.125 2268.7656,137.0469 2268.9844,137.0469 C2269.4531,137.0469 2269.8438,137.4375 2269.8438,137.8906 C2269.8438,138.2813 2269.5156,138.7344 2268.9375,139.1406 C2268.1875,139.6875 2267.0313,139.9844 2265.8125,139.9844 C2262.9219,139.9844 2260.8125,138.0938 2260.8125,135.5156 L2260.8125,134.3906 C2260.8125,131.6719 2262.8125,129.5938 2265.4375,129.5938 C2266.3125,129.5938 2266.9063,129.7344 2267.8438,130.1719 Z "/><text fill="#000000" font-family="sans-serif" font-size="12" lengthAdjust="spacingAndGlyphs" textLength="47" x="2279.5" y="138.6543">SQLite3</text><line style="stroke: #A80036; stroke-width: 1.5;" x1="2251.5" x2="2328.5" y1="150.5" y2="150.5"/><line style="stroke: #A80036; stroke-width: 1.5;" x1="2251.5" x2="2328.5" y1="158.5" y2="158.5"/><rect fill="#FEFECE" filter="url(#f1)" height="48" style="stroke: #A80036; stroke-width: 1.5;" width="93" x="2122.5" y="118.5"/><ellipse cx="2137.5" cy="134.5" fill="#ADD1B2" rx="11" ry="11" style="stroke: #A80036; stroke-width: 1.0;"/><path d="M2139.8438,130.1719 L2140.0156,130.25 C2140.2344,129.9375 2140.4375,129.8438 2140.7344,129.8438 C2141.0313,129.8438 2141.3125,129.9844 2141.4688,130.25 C2141.5625,130.4063 2141.5781,130.5313 2141.5781,130.9688 L2141.5781,132.3906 C2141.5781,132.8125 2141.5469,133 2141.4375,133.1563 C2141.2656,133.375 2141,133.5156 2140.7344,133.5156 C2140.5156,133.5156 2140.2813,133.4063 2140.1406,133.2656 C2140,133.1406 2139.9688,133.0156 2139.9063,132.6094 C2139.8125,132.2031 2139.6406,131.9844 2139.1563,131.7031 C2138.6875,131.4531 2138.0781,131.2969 2137.5,131.2969 C2135.7656,131.2969 2134.5156,132.6094 2134.5156,134.3906 L2134.5156,135.4844 C2134.5156,137.1875 2135.8125,138.2813 2137.8594,138.2813 C2138.625,138.2813 2139.3125,138.1563 2139.7344,137.8906 C2139.9219,137.7969 2139.9219,137.7969 2140.375,137.3125 C2140.5625,137.125 2140.7656,137.0469 2140.9844,137.0469 C2141.4531,137.0469 2141.8438,137.4375 2141.8438,137.8906 C2141.8438,138.2813 2141.5156,138.7344 2140.9375,139.1406 C2140.1875,139.6875 2139.0313,139.9844 2137.8125,139.9844 C2134.9219,139.9844 2132.8125,138.0938 2132.8125,135.5156 L2132.8125,134.3906 C2132.8125,131.6719 2134.8125,129.5938 2137.4375,129.5938 C2138.3125,129.5938 2138.9063,129.7344 2139.8438,130.1719 Z "/><text fill="#000000" font-family="sans-serif" font-size="12" lengthAdjust="spacingAndGlyphs" textLength="61" x="2151.5" y="138.6543">Database</text><line style="stroke: #A80036; stroke-width: 1.5;" x1="2123.5" x2="2214.5" y1="150.5" y2="150.5"/><line style="stroke: #A80036; stroke-width: 1.5;" x1="2123.5" x2="2214.5" y1="158.5" y2="158.5"/><rect fill="#FEFECE" filter="url(#f1)" height="150.4375" style="stroke: #A80036; stroke-width: 1.5;" width="144" x="38" y="265"/><ellipse cx="55.7" cy="281" fill="#ADD1B2" rx="11" ry="11" style="stroke: #A80036; stroke-width: 1.0;"/><path d="M58.0438,276.6719 L58.2156,276.75 C58.4344,276.4375 58.6375,276.3438 58.9344,276.3438 C59.2313,276.3438 59.5125,276.4844 59.6688,276.75 C59.7625,276.9063 59.7781,277.0313 59.7781,277.4688 L59.7781,278.8906 C59.7781,279.3125 59.7469,279.5 59.6375,279.6563 C59.4656,279.875 59.2,280.0156 58.9344,280.0156 C58.7156,280.0156 58.4813,279.9063 58.3406,279.7656 C58.2,279.6406 58.1688,279.5156 58.1063,279.1094 C58.0125,278.7031 57.8406,278.4844 57.3563,278.2031 C56.8875,277.9531 56.2781,277.7969 55.7,277.7969 C53.9656,277.7969 52.7156,279.1094 52.7156,280.8906 L52.7156,281.9844 C52.7156,283.6875 54.0125,284.7813 56.0594,284.7813 C56.825,284.7813 57.5125,284.6563 57.9344,284.3906 C58.1219,284.2969 58.1219,284.2969 58.575,283.8125 C58.7625,283.625 58.9656,283.5469 59.1844,283.5469 C59.6531,283.5469 60.0438,283.9375 60.0438,284.3906 C60.0438,284.7813 59.7156,285.2344 59.1375,285.6406 C58.3875,286.1875 57.2313,286.4844 56.0125,286.4844 C53.1219,286.4844 51.0125,284.5938 51.0125,282.0156 L51.0125,280.8906 C51.0125,278.1719 53.0125,276.0938 55.6375,276.0938 C56.5125,276.0938 57.1063,276.2344 58.0438,276.6719 Z "/><text fill="#000000" font-family="sans-serif" font-size="12" lengthAdjust="spacingAndGlyphs" textLength="106" x="70.3" y="285.1543">ProductInventory</text><line style="stroke: #A80036; stroke-width: 1.5;" x1="39" x2="181" y1="297" y2="297"/><line style="stroke: #A80036; stroke-width: 1.5;" x1="39" x2="181" y1="305" y2="305"/><text fill="#000000" font-family="sans-serif" font-size="11" lengthAdjust="spacingAndGlyphs" textLength="79" x="44" y="319.2104">str getName()</text><text fill="#000000" font-family="sans-serif" font-size="11" lengthAdjust="spacingAndGlyphs" textLength="102" x="44" y="332.0151">void setName(str)</text><text fill="#000000" font-family="sans-serif" font-size="11" lengthAdjust="spacingAndGlyphs" textLength="109" x="44" y="344.8198">float getCostPrice()</text><text fill="#000000" font-family="sans-serif" font-size="11" lengthAdjust="spacingAndGlyphs" textLength="132" x="44" y="357.6245">void setCostPrice(float)</text><text fill="#000000" font-family="sans-serif" font-size="11" lengthAdjust="spacingAndGlyphs" textLength="108" x="44" y="370.4292">float getSalePrice()</text><text fill="#000000" font-family="sans-serif" font-size="11" lengthAdjust="spacingAndGlyphs" textLength="131" x="44" y="383.2339">void setSalePrice(flaot)</text><text fill="#000000" font-family="sans-serif" font-size="11" lengthAdjust="spacingAndGlyphs" textLength="104" x="44" y="396.0386">int getStockLevel()</text><text fill="#000000" font-family="sans-serif" font-size="11" lengthAdjust="spacingAndGlyphs" textLength="127" x="44" y="408.8433">void setStockLevel(int)</text><rect fill="#FEFECE" filter="url(#f1)" height="48" style="stroke: #A80036; stroke-width: 1.5;" width="165" x="72.5" y="520"/><ellipse cx="87.5" cy="536" fill="#ADD1B2" rx="11" ry="11" style="stroke: #A80036; stroke-width: 1.0;"/><path d="M89.8438,531.6719 L90.0156,531.75 C90.2344,531.4375 90.4375,531.3438 90.7344,531.3438 C91.0313,531.3438 91.3125,531.4844 91.4688,531.75 C91.5625,531.9063 91.5781,532.0313 91.5781,532.4688 L91.5781,533.8906 C91.5781,534.3125 91.5469,534.5 91.4375,534.6563 C91.2656,534.875 91,535.0156 90.7344,535.0156 C90.5156,535.0156 90.2813,534.9063 90.1406,534.7656 C90,534.6406 89.9688,534.5156 89.9063,534.1094 C89.8125,533.7031 89.6406,533.4844 89.1563,533.2031 C88.6875,532.9531 88.0781,532.7969 87.5,532.7969 C85.7656,532.7969 84.5156,534.1094 84.5156,535.8906 L84.5156,536.9844 C84.5156,538.6875 85.8125,539.7813 87.8594,539.7813 C88.625,539.7813 89.3125,539.6563 89.7344,539.3906 C89.9219,539.2969 89.9219,539.2969 90.375,538.8125 C90.5625,538.625 90.7656,538.5469 90.9844,538.5469 C91.4531,538.5469 91.8438,538.9375 91.8438,539.3906 C91.8438,539.7813 91.5156,540.2344 90.9375,540.6406 C90.1875,541.1875 89.0313,541.4844 87.8125,541.4844 C84.9219,541.4844 82.8125,539.5938 82.8125,537.0156 L82.8125,535.8906 C82.8125,533.1719 84.8125,531.0938 87.4375,531.0938 C88.3125,531.0938 88.9063,531.2344 89.8438,531.6719 Z "/><text fill="#000000" font-family="sans-serif" font-size="12" lengthAdjust="spacingAndGlyphs" textLength="133" x="101.5" y="540.1543">ProductInventoryItem</text><line style="stroke: #A80036; stroke-width: 1.5;" x1="73.5" x2="236.5" y1="552" y2="552"/><line style="stroke: #A80036; stroke-width: 1.5;" x1="73.5" x2="236.5" y1="560" y2="560"/><rect fill="#FEFECE" filter="url(#f1)" height="137.6328" style="stroke: #A80036; stroke-width: 1.5;" width="297" x="272.5" y="475"/><ellipse cx="384.75" cy="491" fill="#ADD1B2" rx="11" ry="11" style="stroke: #A80036; stroke-width: 1.0;"/><path d="M387.0938,486.6719 L387.2656,486.75 C387.4844,486.4375 387.6875,486.3438 387.9844,486.3438 C388.2813,486.3438 388.5625,486.4844 388.7188,486.75 C388.8125,486.9063 388.8281,487.0313 388.8281,487.4688 L388.8281,488.8906 C388.8281,489.3125 388.7969,489.5 388.6875,489.6563 C388.5156,489.875 388.25,490.0156 387.9844,490.0156 C387.7656,490.0156 387.5313,489.9063 387.3906,489.7656 C387.25,489.6406 387.2188,489.5156 387.1563,489.1094 C387.0625,488.7031 386.8906,488.4844 386.4063,488.2031 C385.9375,487.9531 385.3281,487.7969 384.75,487.7969 C383.0156,487.7969 381.7656,489.1094 381.7656,490.8906 L381.7656,491.9844 C381.7656,493.6875 383.0625,494.7813 385.1094,494.7813 C385.875,494.7813 386.5625,494.6563 386.9844,494.3906 C387.1719,494.2969 387.1719,494.2969 387.625,493.8125 C387.8125,493.625 388.0156,493.5469 388.2344,493.5469 C388.7031,493.5469 389.0938,493.9375 389.0938,494.3906 C389.0938,494.7813 388.7656,495.2344 388.1875,495.6406 C387.4375,496.1875 386.2813,496.4844 385.0625,496.4844 C382.1719,496.4844 380.0625,494.5938 380.0625,492.0156 L380.0625,490.8906 C380.0625,488.1719 382.0625,486.0938 384.6875,486.0938 C385.5625,486.0938 386.1563,486.2344 387.0938,486.6719 Z "/><text fill="#000000" font-family="sans-serif" font-size="12" lengthAdjust="spacingAndGlyphs" textLength="64" x="405.25" y="495.1543">ItemModel</text><line style="stroke: #A80036; stroke-width: 1.5;" x1="273.5" x2="568.5" y1="507" y2="507"/><line style="stroke: #A80036; stroke-width: 1.5;" x1="273.5" x2="568.5" y1="515" y2="515"/><text fill="#000000" font-family="sans-serif" font-size="11" lengthAdjust="spacingAndGlyphs" textLength="285" x="278.5" y="529.2104">static ItemModel FromRowArray(table_model, row)</text><text fill="#000000" font-family="sans-serif" font-size="11" lengthAdjust="spacingAndGlyphs" textLength="240" x="278.5" y="542.0151">static ItemModel FromDB(table_model, pk)</text><text fill="#000000" font-family="sans-serif" font-size="11" lengthAdjust="spacingAndGlyphs" textLength="108" x="278.5" y="554.8198">int getPrimaryKey()</text><text fill="#000000" font-family="sans-serif" font-size="11" lengthAdjust="spacingAndGlyphs" textLength="105" x="278.5" y="567.6245">void insertIntoDB()</text><text fill="#000000" font-family="sans-serif" font-size="11" lengthAdjust="spacingAndGlyphs" textLength="115" x="278.5" y="580.4292">void deleteFromDB()</text><text fill="#000000" font-family="sans-serif" font-size="11" lengthAdjust="spacingAndGlyphs" textLength="138" x="278.5" y="593.2339">void pullValuesFromDB()</text><text fill="#000000" font-family="sans-serif" font-size="11" lengthAdjust="spacingAndGlyphs" textLength="131" x="278.5" y="606.0386">void pushValuesToDB()</text><rect fill="#FEFECE" filter="url(#f1)" height="150.4375" style="stroke: #A80036; stroke-width: 1.5;" width="407" x="217.5" y="265"/><ellipse cx="381.25" cy="281" fill="#ADD1B2" rx="11" ry="11" style="stroke: #A80036; stroke-width: 1.0;"/><path d="M383.5938,276.6719 L383.7656,276.75 C383.9844,276.4375 384.1875,276.3438 384.4844,276.3438 C384.7813,276.3438 385.0625,276.4844 385.2188,276.75 C385.3125,276.9063 385.3281,277.0313 385.3281,277.4688 L385.3281,278.8906 C385.3281,279.3125 385.2969,279.5 385.1875,279.6563 C385.0156,279.875 384.75,280.0156 384.4844,280.0156 C384.2656,280.0156 384.0313,279.9063 383.8906,279.7656 C383.75,279.6406 383.7188,279.5156 383.6563,279.1094 C383.5625,278.7031 383.3906,278.4844 382.9063,278.2031 C382.4375,277.9531 381.8281,277.7969 381.25,277.7969 C379.5156,277.7969 378.2656,279.1094 378.2656,280.8906 L378.2656,281.9844 C378.2656,283.6875 379.5625,284.7813 381.6094,284.7813 C382.375,284.7813 383.0625,284.6563 383.4844,284.3906 C383.6719,284.2969 383.6719,284.2969 384.125,283.8125 C384.3125,283.625 384.5156,283.5469 384.7344,283.5469 C385.2031,283.5469 385.5938,283.9375 385.5938,284.3906 C385.5938,284.7813 385.2656,285.2344 384.6875,285.6406 C383.9375,286.1875 382.7813,286.4844 381.5625,286.4844 C378.6719,286.4844 376.5625,284.5938 376.5625,282.0156 L376.5625,280.8906 C376.5625,278.1719 378.5625,276.0938 381.1875,276.0938 C382.0625,276.0938 382.6563,276.2344 383.5938,276.6719 Z "/><text fill="#000000" font-family="sans-serif" font-size="12" lengthAdjust="spacingAndGlyphs" textLength="71" x="401.75" y="285.1543">TableModel</text><line style="stroke: #A80036; stroke-width: 1.5;" x1="218.5" x2="623.5" y1="297" y2="297"/><line style="stroke: #A80036; stroke-width: 1.5;" x1="218.5" x2="623.5" y1="305" y2="305"/><text fill="#000000" font-family="sans-serif" font-size="11" lengthAdjust="spacingAndGlyphs" textLength="179" x="223.5" y="319.2104">ItemModel getItemByKey(int PK)</text><text fill="#000000" font-family="sans-serif" font-size="11" lengthAdjust="spacingAndGlyphs" textLength="360" x="223.5" y="332.0151">getItemsByLessThan(string column_name, int less_than_value)</text><text fill="#000000" font-family="sans-serif" font-size="11" lengthAdjust="spacingAndGlyphs" textLength="395" x="223.5" y="344.8198">getItemsByGreaterThan(string column_name, int greater_than_value)</text><text fill="#000000" font-family="sans-serif" font-size="11" lengthAdjust="spacingAndGlyphs" textLength="173" x="223.5" y="357.6245">getMostSold(string start_date)</text><text fill="#000000" font-family="sans-serif" font-size="11" lengthAdjust="spacingAndGlyphs" textLength="177" x="223.5" y="370.4292">getLeastSold(string start_date)</text><text fill="#000000" font-family="sans-serif" font-size="11" lengthAdjust="spacingAndGlyphs" textLength="194" x="223.5" y="383.2339">getSalesIncome(string start_date)</text><text fill="#000000" font-family="sans-serif" font-size="11" lengthAdjust="spacingAndGlyphs" textLength="153" x="223.5" y="396.0386">getSales(string start_date)</text><text fill="#000000" font-family="sans-serif" font-size="11" lengthAdjust="spacingAndGlyphs" textLength="177" x="223.5" y="408.8433">getStockSold(string start_date)</text><rect fill="#FEFECE" filter="url(#f1)" height="99.2188" style="stroke: #A80036; stroke-width: 1.5;" width="118" x="605" y="494.5"/><ellipse cx="645.65" cy="510.5" fill="#ADD1B2" rx="11" ry="11" style="stroke: #A80036; stroke-width: 1.0;"/><path d="M647.9938,506.1719 L648.1656,506.25 C648.3844,505.9375 648.5875,505.8438 648.8844,505.8438 C649.1813,505.8438 649.4625,505.9844 649.6188,506.25 C649.7125,506.4063 649.7281,506.5313 649.7281,506.9688 L649.7281,508.3906 C649.7281,508.8125 649.6969,509 649.5875,509.1563 C649.4156,509.375 649.15,509.5156 648.8844,509.5156 C648.6656,509.5156 648.4313,509.4063 648.2906,509.2656 C648.15,509.1406 648.1188,509.0156 648.0563,508.6094 C647.9625,508.2031 647.7906,507.9844 647.3063,507.7031 C646.8375,507.4531 646.2281,507.2969 645.65,507.2969 C643.9156,507.2969 642.6656,508.6094 642.6656,510.3906 L642.6656,511.4844 C642.6656,513.1875 643.9625,514.2813 646.0094,514.2813 C646.775,514.2813 647.4625,514.1563 647.8844,513.8906 C648.0719,513.7969 648.0719,513.7969 648.525,513.3125 C648.7125,513.125 648.9156,513.0469 649.1344,513.0469 C649.6031,513.0469 649.9938,513.4375 649.9938,513.8906 C649.9938,514.2813 649.6656,514.7344 649.0875,515.1406 C648.3375,515.6875 647.1813,515.9844 645.9625,515.9844 C643.0719,515.9844 640.9625,514.0938 640.9625,511.5156 L640.9625,510.3906 C640.9625,507.6719 642.9625,505.5938 645.5875,505.5938 C646.4625,505.5938 647.0563,505.7344 647.9938,506.1719 Z "/><text fill="#000000" font-family="sans-serif" font-size="12" lengthAdjust="spacingAndGlyphs" textLength="29" x="665.35" y="514.6543">User</text><line style="stroke: #A80036; stroke-width: 1.5;" x1="606" x2="722" y1="526.5" y2="526.5"/><text fill="#000000" font-family="sans-serif" font-size="11" lengthAdjust="spacingAndGlyphs" textLength="78" x="611" y="540.7104">str username</text><text fill="#000000" font-family="sans-serif" font-size="11" lengthAdjust="spacingAndGlyphs" textLength="76" x="611" y="553.5151">str password</text><line style="stroke: #A80036; stroke-width: 1.5;" x1="606" x2="722" y1="560.1094" y2="560.1094"/><text fill="#000000" font-family="sans-serif" font-size="11" lengthAdjust="spacingAndGlyphs" textLength="106" x="611" y="574.3198">str getUserName()</text><text fill="#000000" font-family="sans-serif" font-size="11" lengthAdjust="spacingAndGlyphs" textLength="102" x="611" y="587.1245">str getPassword()</text><rect fill="#FEFECE" filter="url(#f1)" height="86.4141" style="stroke: #A80036; stroke-width: 1.5;" width="197" x="659.5" y="297"/><ellipse cx="735.75" cy="313" fill="#ADD1B2" rx="11" ry="11" style="stroke: #A80036; stroke-width: 1.0;"/><path d="M738.0938,308.6719 L738.2656,308.75 C738.4844,308.4375 738.6875,308.3438 738.9844,308.3438 C739.2813,308.3438 739.5625,308.4844 739.7188,308.75 C739.8125,308.9063 739.8281,309.0313 739.8281,309.4688 L739.8281,310.8906 C739.8281,311.3125 739.7969,311.5 739.6875,311.6563 C739.5156,311.875 739.25,312.0156 738.9844,312.0156 C738.7656,312.0156 738.5313,311.9063 738.3906,311.7656 C738.25,311.6406 738.2188,311.5156 738.1563,311.1094 C738.0625,310.7031 737.8906,310.4844 737.4063,310.2031 C736.9375,309.9531 736.3281,309.7969 735.75,309.7969 C734.0156,309.7969 732.7656,311.1094 732.7656,312.8906 L732.7656,313.9844 C732.7656,315.6875 734.0625,316.7813 736.1094,316.7813 C736.875,316.7813 737.5625,316.6563 737.9844,316.3906 C738.1719,316.2969 738.1719,316.2969 738.625,315.8125 C738.8125,315.625 739.0156,315.5469 739.2344,315.5469 C739.7031,315.5469 740.0938,315.9375 740.0938,316.3906 C740.0938,316.7813 739.7656,317.2344 739.1875,317.6406 C738.4375,318.1875 737.2813,318.4844 736.0625,318.4844 C733.1719,318.4844 731.0625,316.5938 731.0625,314.0156 L731.0625,312.8906 C731.0625,310.1719 733.0625,308.0938 735.6875,308.0938 C736.5625,308.0938 737.1563,308.2344 738.0938,308.6719 Z "/><text fill="#000000" font-family="sans-serif" font-size="12" lengthAdjust="spacingAndGlyphs" textLength="36" x="756.25" y="317.1543">Users</text><line style="stroke: #A80036; stroke-width: 1.5;" x1="660.5" x2="855.5" y1="329" y2="329"/><line style="stroke: #A80036; stroke-width: 1.5;" x1="660.5" x2="855.5" y1="337" y2="337"/><text fill="#000000" font-family="sans-serif" font-size="11" lengthAdjust="spacingAndGlyphs" textLength="185" x="665.5" y="351.2104">bool login(username, password)</text><text fill="#000000" font-family="sans-serif" font-size="11" lengthAdjust="spacingAndGlyphs" textLength="97" x="665.5" y="364.0151">bool isLoggedIn()</text><text fill="#000000" font-family="sans-serif" font-size="11" lengthAdjust="spacingAndGlyphs" textLength="70" x="665.5" y="376.8198">void logout()</text><rect fill="#FEFECE" filter="url(#f1)" height="99.2188" style="stroke: #A80036; stroke-width: 1.5;" width="148" x="347" y="93"/><ellipse cx="371.9" cy="109" fill="#ADD1B2" rx="11" ry="11" style="stroke: #A80036; stroke-width: 1.0;"/><path d="M374.2438,104.6719 L374.4156,104.75 C374.6344,104.4375 374.8375,104.3438 375.1344,104.3438 C375.4313,104.3438 375.7125,104.4844 375.8688,104.75 C375.9625,104.9063 375.9781,105.0313 375.9781,105.4688 L375.9781,106.8906 C375.9781,107.3125 375.9469,107.5 375.8375,107.6563 C375.6656,107.875 375.4,108.0156 375.1344,108.0156 C374.9156,108.0156 374.6813,107.9063 374.5406,107.7656 C374.4,107.6406 374.3688,107.5156 374.3063,107.1094 C374.2125,106.7031 374.0406,106.4844 373.5563,106.2031 C373.0875,105.9531 372.4781,105.7969 371.9,105.7969 C370.1656,105.7969 368.9156,107.1094 368.9156,108.8906 L368.9156,109.9844 C368.9156,111.6875 370.2125,112.7813 372.2594,112.7813 C373.025,112.7813 373.7125,112.6563 374.1344,112.3906 C374.3219,112.2969 374.3219,112.2969 374.775,111.8125 C374.9625,111.625 375.1656,111.5469 375.3844,111.5469 C375.8531,111.5469 376.2438,111.9375 376.2438,112.3906 C376.2438,112.7813 375.9156,113.2344 375.3375,113.6406 C374.5875,114.1875 373.4313,114.4844 372.2125,114.4844 C369.3219,114.4844 367.2125,112.5938 367.2125,110.0156 L367.2125,108.8906 C367.2125,106.1719 369.2125,104.0938 371.8375,104.0938 C372.7125,104.0938 373.3063,104.2344 374.2438,104.6719 Z "/><text fill="#000000" font-family="sans-serif" font-size="12" lengthAdjust="spacingAndGlyphs" textLength="94" x="388.1" y="113.1543">PurchasedItem</text><line style="stroke: #A80036; stroke-width: 1.5;" x1="348" x2="494" y1="125" y2="125"/><line style="stroke: #A80036; stroke-width: 1.5;" x1="348" x2="494" y1="133" y2="133"/><text fill="#000000" font-family="sans-serif" font-size="11" lengthAdjust="spacingAndGlyphs" textLength="110" x="353" y="147.2104">DateTime getDate()</text><text fill="#000000" font-family="sans-serif" font-size="11" lengthAdjust="spacingAndGlyphs" textLength="133" x="353" y="160.0151">void setDate(DateTime)</text><text fill="#000000" font-family="sans-serif" font-size="11" lengthAdjust="spacingAndGlyphs" textLength="113" x="353" y="172.8198">int getID_inventory()</text><text fill="#000000" font-family="sans-serif" font-size="11" lengthAdjust="spacingAndGlyphs" textLength="136" x="353" y="185.6245">void setID_inventory(int)</text><rect fill="#FEFECE" filter="url(#f1)" height="86.4141" style="stroke: #A80036; stroke-width: 1.5;" width="436" x="1238" y="297"/><ellipse cx="1421.25" cy="313" fill="#ADD1B2" rx="11" ry="11" style="stroke: #A80036; stroke-width: 1.0;"/><path d="M1423.5938,308.6719 L1423.7656,308.75 C1423.9844,308.4375 1424.1875,308.3438 1424.4844,308.3438 C1424.7813,308.3438 1425.0625,308.4844 1425.2188,308.75 C1425.3125,308.9063 1425.3281,309.0313 1425.3281,309.4688 L1425.3281,310.8906 C1425.3281,311.3125 1425.2969,311.5 1425.1875,311.6563 C1425.0156,311.875 1424.75,312.0156 1424.4844,312.0156 C1424.2656,312.0156 1424.0313,311.9063 1423.8906,311.7656 C1423.75,311.6406 1423.7188,311.5156 1423.6563,311.1094 C1423.5625,310.7031 1423.3906,310.4844 1422.9063,310.2031 C1422.4375,309.9531 1421.8281,309.7969 1421.25,309.7969 C1419.5156,309.7969 1418.2656,311.1094 1418.2656,312.8906 L1418.2656,313.9844 C1418.2656,315.6875 1419.5625,316.7813 1421.6094,316.7813 C1422.375,316.7813 1423.0625,316.6563 1423.4844,316.3906 C1423.6719,316.2969 1423.6719,316.2969 1424.125,315.8125 C1424.3125,315.625 1424.5156,315.5469 1424.7344,315.5469 C1425.2031,315.5469 1425.5938,315.9375 1425.5938,316.3906 C1425.5938,316.7813 1425.2656,317.2344 1424.6875,317.6406 C1423.9375,318.1875 1422.7813,318.4844 1421.5625,318.4844 C1418.6719,318.4844 1416.5625,316.5938 1416.5625,314.0156 L1416.5625,312.8906 C1416.5625,310.1719 1418.5625,308.0938 1421.1875,308.0938 C1422.0625,308.0938 1422.6563,308.2344 1423.5938,308.6719 Z "/><text fill="#000000" font-family="sans-serif" font-size="12" lengthAdjust="spacingAndGlyphs" textLength="61" x="1441.75" y="317.1543">Controller</text><line style="stroke: #A80036; stroke-width: 1.5;" x1="1239" x2="1673" y1="329" y2="329"/><text fill="#000000" font-family="sans-serif" font-size="11" lengthAdjust="spacingAndGlyphs" textLength="170" x="1244" y="343.2104">url assigned to that controller</text><line style="stroke: #A80036; stroke-width: 1.0;" x1="1239" x2="1673" y1="349.8047" y2="349.8047"/><polygon fill="#FFFF44" points="1249,356.707,1253,360.707,1249,364.707,1245,360.707" style="stroke: #B38D22; stroke-width: 1.0;"/><text fill="#000000" font-family="sans-serif" font-size="11" lengthAdjust="spacingAndGlyphs" textLength="162" x="1258" y="364.0151">void requireLogin(return_uri)</text><text fill="#000000" font-family="sans-serif" font-size="11" lengthAdjust="spacingAndGlyphs" textLength="410" x="1258" y="376.8198">return_value[View or detail associated with return value] methodName()</text><polygon fill="#FBFB77" filter="url(#f1)" points="913.5,274.5,913.5,405.5625,1202.5,405.5625,1202.5,284.5,1192.5,274.5,913.5,274.5" style="stroke: #A80036; stroke-width: 1.0;"/><polygon fill="#FBFB77" points="913.5,274.5,913.5,405.5625,1202.5,405.5625,1202.5,344,1237.73,340,1202.5,336,1202.5,284.5,1192.5,274.5,913.5,274.5" style="stroke: #A80036; stroke-width: 1.0;"/><line style="stroke: #A80036; stroke-width: 1.0;" x1="1192.5" x2="1192.5" y1="274.5" y2="284.5"/><line style="stroke: #A80036; stroke-width: 1.0;" x1="1202.5" x2="1192.5" y1="284.5" y2="284.5"/><text fill="#000000" font-family="sans-serif" font-size="13" lengthAdjust="spacingAndGlyphs" textLength="268" x="919.5" y="291.5669">methodName also corresponds to the url,</text><text fill="#000000" font-family="sans-serif" font-size="13" lengthAdjust="spacingAndGlyphs" textLength="137" x="919.5" y="306.6997">so /controller/method</text><text fill="#000000" font-family="sans-serif" font-size="13" lengthAdjust="spacingAndGlyphs" textLength="0" x="923.5" y="321.8325"/><text fill="#000000" font-family="sans-serif" font-size="13" lengthAdjust="spacingAndGlyphs" textLength="146" x="919.5" y="336.9653">return values could be:</text><text fill="#000000" font-family="sans-serif" font-size="13" lengthAdjust="spacingAndGlyphs" textLength="38" x="923.5" y="352.0981">- html</text><text fill="#000000" font-family="sans-serif" font-size="13" lengthAdjust="spacingAndGlyphs" textLength="30" x="923.5" y="367.231">- css</text><text fill="#000000" font-family="sans-serif" font-size="13" lengthAdjust="spacingAndGlyphs" textLength="70" x="923.5" y="382.3638">- javascript</text><text fill="#000000" font-family="sans-serif" font-size="13" lengthAdjust="spacingAndGlyphs" textLength="77" x="923.5" y="397.4966">- redirection</text><rect fill="#FEFECE" filter="url(#f1)" height="86.4141" style="stroke: #A80036; stroke-width: 1.5;" width="310" x="1055" y="501"/><ellipse cx="1158.75" cy="517" fill="#ADD1B2" rx="11" ry="11" style="stroke: #A80036; stroke-width: 1.0;"/><path d="M1161.0938,512.6719 L1161.2656,512.75 C1161.4844,512.4375 1161.6875,512.3438 1161.9844,512.3438 C1162.2813,512.3438 1162.5625,512.4844 1162.7188,512.75 C1162.8125,512.9063 1162.8281,513.0313 1162.8281,513.4688 L1162.8281,514.8906 C1162.8281,515.3125 1162.7969,515.5 1162.6875,515.6563 C1162.5156,515.875 1162.25,516.0156 1161.9844,516.0156 C1161.7656,516.0156 1161.5313,515.9063 1161.3906,515.7656 C1161.25,515.6406 1161.2188,515.5156 1161.1563,515.1094 C1161.0625,514.7031 1160.8906,514.4844 1160.4063,514.2031 C1159.9375,513.9531 1159.3281,513.7969 1158.75,513.7969 C1157.0156,513.7969 1155.7656,515.1094 1155.7656,516.8906 L1155.7656,517.9844 C1155.7656,519.6875 1157.0625,520.7813 1159.1094,520.7813 C1159.875,520.7813 1160.5625,520.6563 1160.9844,520.3906 C1161.1719,520.2969 1161.1719,520.2969 1161.625,519.8125 C1161.8125,519.625 1162.0156,519.5469 1162.2344,519.5469 C1162.7031,519.5469 1163.0938,519.9375 1163.0938,520.3906 C1163.0938,520.7813 1162.7656,521.2344 1162.1875,521.6406 C1161.4375,522.1875 1160.2813,522.4844 1159.0625,522.4844 C1156.1719,522.4844 1154.0625,520.5938 1154.0625,518.0156 L1154.0625,516.8906 C1154.0625,514.1719 1156.0625,512.0938 1158.6875,512.0938 C1159.5625,512.0938 1160.1563,512.2344 1161.0938,512.6719 Z "/><text fill="#000000" font-family="sans-serif" font-size="12" lengthAdjust="spacingAndGlyphs" textLength="94" x="1179.25" y="521.1543">LoginController</text><line style="stroke: #A80036; stroke-width: 1.5;" x1="1056" x2="1364" y1="533" y2="533"/><text fill="#000000" font-family="sans-serif" font-size="11" lengthAdjust="spacingAndGlyphs" textLength="67" x="1061" y="547.2104">url = /login/</text><line style="stroke: #A80036; stroke-width: 1.0;" x1="1056" x2="1364" y1="553.8047" y2="553.8047"/><text fill="#000000" font-family="sans-serif" font-size="11" lengthAdjust="spacingAndGlyphs" textLength="298" x="1061" y="568.0151">html[Login or redirection on POST from form] login()</text><text fill="#000000" font-family="sans-serif" font-size="11" lengthAdjust="spacingAndGlyphs" textLength="108" x="1061" y="580.8198">redirection logout()</text><rect fill="#FEFECE" filter="url(#f1)" height="112.0234" style="stroke: #A80036; stroke-width: 1.5;" width="390" x="1400" y="488"/><ellipse cx="1531.75" cy="504" fill="#ADD1B2" rx="11" ry="11" style="stroke: #A80036; stroke-width: 1.0;"/><path d="M1534.0938,499.6719 L1534.2656,499.75 C1534.4844,499.4375 1534.6875,499.3438 1534.9844,499.3438 C1535.2813,499.3438 1535.5625,499.4844 1535.7188,499.75 C1535.8125,499.9063 1535.8281,500.0313 1535.8281,500.4688 L1535.8281,501.8906 C1535.8281,502.3125 1535.7969,502.5 1535.6875,502.6563 C1535.5156,502.875 1535.25,503.0156 1534.9844,503.0156 C1534.7656,503.0156 1534.5313,502.9063 1534.3906,502.7656 C1534.25,502.6406 1534.2188,502.5156 1534.1563,502.1094 C1534.0625,501.7031 1533.8906,501.4844 1533.4063,501.2031 C1532.9375,500.9531 1532.3281,500.7969 1531.75,500.7969 C1530.0156,500.7969 1528.7656,502.1094 1528.7656,503.8906 L1528.7656,504.9844 C1528.7656,506.6875 1530.0625,507.7813 1532.1094,507.7813 C1532.875,507.7813 1533.5625,507.6563 1533.9844,507.3906 C1534.1719,507.2969 1534.1719,507.2969 1534.625,506.8125 C1534.8125,506.625 1535.0156,506.5469 1535.2344,506.5469 C1535.7031,506.5469 1536.0938,506.9375 1536.0938,507.3906 C1536.0938,507.7813 1535.7656,508.2344 1535.1875,508.6406 C1534.4375,509.1875 1533.2813,509.4844 1532.0625,509.4844 C1529.1719,509.4844 1527.0625,507.5938 1527.0625,505.0156 L1527.0625,503.8906 C1527.0625,501.1719 1529.0625,499.0938 1531.6875,499.0938 C1532.5625,499.0938 1533.1563,499.2344 1534.0938,499.6719 Z "/><text fill="#000000" font-family="sans-serif" font-size="12" lengthAdjust="spacingAndGlyphs" textLength="118" x="1552.25" y="508.1543">InventoryController</text><line style="stroke: #A80036; stroke-width: 1.5;" x1="1401" x2="1789" y1="520" y2="520"/><text fill="#000000" font-family="sans-serif" font-size="11" lengthAdjust="spacingAndGlyphs" textLength="92" x="1406" y="534.2104">url = /inventory/</text><line style="stroke: #A80036; stroke-width: 1.0;" x1="1401" x2="1789" y1="540.8047" y2="540.8047"/><text fill="#000000" font-family="sans-serif" font-size="11" lengthAdjust="spacingAndGlyphs" textLength="378" x="1406" y="555.0151">html[NewInventoryItem] or redirect[on POST from form] NewItem()</text><text fill="#000000" font-family="sans-serif" font-size="11" lengthAdjust="spacingAndGlyphs" textLength="375" x="1406" y="567.8198">html[NewInventoryItem] or redirect[on POST from form] EditItem()</text><text fill="#000000" font-family="sans-serif" font-size="11" lengthAdjust="spacingAndGlyphs" textLength="231" x="1406" y="580.6245">html[InventoryItemTable] ViewInventory()</text><text fill="#000000" font-family="sans-serif" font-size="11" lengthAdjust="spacingAndGlyphs" textLength="117" x="1406" y="593.4292">redirect DeleteItem()</text><rect fill="#FEFECE" filter="url(#f1)" height="73.6094" style="stroke: #A80036; stroke-width: 1.5;" width="219" x="1709.5" y="303"/><ellipse cx="1763.25" cy="319" fill="#ADD1B2" rx="11" ry="11" style="stroke: #A80036; stroke-width: 1.0;"/><path d="M1765.5938,314.6719 L1765.7656,314.75 C1765.9844,314.4375 1766.1875,314.3438 1766.4844,314.3438 C1766.7813,314.3438 1767.0625,314.4844 1767.2188,314.75 C1767.3125,314.9063 1767.3281,315.0313 1767.3281,315.4688 L1767.3281,316.8906 C1767.3281,317.3125 1767.2969,317.5 1767.1875,317.6563 C1767.0156,317.875 1766.75,318.0156 1766.4844,318.0156 C1766.2656,318.0156 1766.0313,317.9063 1765.8906,317.7656 C1765.75,317.6406 1765.7188,317.5156 1765.6563,317.1094 C1765.5625,316.7031 1765.3906,316.4844 1764.9063,316.2031 C1764.4375,315.9531 1763.8281,315.7969 1763.25,315.7969 C1761.5156,315.7969 1760.2656,317.1094 1760.2656,318.8906 L1760.2656,319.9844 C1760.2656,321.6875 1761.5625,322.7813 1763.6094,322.7813 C1764.375,322.7813 1765.0625,322.6563 1765.4844,322.3906 C1765.6719,322.2969 1765.6719,322.2969 1766.125,321.8125 C1766.3125,321.625 1766.5156,321.5469 1766.7344,321.5469 C1767.2031,321.5469 1767.5938,321.9375 1767.5938,322.3906 C1767.5938,322.7813 1767.2656,323.2344 1766.6875,323.6406 C1765.9375,324.1875 1764.7813,324.4844 1763.5625,324.4844 C1760.6719,324.4844 1758.5625,322.5938 1758.5625,320.0156 L1758.5625,318.8906 C1758.5625,316.1719 1760.5625,314.0938 1763.1875,314.0938 C1764.0625,314.0938 1764.6563,314.2344 1765.5938,314.6719 Z "/><text fill="#000000" font-family="sans-serif" font-size="12" lengthAdjust="spacingAndGlyphs" textLength="103" x="1783.75" y="323.1543">ReportController</text><line style="stroke: #A80036; stroke-width: 1.5;" x1="1710.5" x2="1927.5" y1="335" y2="335"/><text fill="#000000" font-family="sans-serif" font-size="11" lengthAdjust="spacingAndGlyphs" textLength="75" x="1715.5" y="349.2104">url = /report/</text><line style="stroke: #A80036; stroke-width: 1.0;" x1="1710.5" x2="1927.5" y1="355.8047" y2="355.8047"/><text fill="#000000" font-family="sans-serif" font-size="11" lengthAdjust="spacingAndGlyphs" textLength="207" x="1715.5" y="370.0151">html[StockReport] ViewStockReport()</text><rect fill="#FEFECE" filter="url(#f1)" height="124.8281" style="stroke: #A80036; stroke-width: 1.5;" width="277" x="1317.5" y="80"/><ellipse cx="1383.25" cy="96" fill="#ADD1B2" rx="11" ry="11" style="stroke: #A80036; stroke-width: 1.0;"/><path d="M1385.5938,91.6719 L1385.7656,91.75 C1385.9844,91.4375 1386.1875,91.3438 1386.4844,91.3438 C1386.7813,91.3438 1387.0625,91.4844 1387.2188,91.75 C1387.3125,91.9063 1387.3281,92.0313 1387.3281,92.4688 L1387.3281,93.8906 C1387.3281,94.3125 1387.2969,94.5 1387.1875,94.6563 C1387.0156,94.875 1386.75,95.0156 1386.4844,95.0156 C1386.2656,95.0156 1386.0313,94.9063 1385.8906,94.7656 C1385.75,94.6406 1385.7188,94.5156 1385.6563,94.1094 C1385.5625,93.7031 1385.3906,93.4844 1384.9063,93.2031 C1384.4375,92.9531 1383.8281,92.7969 1383.25,92.7969 C1381.5156,92.7969 1380.2656,94.1094 1380.2656,95.8906 L1380.2656,96.9844 C1380.2656,98.6875 1381.5625,99.7813 1383.6094,99.7813 C1384.375,99.7813 1385.0625,99.6563 1385.4844,99.3906 C1385.6719,99.2969 1385.6719,99.2969 1386.125,98.8125 C1386.3125,98.625 1386.5156,98.5469 1386.7344,98.5469 C1387.2031,98.5469 1387.5938,98.9375 1387.5938,99.3906 C1387.5938,99.7813 1387.2656,100.2344 1386.6875,100.6406 C1385.9375,101.1875 1384.7813,101.4844 1383.5625,101.4844 C1380.6719,101.4844 1378.5625,99.5938 1378.5625,97.0156 L1378.5625,95.8906 C1378.5625,93.1719 1380.5625,91.0938 1383.1875,91.0938 C1384.0625,91.0938 1384.6563,91.2344 1385.5938,91.6719 Z "/><text fill="#000000" font-family="sans-serif" font-size="12" lengthAdjust="spacingAndGlyphs" textLength="137" x="1403.75" y="100.1543">SalesReportController</text><line style="stroke: #A80036; stroke-width: 1.5;" x1="1318.5" x2="1593.5" y1="112" y2="112"/><text fill="#000000" font-family="sans-serif" font-size="11" lengthAdjust="spacingAndGlyphs" textLength="106" x="1323.5" y="126.2104">url = /salesreport/</text><line style="stroke: #A80036; stroke-width: 1.5;" x1="1318.5" x2="1593.5" y1="132.8047" y2="132.8047"/><text fill="#000000" font-family="sans-serif" font-size="11" lengthAdjust="spacingAndGlyphs" textLength="265" x="1323.5" y="147.0151">html[SalesIncomeReport] SalesIncomeReport()</text><text fill="#000000" font-family="sans-serif" font-size="11" lengthAdjust="spacingAndGlyphs" textLength="183" x="1323.5" y="159.8198">html[SalesReport] SalesReport()</text><text fill="#000000" font-family="sans-serif" font-size="11" lengthAdjust="spacingAndGlyphs" textLength="245" x="1323.5" y="172.6245">html[SalesStockReport] SalesStockReport()</text><text fill="#000000" font-family="sans-serif" font-size="11" lengthAdjust="spacingAndGlyphs" textLength="223" x="1323.5" y="185.4292">html[MostSoldReport] MostSoldReport()</text><text fill="#000000" font-family="sans-serif" font-size="11" lengthAdjust="spacingAndGlyphs" textLength="231" x="1323.5" y="198.2339">html[LeastSoldReport] LeastSoldReport()</text><rect fill="#FEFECE" filter="url(#f1)" height="48" style="stroke: #A80036; stroke-width: 1.5;" width="62" x="2480" y="688"/><ellipse cx="2495" cy="704" fill="#ADD1B2" rx="11" ry="11" style="stroke: #A80036; stroke-width: 1.0;"/><path d="M2497.3438,699.6719 L2497.5156,699.75 C2497.7344,699.4375 2497.9375,699.3438 2498.2344,699.3438 C2498.5313,699.3438 2498.8125,699.4844 2498.9688,699.75 C2499.0625,699.9063 2499.0781,700.0313 2499.0781,700.4688 L2499.0781,701.8906 C2499.0781,702.3125 2499.0469,702.5 2498.9375,702.6563 C2498.7656,702.875 2498.5,703.0156 2498.2344,703.0156 C2498.0156,703.0156 2497.7813,702.9063 2497.6406,702.7656 C2497.5,702.6406 2497.4688,702.5156 2497.4063,702.1094 C2497.3125,701.7031 2497.1406,701.4844 2496.6563,701.2031 C2496.1875,700.9531 2495.5781,700.7969 2495,700.7969 C2493.2656,700.7969 2492.0156,702.1094 2492.0156,703.8906 L2492.0156,704.9844 C2492.0156,706.6875 2493.3125,707.7813 2495.3594,707.7813 C2496.125,707.7813 2496.8125,707.6563 2497.2344,707.3906 C2497.4219,707.2969 2497.4219,707.2969 2497.875,706.8125 C2498.0625,706.625 2498.2656,706.5469 2498.4844,706.5469 C2498.9531,706.5469 2499.3438,706.9375 2499.3438,707.3906 C2499.3438,707.7813 2499.0156,708.2344 2498.4375,708.6406 C2497.6875,709.1875 2496.5313,709.4844 2495.3125,709.4844 C2492.4219,709.4844 2490.3125,707.5938 2490.3125,705.0156 L2490.3125,703.8906 C2490.3125,701.1719 2492.3125,699.0938 2494.9375,699.0938 C2495.8125,699.0938 2496.4063,699.2344 2497.3438,699.6719 Z "/><text fill="#000000" font-family="sans-serif" font-size="12" lengthAdjust="spacingAndGlyphs" textLength="30" x="2509" y="708.1543">login</text><line style="stroke: #A80036; stroke-width: 1.5;" x1="2481" x2="2541" y1="720" y2="720"/><line style="stroke: #A80036; stroke-width: 1.5;" x1="2481" x2="2541" y1="728" y2="728"/><rect fill="#FEFECE" filter="url(#f1)" height="48" style="stroke: #A80036; stroke-width: 1.5;" width="142" x="3925" y="520"/><ellipse cx="3940" cy="536" fill="#ADD1B2" rx="11" ry="11" style="stroke: #A80036; stroke-width: 1.0;"/><path d="M3942.3438,531.6719 L3942.5156,531.75 C3942.7344,531.4375 3942.9375,531.3438 3943.2344,531.3438 C3943.5313,531.3438 3943.8125,531.4844 3943.9688,531.75 C3944.0625,531.9063 3944.0781,532.0313 3944.0781,532.4688 L3944.0781,533.8906 C3944.0781,534.3125 3944.0469,534.5 3943.9375,534.6563 C3943.7656,534.875 3943.5,535.0156 3943.2344,535.0156 C3943.0156,535.0156 3942.7813,534.9063 3942.6406,534.7656 C3942.5,534.6406 3942.4688,534.5156 3942.4063,534.1094 C3942.3125,533.7031 3942.1406,533.4844 3941.6563,533.2031 C3941.1875,532.9531 3940.5781,532.7969 3940,532.7969 C3938.2656,532.7969 3937.0156,534.1094 3937.0156,535.8906 L3937.0156,536.9844 C3937.0156,538.6875 3938.3125,539.7813 3940.3594,539.7813 C3941.125,539.7813 3941.8125,539.6563 3942.2344,539.3906 C3942.4219,539.2969 3942.4219,539.2969 3942.875,538.8125 C3943.0625,538.625 3943.2656,538.5469 3943.4844,538.5469 C3943.9531,538.5469 3944.3438,538.9375 3944.3438,539.3906 C3944.3438,539.7813 3944.0156,540.2344 3943.4375,540.6406 C3942.6875,541.1875 3941.5313,541.4844 3940.3125,541.4844 C3937.4219,541.4844 3935.3125,539.5938 3935.3125,537.0156 L3935.3125,535.8906 C3935.3125,533.1719 3937.3125,531.0938 3939.9375,531.0938 C3940.8125,531.0938 3941.4063,531.2344 3942.3438,531.6719 Z "/><text fill="#000000" font-family="sans-serif" font-size="12" lengthAdjust="spacingAndGlyphs" textLength="110" x="3954" y="540.1543">new_stock_report</text><line style="stroke: #A80036; stroke-width: 1.5;" x1="3926" x2="4066" y1="552" y2="552"/><line style="stroke: #A80036; stroke-width: 1.5;" x1="3926" x2="4066" y1="560" y2="560"/><rect fill="#FEFECE" filter="url(#f1)" height="48" style="stroke: #A80036; stroke-width: 1.5;" width="111" x="3778.5" y="520"/><ellipse cx="3793.5" cy="536" fill="#ADD1B2" rx="11" ry="11" style="stroke: #A80036; stroke-width: 1.0;"/><path d="M3795.8438,531.6719 L3796.0156,531.75 C3796.2344,531.4375 3796.4375,531.3438 3796.7344,531.3438 C3797.0313,531.3438 3797.3125,531.4844 3797.4688,531.75 C3797.5625,531.9063 3797.5781,532.0313 3797.5781,532.4688 L3797.5781,533.8906 C3797.5781,534.3125 3797.5469,534.5 3797.4375,534.6563 C3797.2656,534.875 3797,535.0156 3796.7344,535.0156 C3796.5156,535.0156 3796.2813,534.9063 3796.1406,534.7656 C3796,534.6406 3795.9688,534.5156 3795.9063,534.1094 C3795.8125,533.7031 3795.6406,533.4844 3795.1563,533.2031 C3794.6875,532.9531 3794.0781,532.7969 3793.5,532.7969 C3791.7656,532.7969 3790.5156,534.1094 3790.5156,535.8906 L3790.5156,536.9844 C3790.5156,538.6875 3791.8125,539.7813 3793.8594,539.7813 C3794.625,539.7813 3795.3125,539.6563 3795.7344,539.3906 C3795.9219,539.2969 3795.9219,539.2969 3796.375,538.8125 C3796.5625,538.625 3796.7656,538.5469 3796.9844,538.5469 C3797.4531,538.5469 3797.8438,538.9375 3797.8438,539.3906 C3797.8438,539.7813 3797.5156,540.2344 3796.9375,540.6406 C3796.1875,541.1875 3795.0313,541.4844 3793.8125,541.4844 C3790.9219,541.4844 3788.8125,539.5938 3788.8125,537.0156 L3788.8125,535.8906 C3788.8125,533.1719 3790.8125,531.0938 3793.4375,531.0938 C3794.3125,531.0938 3794.9063,531.2344 3795.8438,531.6719 Z "/><text fill="#000000" font-family="sans-serif" font-size="12" lengthAdjust="spacingAndGlyphs" textLength="79" x="3807.5" y="540.1543">stock_report</text><line style="stroke: #A80036; stroke-width: 1.5;" x1="3779.5" x2="3888.5" y1="552" y2="552"/><line style="stroke: #A80036; stroke-width: 1.5;" x1="3779.5" x2="3888.5" y1="560" y2="560"/><rect fill="#FEFECE" filter="url(#f1)" height="48" style="stroke: #A80036; stroke-width: 1.5;" width="140" x="3603" y="520"/><ellipse cx="3618" cy="536" fill="#ADD1B2" rx="11" ry="11" style="stroke: #A80036; stroke-width: 1.0;"/><path d="M3620.3438,531.6719 L3620.5156,531.75 C3620.7344,531.4375 3620.9375,531.3438 3621.2344,531.3438 C3621.5313,531.3438 3621.8125,531.4844 3621.9688,531.75 C3622.0625,531.9063 3622.0781,532.0313 3622.0781,532.4688 L3622.0781,533.8906 C3622.0781,534.3125 3622.0469,534.5 3621.9375,534.6563 C3621.7656,534.875 3621.5,535.0156 3621.2344,535.0156 C3621.0156,535.0156 3620.7813,534.9063 3620.6406,534.7656 C3620.5,534.6406 3620.4688,534.5156 3620.4063,534.1094 C3620.3125,533.7031 3620.1406,533.4844 3619.6563,533.2031 C3619.1875,532.9531 3618.5781,532.7969 3618,532.7969 C3616.2656,532.7969 3615.0156,534.1094 3615.0156,535.8906 L3615.0156,536.9844 C3615.0156,538.6875 3616.3125,539.7813 3618.3594,539.7813 C3619.125,539.7813 3619.8125,539.6563 3620.2344,539.3906 C3620.4219,539.2969 3620.4219,539.2969 3620.875,538.8125 C3621.0625,538.625 3621.2656,538.5469 3621.4844,538.5469 C3621.9531,538.5469 3622.3438,538.9375 3622.3438,539.3906 C3622.3438,539.7813 3622.0156,540.2344 3621.4375,540.6406 C3620.6875,541.1875 3619.5313,541.4844 3618.3125,541.4844 C3615.4219,541.4844 3613.3125,539.5938 3613.3125,537.0156 L3613.3125,535.8906 C3613.3125,533.1719 3615.3125,531.0938 3617.9375,531.0938 C3618.8125,531.0938 3619.4063,531.2344 3620.3438,531.6719 Z "/><text fill="#000000" font-family="sans-serif" font-size="12" lengthAdjust="spacingAndGlyphs" textLength="108" x="3632" y="540.1543">most_sold_report</text><line style="stroke: #A80036; stroke-width: 1.5;" x1="3604" x2="3742" y1="552" y2="552"/><line style="stroke: #A80036; stroke-width: 1.5;" x1="3604" x2="3742" y1="560" y2="560"/><rect fill="#FEFECE" filter="url(#f1)" height="48" style="stroke: #A80036; stroke-width: 1.5;" width="140" x="3428" y="520"/><ellipse cx="3443" cy="536" fill="#ADD1B2" rx="11" ry="11" style="stroke: #A80036; stroke-width: 1.0;"/><path d="M3445.3438,531.6719 L3445.5156,531.75 C3445.7344,531.4375 3445.9375,531.3438 3446.2344,531.3438 C3446.5313,531.3438 3446.8125,531.4844 3446.9688,531.75 C3447.0625,531.9063 3447.0781,532.0313 3447.0781,532.4688 L3447.0781,533.8906 C3447.0781,534.3125 3447.0469,534.5 3446.9375,534.6563 C3446.7656,534.875 3446.5,535.0156 3446.2344,535.0156 C3446.0156,535.0156 3445.7813,534.9063 3445.6406,534.7656 C3445.5,534.6406 3445.4688,534.5156 3445.4063,534.1094 C3445.3125,533.7031 3445.1406,533.4844 3444.6563,533.2031 C3444.1875,532.9531 3443.5781,532.7969 3443,532.7969 C3441.2656,532.7969 3440.0156,534.1094 3440.0156,535.8906 L3440.0156,536.9844 C3440.0156,538.6875 3441.3125,539.7813 3443.3594,539.7813 C3444.125,539.7813 3444.8125,539.6563 3445.2344,539.3906 C3445.4219,539.2969 3445.4219,539.2969 3445.875,538.8125 C3446.0625,538.625 3446.2656,538.5469 3446.4844,538.5469 C3446.9531,538.5469 3447.3438,538.9375 3447.3438,539.3906 C3447.3438,539.7813 3447.0156,540.2344 3446.4375,540.6406 C3445.6875,541.1875 3444.5313,541.4844 3443.3125,541.4844 C3440.4219,541.4844 3438.3125,539.5938 3438.3125,537.0156 L3438.3125,535.8906 C3438.3125,533.1719 3440.3125,531.0938 3442.9375,531.0938 C3443.8125,531.0938 3444.4063,531.2344 3445.3438,531.6719 Z "/><text fill="#000000" font-family="sans-serif" font-size="12" lengthAdjust="spacingAndGlyphs" textLength="108" x="3457" y="540.1543">least_sold_report</text><line style="stroke: #A80036; stroke-width: 1.5;" x1="3429" x2="3567" y1="552" y2="552"/><line style="stroke: #A80036; stroke-width: 1.5;" x1="3429" x2="3567" y1="560" y2="560"/><rect fill="#FEFECE" filter="url(#f1)" height="48" style="stroke: #A80036; stroke-width: 1.5;" width="122" x="3271" y="520"/><ellipse cx="3286" cy="536" fill="#ADD1B2" rx="11" ry="11" style="stroke: #A80036; stroke-width: 1.0;"/><path d="M3288.3438,531.6719 L3288.5156,531.75 C3288.7344,531.4375 3288.9375,531.3438 3289.2344,531.3438 C3289.5313,531.3438 3289.8125,531.4844 3289.9688,531.75 C3290.0625,531.9063 3290.0781,532.0313 3290.0781,532.4688 L3290.0781,533.8906 C3290.0781,534.3125 3290.0469,534.5 3289.9375,534.6563 C3289.7656,534.875 3289.5,535.0156 3289.2344,535.0156 C3289.0156,535.0156 3288.7813,534.9063 3288.6406,534.7656 C3288.5,534.6406 3288.4688,534.5156 3288.4063,534.1094 C3288.3125,533.7031 3288.1406,533.4844 3287.6563,533.2031 C3287.1875,532.9531 3286.5781,532.7969 3286,532.7969 C3284.2656,532.7969 3283.0156,534.1094 3283.0156,535.8906 L3283.0156,536.9844 C3283.0156,538.6875 3284.3125,539.7813 3286.3594,539.7813 C3287.125,539.7813 3287.8125,539.6563 3288.2344,539.3906 C3288.4219,539.2969 3288.4219,539.2969 3288.875,538.8125 C3289.0625,538.625 3289.2656,538.5469 3289.4844,538.5469 C3289.9531,538.5469 3290.3438,538.9375 3290.3438,539.3906 C3290.3438,539.7813 3290.0156,540.2344 3289.4375,540.6406 C3288.6875,541.1875 3287.5313,541.4844 3286.3125,541.4844 C3283.4219,541.4844 3281.3125,539.5938 3281.3125,537.0156 L3281.3125,535.8906 C3281.3125,533.1719 3283.3125,531.0938 3285.9375,531.0938 C3286.8125,531.0938 3287.4063,531.2344 3288.3438,531.6719 Z "/><text fill="#000000" font-family="sans-serif" font-size="12" lengthAdjust="spacingAndGlyphs" textLength="90" x="3300" y="540.1543">income_report</text><line style="stroke: #A80036; stroke-width: 1.5;" x1="3272" x2="3392" y1="552" y2="552"/><line style="stroke: #A80036; stroke-width: 1.5;" x1="3272" x2="3392" y1="560" y2="560"/><rect fill="#FEFECE" filter="url(#f1)" height="48" style="stroke: #A80036; stroke-width: 1.5;" width="150" x="3086" y="520"/><ellipse cx="3101" cy="536" fill="#ADD1B2" rx="11" ry="11" style="stroke: #A80036; stroke-width: 1.0;"/><path d="M3103.3438,531.6719 L3103.5156,531.75 C3103.7344,531.4375 3103.9375,531.3438 3104.2344,531.3438 C3104.5313,531.3438 3104.8125,531.4844 3104.9688,531.75 C3105.0625,531.9063 3105.0781,532.0313 3105.0781,532.4688 L3105.0781,533.8906 C3105.0781,534.3125 3105.0469,534.5 3104.9375,534.6563 C3104.7656,534.875 3104.5,535.0156 3104.2344,535.0156 C3104.0156,535.0156 3103.7813,534.9063 3103.6406,534.7656 C3103.5,534.6406 3103.4688,534.5156 3103.4063,534.1094 C3103.3125,533.7031 3103.1406,533.4844 3102.6563,533.2031 C3102.1875,532.9531 3101.5781,532.7969 3101,532.7969 C3099.2656,532.7969 3098.0156,534.1094 3098.0156,535.8906 L3098.0156,536.9844 C3098.0156,538.6875 3099.3125,539.7813 3101.3594,539.7813 C3102.125,539.7813 3102.8125,539.6563 3103.2344,539.3906 C3103.4219,539.2969 3103.4219,539.2969 3103.875,538.8125 C3104.0625,538.625 3104.2656,538.5469 3104.4844,538.5469 C3104.9531,538.5469 3105.3438,538.9375 3105.3438,539.3906 C3105.3438,539.7813 3105.0156,540.2344 3104.4375,540.6406 C3103.6875,541.1875 3102.5313,541.4844 3101.3125,541.4844 C3098.4219,541.4844 3096.3125,539.5938 3096.3125,537.0156 L3096.3125,535.8906 C3096.3125,533.1719 3098.3125,531.0938 3100.9375,531.0938 C3101.8125,531.0938 3102.4063,531.2344 3103.3438,531.6719 Z "/><text fill="#000000" font-family="sans-serif" font-size="12" lengthAdjust="spacingAndGlyphs" textLength="118" x="3115" y="540.1543">sales_stock_report</text><line style="stroke: #A80036; stroke-width: 1.5;" x1="3087" x2="3235" y1="552" y2="552"/><line style="stroke: #A80036; stroke-width: 1.5;" x1="3087" x2="3235" y1="560" y2="560"/><rect fill="#FEFECE" filter="url(#f1)" height="48" style="stroke: #A80036; stroke-width: 1.5;" width="110" x="2941" y="520"/><ellipse cx="2956" cy="536" fill="#ADD1B2" rx="11" ry="11" style="stroke: #A80036; stroke-width: 1.0;"/><path d="M2958.3438,531.6719 L2958.5156,531.75 C2958.7344,531.4375 2958.9375,531.3438 2959.2344,531.3438 C2959.5313,531.3438 2959.8125,531.4844 2959.9688,531.75 C2960.0625,531.9063 2960.0781,532.0313 2960.0781,532.4688 L2960.0781,533.8906 C2960.0781,534.3125 2960.0469,534.5 2959.9375,534.6563 C2959.7656,534.875 2959.5,535.0156 2959.2344,535.0156 C2959.0156,535.0156 2958.7813,534.9063 2958.6406,534.7656 C2958.5,534.6406 2958.4688,534.5156 2958.4063,534.1094 C2958.3125,533.7031 2958.1406,533.4844 2957.6563,533.2031 C2957.1875,532.9531 2956.5781,532.7969 2956,532.7969 C2954.2656,532.7969 2953.0156,534.1094 2953.0156,535.8906 L2953.0156,536.9844 C2953.0156,538.6875 2954.3125,539.7813 2956.3594,539.7813 C2957.125,539.7813 2957.8125,539.6563 2958.2344,539.3906 C2958.4219,539.2969 2958.4219,539.2969 2958.875,538.8125 C2959.0625,538.625 2959.2656,538.5469 2959.4844,538.5469 C2959.9531,538.5469 2960.3438,538.9375 2960.3438,539.3906 C2960.3438,539.7813 2960.0156,540.2344 2959.4375,540.6406 C2958.6875,541.1875 2957.5313,541.4844 2956.3125,541.4844 C2953.4219,541.4844 2951.3125,539.5938 2951.3125,537.0156 L2951.3125,535.8906 C2951.3125,533.1719 2953.3125,531.0938 2955.9375,531.0938 C2956.8125,531.0938 2957.4063,531.2344 2958.3438,531.6719 Z "/><text fill="#000000" font-family="sans-serif" font-size="12" lengthAdjust="spacingAndGlyphs" textLength="78" x="2970" y="540.1543">sales_report</text><line style="stroke: #A80036; stroke-width: 1.5;" x1="2942" x2="3050" y1="552" y2="552"/><line style="stroke: #A80036; stroke-width: 1.5;" x1="2942" x2="3050" y1="560" y2="560"/><rect fill="#FEFECE" filter="url(#f1)" height="48" style="stroke: #A80036; stroke-width: 1.5;" width="152" x="2787" y="688"/><ellipse cx="2802" cy="704" fill="#ADD1B2" rx="11" ry="11" style="stroke: #A80036; stroke-width: 1.0;"/><path d="M2804.3438,699.6719 L2804.5156,699.75 C2804.7344,699.4375 2804.9375,699.3438 2805.2344,699.3438 C2805.5313,699.3438 2805.8125,699.4844 2805.9688,699.75 C2806.0625,699.9063 2806.0781,700.0313 2806.0781,700.4688 L2806.0781,701.8906 C2806.0781,702.3125 2806.0469,702.5 2805.9375,702.6563 C2805.7656,702.875 2805.5,703.0156 2805.2344,703.0156 C2805.0156,703.0156 2804.7813,702.9063 2804.6406,702.7656 C2804.5,702.6406 2804.4688,702.5156 2804.4063,702.1094 C2804.3125,701.7031 2804.1406,701.4844 2803.6563,701.2031 C2803.1875,700.9531 2802.5781,700.7969 2802,700.7969 C2800.2656,700.7969 2799.0156,702.1094 2799.0156,703.8906 L2799.0156,704.9844 C2799.0156,706.6875 2800.3125,707.7813 2802.3594,707.7813 C2803.125,707.7813 2803.8125,707.6563 2804.2344,707.3906 C2804.4219,707.2969 2804.4219,707.2969 2804.875,706.8125 C2805.0625,706.625 2805.2656,706.5469 2805.4844,706.5469 C2805.9531,706.5469 2806.3438,706.9375 2806.3438,707.3906 C2806.3438,707.7813 2806.0156,708.2344 2805.4375,708.6406 C2804.6875,709.1875 2803.5313,709.4844 2802.3125,709.4844 C2799.4219,709.4844 2797.3125,707.5938 2797.3125,705.0156 L2797.3125,703.8906 C2797.3125,701.1719 2799.3125,699.0938 2801.9375,699.0938 C2802.8125,699.0938 2803.4063,699.2344 2804.3438,699.6719 Z "/><text fill="#000000" font-family="sans-serif" font-size="12" lengthAdjust="spacingAndGlyphs" textLength="120" x="2816" y="708.1543">edit_inventory_item</text><line style="stroke: #A80036; stroke-width: 1.5;" x1="2788" x2="2938" y1="720" y2="720"/><line style="stroke: #A80036; stroke-width: 1.5;" x1="2788" x2="2938" y1="728" y2="728"/><rect fill="#FEFECE" filter="url(#f1)" height="48" style="stroke: #A80036; stroke-width: 1.5;" width="160" x="2974" y="688"/><ellipse cx="2989" cy="704" fill="#ADD1B2" rx="11" ry="11" style="stroke: #A80036; stroke-width: 1.0;"/><path d="M2991.3438,699.6719 L2991.5156,699.75 C2991.7344,699.4375 2991.9375,699.3438 2992.2344,699.3438 C2992.5313,699.3438 2992.8125,699.4844 2992.9688,699.75 C2993.0625,699.9063 2993.0781,700.0313 2993.0781,700.4688 L2993.0781,701.8906 C2993.0781,702.3125 2993.0469,702.5 2992.9375,702.6563 C2992.7656,702.875 2992.5,703.0156 2992.2344,703.0156 C2992.0156,703.0156 2991.7813,702.9063 2991.6406,702.7656 C2991.5,702.6406 2991.4688,702.5156 2991.4063,702.1094 C2991.3125,701.7031 2991.1406,701.4844 2990.6563,701.2031 C2990.1875,700.9531 2989.5781,700.7969 2989,700.7969 C2987.2656,700.7969 2986.0156,702.1094 2986.0156,703.8906 L2986.0156,704.9844 C2986.0156,706.6875 2987.3125,707.7813 2989.3594,707.7813 C2990.125,707.7813 2990.8125,707.6563 2991.2344,707.3906 C2991.4219,707.2969 2991.4219,707.2969 2991.875,706.8125 C2992.0625,706.625 2992.2656,706.5469 2992.4844,706.5469 C2992.9531,706.5469 2993.3438,706.9375 2993.3438,707.3906 C2993.3438,707.7813 2993.0156,708.2344 2992.4375,708.6406 C2991.6875,709.1875 2990.5313,709.4844 2989.3125,709.4844 C2986.4219,709.4844 2984.3125,707.5938 2984.3125,705.0156 L2984.3125,703.8906 C2984.3125,701.1719 2986.3125,699.0938 2988.9375,699.0938 C2989.8125,699.0938 2990.4063,699.2344 2991.3438,699.6719 Z "/><text fill="#000000" font-family="sans-serif" font-size="12" lengthAdjust="spacingAndGlyphs" textLength="128" x="3003" y="708.1543">inventory_item_table</text><line style="stroke: #A80036; stroke-width: 1.5;" x1="2975" x2="3133" y1="720" y2="720"/><line style="stroke: #A80036; stroke-width: 1.5;" x1="2975" x2="3133" y1="728" y2="728"/><rect fill="#FEFECE" filter="url(#f1)" height="48" style="stroke: #A80036; stroke-width: 1.5;" width="153" x="2598.5" y="688"/><ellipse cx="2613.5" cy="704" fill="#ADD1B2" rx="11" ry="11" style="stroke: #A80036; stroke-width: 1.0;"/><path d="M2615.8438,699.6719 L2616.0156,699.75 C2616.2344,699.4375 2616.4375,699.3438 2616.7344,699.3438 C2617.0313,699.3438 2617.3125,699.4844 2617.4688,699.75 C2617.5625,699.9063 2617.5781,700.0313 2617.5781,700.4688 L2617.5781,701.8906 C2617.5781,702.3125 2617.5469,702.5 2617.4375,702.6563 C2617.2656,702.875 2617,703.0156 2616.7344,703.0156 C2616.5156,703.0156 2616.2813,702.9063 2616.1406,702.7656 C2616,702.6406 2615.9688,702.5156 2615.9063,702.1094 C2615.8125,701.7031 2615.6406,701.4844 2615.1563,701.2031 C2614.6875,700.9531 2614.0781,700.7969 2613.5,700.7969 C2611.7656,700.7969 2610.5156,702.1094 2610.5156,703.8906 L2610.5156,704.9844 C2610.5156,706.6875 2611.8125,707.7813 2613.8594,707.7813 C2614.625,707.7813 2615.3125,707.6563 2615.7344,707.3906 C2615.9219,707.2969 2615.9219,707.2969 2616.375,706.8125 C2616.5625,706.625 2616.7656,706.5469 2616.9844,706.5469 C2617.4531,706.5469 2617.8438,706.9375 2617.8438,707.3906 C2617.8438,707.7813 2617.5156,708.2344 2616.9375,708.6406 C2616.1875,709.1875 2615.0313,709.4844 2613.8125,709.4844 C2610.9219,709.4844 2608.8125,707.5938 2608.8125,705.0156 L2608.8125,703.8906 C2608.8125,701.1719 2610.8125,699.0938 2613.4375,699.0938 C2614.3125,699.0938 2614.9063,699.2344 2615.8438,699.6719 Z "/><text fill="#000000" font-family="sans-serif" font-size="12" lengthAdjust="spacingAndGlyphs" textLength="121" x="2627.5" y="708.1543">new_inventory_item</text><line style="stroke: #A80036; stroke-width: 1.5;" x1="2599.5" x2="2750.5" y1="720" y2="720"/><line style="stroke: #A80036; stroke-width: 1.5;" x1="2599.5" x2="2750.5" y1="728" y2="728"/><rect fill="#FEFECE" filter="url(#f1)" height="48" style="stroke: #A80036; stroke-width: 1.5;" width="65" x="2790.5" y="118.5"/><ellipse cx="2805.5" cy="134.5" fill="#ADD1B2" rx="11" ry="11" style="stroke: #A80036; stroke-width: 1.0;"/><path d="M2807.8438,130.1719 L2808.0156,130.25 C2808.2344,129.9375 2808.4375,129.8438 2808.7344,129.8438 C2809.0313,129.8438 2809.3125,129.9844 2809.4688,130.25 C2809.5625,130.4063 2809.5781,130.5313 2809.5781,130.9688 L2809.5781,132.3906 C2809.5781,132.8125 2809.5469,133 2809.4375,133.1563 C2809.2656,133.375 2809,133.5156 2808.7344,133.5156 C2808.5156,133.5156 2808.2813,133.4063 2808.1406,133.2656 C2808,133.1406 2807.9688,133.0156 2807.9063,132.6094 C2807.8125,132.2031 2807.6406,131.9844 2807.1563,131.7031 C2806.6875,131.4531 2806.0781,131.2969 2805.5,131.2969 C2803.7656,131.2969 2802.5156,132.6094 2802.5156,134.3906 L2802.5156,135.4844 C2802.5156,137.1875 2803.8125,138.2813 2805.8594,138.2813 C2806.625,138.2813 2807.3125,138.1563 2807.7344,137.8906 C2807.9219,137.7969 2807.9219,137.7969 2808.375,137.3125 C2808.5625,137.125 2808.7656,137.0469 2808.9844,137.0469 C2809.4531,137.0469 2809.8438,137.4375 2809.8438,137.8906 C2809.8438,138.2813 2809.5156,138.7344 2808.9375,139.1406 C2808.1875,139.6875 2807.0313,139.9844 2805.8125,139.9844 C2802.9219,139.9844 2800.8125,138.0938 2800.8125,135.5156 L2800.8125,134.3906 C2800.8125,131.6719 2802.8125,129.5938 2805.4375,129.5938 C2806.3125,129.5938 2806.9063,129.7344 2807.8438,130.1719 Z "/><text fill="#000000" font-family="sans-serif" font-size="12" lengthAdjust="spacingAndGlyphs" textLength="33" x="2819.5" y="138.6543">index</text><line style="stroke: #A80036; stroke-width: 1.5;" x1="2791.5" x2="2854.5" y1="150.5" y2="150.5"/><line style="stroke: #A80036; stroke-width: 1.5;" x1="2791.5" x2="2854.5" y1="158.5" y2="158.5"/><rect fill="#FEFECE" filter="url(#f1)" height="48" style="stroke: #A80036; stroke-width: 1.5;" width="89" x="2410.5" y="520"/><ellipse cx="2425.5" cy="536" fill="#ADD1B2" rx="11" ry="11" style="stroke: #A80036; stroke-width: 1.0;"/><path d="M2427.8438,531.6719 L2428.0156,531.75 C2428.2344,531.4375 2428.4375,531.3438 2428.7344,531.3438 C2429.0313,531.3438 2429.3125,531.4844 2429.4688,531.75 C2429.5625,531.9063 2429.5781,532.0313 2429.5781,532.4688 L2429.5781,533.8906 C2429.5781,534.3125 2429.5469,534.5 2429.4375,534.6563 C2429.2656,534.875 2429,535.0156 2428.7344,535.0156 C2428.5156,535.0156 2428.2813,534.9063 2428.1406,534.7656 C2428,534.6406 2427.9688,534.5156 2427.9063,534.1094 C2427.8125,533.7031 2427.6406,533.4844 2427.1563,533.2031 C2426.6875,532.9531 2426.0781,532.7969 2425.5,532.7969 C2423.7656,532.7969 2422.5156,534.1094 2422.5156,535.8906 L2422.5156,536.9844 C2422.5156,538.6875 2423.8125,539.7813 2425.8594,539.7813 C2426.625,539.7813 2427.3125,539.6563 2427.7344,539.3906 C2427.9219,539.2969 2427.9219,539.2969 2428.375,538.8125 C2428.5625,538.625 2428.7656,538.5469 2428.9844,538.5469 C2429.4531,538.5469 2429.8438,538.9375 2429.8438,539.3906 C2429.8438,539.7813 2429.5156,540.2344 2428.9375,540.6406 C2428.1875,541.1875 2427.0313,541.4844 2425.8125,541.4844 C2422.9219,541.4844 2420.8125,539.5938 2420.8125,537.0156 L2420.8125,535.8906 C2420.8125,533.1719 2422.8125,531.0938 2425.4375,531.0938 C2426.3125,531.0938 2426.9063,531.2344 2427.8438,531.6719 Z "/><text fill="#000000" font-family="sans-serif" font-size="12" lengthAdjust="spacingAndGlyphs" textLength="57" x="2439.5" y="540.1543">edit_item</text><line style="stroke: #A80036; stroke-width: 1.5;" x1="2411.5" x2="2498.5" y1="552" y2="552"/><line style="stroke: #A80036; stroke-width: 1.5;" x1="2411.5" x2="2498.5" y1="560" y2="560"/><rect fill="#FEFECE" filter="url(#f1)" height="48" style="stroke: #A80036; stroke-width: 1.5;" width="93" x="2534.5" y="520"/><ellipse cx="2549.5" cy="536" fill="#ADD1B2" rx="11" ry="11" style="stroke: #A80036; stroke-width: 1.0;"/><path d="M2551.8438,531.6719 L2552.0156,531.75 C2552.2344,531.4375 2552.4375,531.3438 2552.7344,531.3438 C2553.0313,531.3438 2553.3125,531.4844 2553.4688,531.75 C2553.5625,531.9063 2553.5781,532.0313 2553.5781,532.4688 L2553.5781,533.8906 C2553.5781,534.3125 2553.5469,534.5 2553.4375,534.6563 C2553.2656,534.875 2553,535.0156 2552.7344,535.0156 C2552.5156,535.0156 2552.2813,534.9063 2552.1406,534.7656 C2552,534.6406 2551.9688,534.5156 2551.9063,534.1094 C2551.8125,533.7031 2551.6406,533.4844 2551.1563,533.2031 C2550.6875,532.9531 2550.0781,532.7969 2549.5,532.7969 C2547.7656,532.7969 2546.5156,534.1094 2546.5156,535.8906 L2546.5156,536.9844 C2546.5156,538.6875 2547.8125,539.7813 2549.8594,539.7813 C2550.625,539.7813 2551.3125,539.6563 2551.7344,539.3906 C2551.9219,539.2969 2551.9219,539.2969 2552.375,538.8125 C2552.5625,538.625 2552.7656,538.5469 2552.9844,538.5469 C2553.4531,538.5469 2553.8438,538.9375 2553.8438,539.3906 C2553.8438,539.7813 2553.5156,540.2344 2552.9375,540.6406 C2552.1875,541.1875 2551.0313,541.4844 2549.8125,541.4844 C2546.9219,541.4844 2544.8125,539.5938 2544.8125,537.0156 L2544.8125,535.8906 C2544.8125,533.1719 2546.8125,531.0938 2549.4375,531.0938 C2550.3125,531.0938 2550.9063,531.2344 2551.8438,531.6719 Z "/><text fill="#000000" font-family="sans-serif" font-size="12" lengthAdjust="spacingAndGlyphs" textLength="61" x="2563.5" y="540.1543">item_form</text><line style="stroke: #A80036; stroke-width: 1.5;" x1="2535.5" x2="2626.5" y1="552" y2="552"/><line style="stroke: #A80036; stroke-width: 1.5;" x1="2535.5" x2="2626.5" y1="560" y2="560"/><rect fill="#FEFECE" filter="url(#f1)" height="48" style="stroke: #A80036; stroke-width: 1.5;" width="97" x="2662.5" y="520"/><ellipse cx="2677.5" cy="536" fill="#ADD1B2" rx="11" ry="11" style="stroke: #A80036; stroke-width: 1.0;"/><path d="M2679.8438,531.6719 L2680.0156,531.75 C2680.2344,531.4375 2680.4375,531.3438 2680.7344,531.3438 C2681.0313,531.3438 2681.3125,531.4844 2681.4688,531.75 C2681.5625,531.9063 2681.5781,532.0313 2681.5781,532.4688 L2681.5781,533.8906 C2681.5781,534.3125 2681.5469,534.5 2681.4375,534.6563 C2681.2656,534.875 2681,535.0156 2680.7344,535.0156 C2680.5156,535.0156 2680.2813,534.9063 2680.1406,534.7656 C2680,534.6406 2679.9688,534.5156 2679.9063,534.1094 C2679.8125,533.7031 2679.6406,533.4844 2679.1563,533.2031 C2678.6875,532.9531 2678.0781,532.7969 2677.5,532.7969 C2675.7656,532.7969 2674.5156,534.1094 2674.5156,535.8906 L2674.5156,536.9844 C2674.5156,538.6875 2675.8125,539.7813 2677.8594,539.7813 C2678.625,539.7813 2679.3125,539.6563 2679.7344,539.3906 C2679.9219,539.2969 2679.9219,539.2969 2680.375,538.8125 C2680.5625,538.625 2680.7656,538.5469 2680.9844,538.5469 C2681.4531,538.5469 2681.8438,538.9375 2681.8438,539.3906 C2681.8438,539.7813 2681.5156,540.2344 2680.9375,540.6406 C2680.1875,541.1875 2679.0313,541.4844 2677.8125,541.4844 C2674.9219,541.4844 2672.8125,539.5938 2672.8125,537.0156 L2672.8125,535.8906 C2672.8125,533.1719 2674.8125,531.0938 2677.4375,531.0938 C2678.3125,531.0938 2678.9063,531.2344 2679.8438,531.6719 Z "/><text fill="#000000" font-family="sans-serif" font-size="12" lengthAdjust="spacingAndGlyphs" textLength="65" x="2691.5" y="540.1543">item_table</text><line style="stroke: #A80036; stroke-width: 1.5;" x1="2663.5" x2="2758.5" y1="552" y2="552"/><line style="stroke: #A80036; stroke-width: 1.5;" x1="2663.5" x2="2758.5" y1="560" y2="560"/><rect fill="#FEFECE" filter="url(#f1)" height="48" style="stroke: #A80036; stroke-width: 1.5;" width="90" x="2795" y="520"/><ellipse cx="2810" cy="536" fill="#ADD1B2" rx="11" ry="11" style="stroke: #A80036; stroke-width: 1.0;"/><path d="M2812.3438,531.6719 L2812.5156,531.75 C2812.7344,531.4375 2812.9375,531.3438 2813.2344,531.3438 C2813.5313,531.3438 2813.8125,531.4844 2813.9688,531.75 C2814.0625,531.9063 2814.0781,532.0313 2814.0781,532.4688 L2814.0781,533.8906 C2814.0781,534.3125 2814.0469,534.5 2813.9375,534.6563 C2813.7656,534.875 2813.5,535.0156 2813.2344,535.0156 C2813.0156,535.0156 2812.7813,534.9063 2812.6406,534.7656 C2812.5,534.6406 2812.4688,534.5156 2812.4063,534.1094 C2812.3125,533.7031 2812.1406,533.4844 2811.6563,533.2031 C2811.1875,532.9531 2810.5781,532.7969 2810,532.7969 C2808.2656,532.7969 2807.0156,534.1094 2807.0156,535.8906 L2807.0156,536.9844 C2807.0156,538.6875 2808.3125,539.7813 2810.3594,539.7813 C2811.125,539.7813 2811.8125,539.6563 2812.2344,539.3906 C2812.4219,539.2969 2812.4219,539.2969 2812.875,538.8125 C2813.0625,538.625 2813.2656,538.5469 2813.4844,538.5469 C2813.9531,538.5469 2814.3438,538.9375 2814.3438,539.3906 C2814.3438,539.7813 2814.0156,540.2344 2813.4375,540.6406 C2812.6875,541.1875 2811.5313,541.4844 2810.3125,541.4844 C2807.4219,541.4844 2805.3125,539.5938 2805.3125,537.0156 L2805.3125,535.8906 C2805.3125,533.1719 2807.3125,531.0938 2809.9375,531.0938 C2810.8125,531.0938 2811.4063,531.2344 2812.3438,531.6719 Z "/><text fill="#000000" font-family="sans-serif" font-size="12" lengthAdjust="spacingAndGlyphs" textLength="58" x="2824" y="540.1543">new_item</text><line style="stroke: #A80036; stroke-width: 1.5;" x1="2796" x2="2884" y1="552" y2="552"/><line style="stroke: #A80036; stroke-width: 1.5;" x1="2796" x2="2884" y1="560" y2="560"/><rect fill="#FEFECE" filter="url(#f1)" height="48" style="stroke: #A80036; stroke-width: 1.5;" width="124" x="2761" y="316"/><ellipse cx="2776" cy="332" fill="#ADD1B2" rx="11" ry="11" style="stroke: #A80036; stroke-width: 1.0;"/><path d="M2778.3438,327.6719 L2778.5156,327.75 C2778.7344,327.4375 2778.9375,327.3438 2779.2344,327.3438 C2779.5313,327.3438 2779.8125,327.4844 2779.9688,327.75 C2780.0625,327.9063 2780.0781,328.0313 2780.0781,328.4688 L2780.0781,329.8906 C2780.0781,330.3125 2780.0469,330.5 2779.9375,330.6563 C2779.7656,330.875 2779.5,331.0156 2779.2344,331.0156 C2779.0156,331.0156 2778.7813,330.9063 2778.6406,330.7656 C2778.5,330.6406 2778.4688,330.5156 2778.4063,330.1094 C2778.3125,329.7031 2778.1406,329.4844 2777.6563,329.2031 C2777.1875,328.9531 2776.5781,328.7969 2776,328.7969 C2774.2656,328.7969 2773.0156,330.1094 2773.0156,331.8906 L2773.0156,332.9844 C2773.0156,334.6875 2774.3125,335.7813 2776.3594,335.7813 C2777.125,335.7813 2777.8125,335.6563 2778.2344,335.3906 C2778.4219,335.2969 2778.4219,335.2969 2778.875,334.8125 C2779.0625,334.625 2779.2656,334.5469 2779.4844,334.5469 C2779.9531,334.5469 2780.3438,334.9375 2780.3438,335.3906 C2780.3438,335.7813 2780.0156,336.2344 2779.4375,336.6406 C2778.6875,337.1875 2777.5313,337.4844 2776.3125,337.4844 C2773.4219,337.4844 2771.3125,335.5938 2771.3125,333.0156 L2771.3125,331.8906 C2771.3125,329.1719 2773.3125,327.0938 2775.9375,327.0938 C2776.8125,327.0938 2777.4063,327.2344 2778.3438,327.6719 Z "/><text fill="#000000" font-family="sans-serif" font-size="12" lengthAdjust="spacingAndGlyphs" textLength="92" x="2790" y="336.1543">website_layout</text><line style="stroke: #A80036; stroke-width: 1.5;" x1="2762" x2="2884" y1="348" y2="348"/><line style="stroke: #A80036; stroke-width: 1.5;" x1="2762" x2="2884" y1="356" y2="356"/><rect fill="#FEFECE" filter="url(#f1)" height="48" style="stroke: #A80036; stroke-width: 1.5;" width="126" x="1961" y="118.5"/><ellipse cx="1976" cy="134.5" fill="#ADD1B2" rx="11" ry="11" style="stroke: #A80036; stroke-width: 1.0;"/><path d="M1978.3438,130.1719 L1978.5156,130.25 C1978.7344,129.9375 1978.9375,129.8438 1979.2344,129.8438 C1979.5313,129.8438 1979.8125,129.9844 1979.9688,130.25 C1980.0625,130.4063 1980.0781,130.5313 1980.0781,130.9688 L1980.0781,132.3906 C1980.0781,132.8125 1980.0469,133 1979.9375,133.1563 C1979.7656,133.375 1979.5,133.5156 1979.2344,133.5156 C1979.0156,133.5156 1978.7813,133.4063 1978.6406,133.2656 C1978.5,133.1406 1978.4688,133.0156 1978.4063,132.6094 C1978.3125,132.2031 1978.1406,131.9844 1977.6563,131.7031 C1977.1875,131.4531 1976.5781,131.2969 1976,131.2969 C1974.2656,131.2969 1973.0156,132.6094 1973.0156,134.3906 L1973.0156,135.4844 C1973.0156,137.1875 1974.3125,138.2813 1976.3594,138.2813 C1977.125,138.2813 1977.8125,138.1563 1978.2344,137.8906 C1978.4219,137.7969 1978.4219,137.7969 1978.875,137.3125 C1979.0625,137.125 1979.2656,137.0469 1979.4844,137.0469 C1979.9531,137.0469 1980.3438,137.4375 1980.3438,137.8906 C1980.3438,138.2813 1980.0156,138.7344 1979.4375,139.1406 C1978.6875,139.6875 1977.5313,139.9844 1976.3125,139.9844 C1973.4219,139.9844 1971.3125,138.0938 1971.3125,135.5156 L1971.3125,134.3906 C1971.3125,131.6719 1973.3125,129.5938 1975.9375,129.5938 C1976.8125,129.5938 1977.4063,129.7344 1978.3438,130.1719 Z "/><text fill="#000000" font-family="sans-serif" font-size="12" lengthAdjust="spacingAndGlyphs" textLength="94" x="1990" y="138.6543">FrontController</text><line style="stroke: #A80036; stroke-width: 1.5;" x1="1962" x2="2086" y1="150.5" y2="150.5"/><line style="stroke: #A80036; stroke-width: 1.5;" x1="1962" x2="2086" y1="158.5" y2="158.5"/><path d="M182.283,340 C187.201,340 192.118,340 197.035,340 " fill="none" style="stroke: #A80036; stroke-width: 1.0;"/><polygon fill="none" points="197.252,333,217.251,340,197.251,347,197.252,333" style="stroke: #A80036; stroke-width: 1.0;"/><path d="M421,192.077 C421,208.102 421,226.512 421,244.759 " fill="none" style="stroke: #A80036; stroke-width: 1.0;"/><polygon fill="none" points="428,244.762,421,264.762,414,244.762,428,244.762" style="stroke: #A80036; stroke-width: 1.0;"/><path d="M644.73,340 C649.599,340 654.468,340 659.337,340 " fill="none" style="stroke: #A80036; stroke-width: 1.0;"/><polygon fill="none" points="644.714,347,624.714,340,644.714,333,644.714,347" style="stroke: #A80036; stroke-width: 1.0;"/><path d="M237.605,544 C242.491,544 247.377,544 252.263,544 " fill="none" style="stroke: #A80036; stroke-width: 1.0;"/><polygon fill="none" points="252.35,537,272.35,544,252.35,551,252.35,537" style="stroke: #A80036; stroke-width: 1.0;"/><path d="M589.752,544 C594.825,544 599.898,544 604.97,544 " fill="none" style="stroke: #A80036; stroke-width: 1.0;"/><polygon fill="none" points="589.553,551,569.553,544,589.553,537,589.553,551" style="stroke: #A80036; stroke-width: 1.0;"/><path d="M408.358,428.103 C408.113,443.786 408.285,459.925 408.874,474.968 " fill="none" style="stroke: #A80036; stroke-width: 1.0;"/><polygon fill="#A80036" points="408.662,415.07,404.5233,420.9752,408.3824,427.0667,412.5211,421.1616,408.662,415.07" style="stroke: #A80036; stroke-width: 1.0;"/><path d="M434.064,415.07 C434.566,430.224 434.634,446.25 434.27,461.642 " fill="none" style="stroke: #A80036; stroke-width: 1.0;"/><polygon fill="#FFFFFF" points="433.839,474.968,438.0308,469.1004,434.2267,462.9743,430.0349,468.8419,433.839,474.968" style="stroke: #A80036; stroke-width: 1.0;"/><path d="M1456,205.089 C1456,227.969 1456,253.925 1456,276.854 " fill="none" style="stroke: #A80036; stroke-width: 1.0;"/><polygon fill="none" points="1463,276.885,1456,296.885,1449,276.885,1463,276.885" style="stroke: #A80036; stroke-width: 1.0;"/><path d="M1694.2,340 C1699.27,340 1704.34,340 1709.41,340 " fill="none" style="stroke: #A80036; stroke-width: 1.0;"/><polygon fill="none" points="1694.01,347,1674.01,340,1694.01,333,1694.01,347" style="stroke: #A80036; stroke-width: 1.0;"/><path d="M1496.48,399.834 C1515.55,427.541 1538.17,460.408 1556.92,487.659 " fill="none" style="stroke: #A80036; stroke-width: 1.0;"/><polygon fill="none" points="1490.71,403.79,1485.14,383.346,1502.24,395.854,1490.71,403.79" style="stroke: #A80036; stroke-width: 1.0;"/><path d="M1389.01,396.012 C1348.73,429.081 1298.27,470.514 1261.2,500.954 " fill="none" style="stroke: #A80036; stroke-width: 1.0;"/><polygon fill="none" points="1384.83,390.382,1404.73,383.1,1393.72,401.202,1384.83,390.382" style="stroke: #A80036; stroke-width: 1.0;"/><path d="M2826.65,384.373 C2830.14,425.854 2835.27,486.824 2838.05,519.788 " fill="none" style="stroke: #A80036; stroke-width: 1.0;"/><polygon fill="none" points="2819.65,384.689,2824.95,364.172,2833.6,383.514,2819.65,384.689" style="stroke: #A80036; stroke-width: 1.0;"/><path d="M2741.55,366.153 C2676.94,388.489 2586.3,425.303 2517,475 C2499.6,487.476 2483.43,505.522 2471.97,519.889 " fill="none" style="stroke: #A80036; stroke-width: 1.0;"/><polygon fill="none" points="2739.52,359.449,2760.71,359.687,2744,372.714,2739.52,359.449" style="stroke: #A80036; stroke-width: 1.0;"/><path d="M2800.37,381.818 C2777.36,423.313 2742.53,486.141 2723.87,519.788 " fill="none" style="stroke: #A80036; stroke-width: 1.0;"/><polygon fill="none" points="2794.33,378.269,2810.15,364.172,2806.58,385.058,2794.33,378.269" style="stroke: #A80036; stroke-width: 1.0;"/><path d="M2772.06,375.832 C2735.45,401.688 2685.61,438.625 2645,475 C2629.42,488.954 2613.29,506.112 2601.12,519.701 " fill="none" style="stroke: #A80036; stroke-width: 1.0;"/><polygon fill="none" points="2768.46,369.804,2788.86,364.08,2776.48,381.277,2768.46,369.804" style="stroke: #A80036; stroke-width: 1.0;"/><path d="M2823,166.694 C2823,198.441 2823,256.019 2823,295.826 " fill="none" style="stroke: #A80036; stroke-width: 1.0;"/><polygon fill="none" points="2830,295.836,2823,315.836,2816,295.836,2830,295.836" style="stroke: #A80036; stroke-width: 1.0;"/><path d="M2905.27,346.427 C3104.91,360.597 3609.77,402.708 3761,475 C3782.72,485.383 3802.38,504.539 3815.8,519.879 " fill="none" style="stroke: #A80036; stroke-width: 1.0;"/><polygon fill="none" points="2904.71,353.405,2885.25,345.027,2905.69,339.439,2904.71,353.405" style="stroke: #A80036; stroke-width: 1.0;"/><path d="M2905.19,345.587 C3125.5,358.758 3724.82,400.6 3907,475 C3932.02,485.219 3956.11,504.388 3972.9,519.775 " fill="none" style="stroke: #A80036; stroke-width: 1.0;"/><polygon fill="none" points="2904.64,352.566,2885.08,344.402,2905.46,338.591,2904.64,352.566" style="stroke: #A80036; stroke-width: 1.0;"/><path d="M2905.08,342.511 C3049.08,347.915 3353.96,371.756 3586,475 C3610.17,485.754 3633.56,504.674 3649.99,519.831 " fill="none" style="stroke: #A80036; stroke-width: 1.0;"/><polygon fill="none" points="2904.78,349.505,2885.03,341.841,2905.25,335.513,2904.78,349.505" style="stroke: #A80036; stroke-width: 1.0;"/><path d="M2905.11,348.288 C3022.27,361.171 3241.96,394.643 3411,475 C3434.72,486.276 3457.97,504.957 3474.46,519.889 " fill="none" style="stroke: #A80036; stroke-width: 1.0;"/><polygon fill="none" points="2904.3,355.242,2885.14,346.185,2905.77,341.319,2904.3,355.242" style="stroke: #A80036; stroke-width: 1.0;"/><path d="M2856.05,379.591 C2891.54,421.034 2946.78,485.533 2976.12,519.788 " fill="none" style="stroke: #A80036; stroke-width: 1.0;"/><polygon fill="none" points="2850.54,383.916,2842.85,364.172,2861.17,374.809,2850.54,383.916" style="stroke: #A80036; stroke-width: 1.0;"/><path d="M2904.74,355.839 C2994.56,374.488 3141.06,411.94 3254,475 C3275.18,486.823 3295.71,505.087 3310.39,519.71 " fill="none" style="stroke: #A80036; stroke-width: 1.0;"/><polygon fill="none" points="2903.32,362.693,2885.1,351.873,2906.09,348.97,2903.32,362.693" style="stroke: #A80036; stroke-width: 1.0;"/><path d="M2887.79,373.188 C2938.23,398.976 3009.42,437.008 3069,475 C3090.77,488.882 3114.15,506.201 3131.9,519.886 " fill="none" style="stroke: #A80036; stroke-width: 1.0;"/><polygon fill="none" points="2884.55,379.391,2869.88,364.097,2890.88,366.907,2884.55,379.391" style="stroke: #A80036; stroke-width: 1.0;"/><path d="M2604.15,585.886 C2622.33,617.98 2646.97,661.503 2661.89,687.847 " fill="none" style="stroke: #A80036; stroke-width: 1.0;"/><polygon fill="none" points="2597.83,588.934,2594.07,568.082,2610.02,582.036,2597.83,588.934" style="stroke: #A80036; stroke-width: 1.0;"/><path d="M2598.98,585.949 C2609.52,604.856 2624.79,625.598 2645,637 C2669.05,650.569 2742.95,635.836 2769,645 C2794.96,654.132 2820.25,672.598 2838.04,687.68 " fill="none" style="stroke: #A80036; stroke-width: 1.0;"/><polygon fill="none" points="2592.72,589.082,2590,568.068,2605.23,582.799,2592.72,589.082" style="stroke: #A80036; stroke-width: 1.0;"/><path d="M2563.38,586.793 C2549.88,618.796 2531.77,661.75 2520.76,687.847 " fill="none" style="stroke: #A80036; stroke-width: 1.0;"/><polygon fill="none" points="2557.05,583.79,2571.27,568.082,2569.95,589.23,2557.05,583.79" style="stroke: #A80036; stroke-width: 1.0;"/><path d="M2905.19,343.501 C3172.44,352.469 4004.1,387.265 4083,475 C4131.14,528.536 4132.05,584.294 4083,637 C4018.82,705.9564 3365.22,711.5527 3134.29,711.3572 " fill="none" style="stroke: #A80036; stroke-width: 1.0;"/><polygon fill="none" points="2904.87,350.494,2885.11,342.841,2905.33,336.502,2904.87,350.494" style="stroke: #A80036; stroke-width: 1.0;"/></g></svg>