<?xml version="1.0" encoding="UTF-8" standalone="yes"?><svg xmlns="http://www.w3.org/2000/svg" xmlns:xlink="http://www.w3.org/1999/xlink" height="783px" style="width:3965px;height:783px;" version="1.1" viewBox="0 0 3965 783" width="3965px"><defs><filter height="300%" id="f1" width="300%" x="-1" y="-1"><feGaussianBlur result="blurOut" stdDeviation="2.0"/><feColorMatrix in="blurOut" result="blurOut2" type="matrix" values="0 0 0 0 0 0 0 0 0 0 0 0 0 0 0 0 0 0 .4 0"/><feOffset dx="4.0" dy="4.0" in="blurOut2" result="blurOut3"/><feBlend in="SourceGraphic" in2="blurOut3" mode="normal"/></filter></defs><g><polygon fill="#FFFFFF" filter="url(#f1)" points="1938,83.5,2017,83.5,2024,105.7969,2178,105.7969,2178,182.5,1938,182.5,1938,83.5" style="stroke: #000000; stroke-width: 2.0;"/><line style="stroke: #000000; stroke-width: 2.0;" x1="1938" x2="2024" y1="105.7969" y2="105.7969"/><text fill="#000000" font-family="sans-serif" font-size="14" font-weight="bold" lengthAdjust="spacingAndGlyphs" textLength="73" x="1942" y="98.4951">Database</text><polygon fill="#FFFFFF" filter="url(#f1)" points="22,58,84,58,91,80.2969,705,80.2969,705,629,22,629,22,58" style="stroke: #000000; stroke-width: 2.0;"/><line style="stroke: #000000; stroke-width: 2.0;" x1="22" x2="91" y1="80.2969" y2="80.2969"/><text fill="#000000" font-family="sans-serif" font-size="14" font-weight="bold" lengthAdjust="spacingAndGlyphs" textLength="56" x="26" y="72.9951">Models</text><polygon fill="#FFFFFF" filter="url(#f1)" points="729,45,823,45,830,67.2969,1777,67.2969,1777,616,729,616,729,45" style="stroke: #000000; stroke-width: 2.0;"/><line style="stroke: #000000; stroke-width: 2.0;" x1="729" x2="830" y1="67.2969" y2="67.2969"/><text fill="#000000" font-family="sans-serif" font-size="14" font-weight="bold" lengthAdjust="spacingAndGlyphs" textLength="88" x="733" y="59.9951">Controllers</text><polygon fill="#FFFFFF" filter="url(#f1)" points="2202,24.5,2256,24.5,2263,46.7969,3952,46.7969,3952,776,2202,776,2202,24.5" style="stroke: #000000; stroke-width: 2.0;"/><line style="stroke: #000000; stroke-width: 2.0;" x1="2202" x2="2263" y1="46.7969" y2="46.7969"/><text fill="#000000" font-family="sans-serif" font-size="14" font-weight="bold" lengthAdjust="spacingAndGlyphs" textLength="48" x="2206" y="39.4951">Views</text><polygon fill="#FFFFFF" filter="url(#f1)" points="2296,653,2338,653,2345,675.2969,2390,675.2969,2390,752,2296,752,2296,653" style="stroke: #000000; stroke-width: 2.0;"/><line style="stroke: #000000; stroke-width: 2.0;" x1="2296" x2="2345" y1="675.2969" y2="675.2969"/><text fill="#000000" font-family="sans-serif" font-size="14" font-weight="bold" lengthAdjust="spacingAndGlyphs" textLength="36" x="2300" y="667.9951">user</text><polygon fill="#FFFFFF" filter="url(#f1)" points="2757,485,2813,485,2820,507.2969,3915,507.2969,3915,584,2757,584,2757,485" style="stroke: #000000; stroke-width: 2.0;"/><line style="stroke: #000000; stroke-width: 2.0;" x1="2757" x2="2820" y1="507.2969" y2="507.2969"/><text fill="#000000" font-family="sans-serif" font-size="14" font-weight="bold" lengthAdjust="spacingAndGlyphs" textLength="50" x="2761" y="499.9951">report</text><polygon fill="#FFFFFF" filter="url(#f1)" points="2414,653,2495,653,2502,675.2969,2982,675.2969,2982,752,2414,752,2414,653" style="stroke: #000000; stroke-width: 2.0;"/><line style="stroke: #000000; stroke-width: 2.0;" x1="2414" x2="2502" y1="675.2969" y2="675.2969"/><text fill="#000000" font-family="sans-serif" font-size="14" font-weight="bold" lengthAdjust="spacingAndGlyphs" textLength="75" x="2418" y="667.9951">inventory</text><polygon fill="#FFFFFF" filter="url(#f1)" points="2579,75.5,2628,75.5,2635,97.7969,2712,97.7969,2712,190.5,2579,190.5,2579,75.5" style="stroke: #000000; stroke-width: 2.0;"/><line style="stroke: #000000; stroke-width: 2.0;" x1="2579" x2="2635" y1="97.7969" y2="97.7969"/><text fill="#000000" font-family="sans-serif" font-size="14" font-weight="bold" lengthAdjust="spacingAndGlyphs" textLength="43" x="2583" y="90.4951">index</text><polygon fill="#FFFFFF" filter="url(#f1)" points="2226,281,2270,281,2277,303.2969,2733,303.2969,2733,584,2226,584,2226,281" style="stroke: #000000; stroke-width: 2.0;"/><line style="stroke: #000000; stroke-width: 2.0;" x1="2226" x2="2277" y1="303.2969" y2="303.2969"/><text fill="#000000" font-family="sans-serif" font-size="14" font-weight="bold" lengthAdjust="spacingAndGlyphs" textLength="38" x="2230" y="295.9951">base</text><rect fill="#FEFECE" filter="url(#f1)" height="48" style="stroke: #A80036; stroke-width: 1.5;" width="79" x="2082.5" y="118.5"/><ellipse cx="2097.5" cy="134.5" fill="#ADD1B2" rx="11" ry="11" style="stroke: #A80036; stroke-width: 1.0;"/><path d="M2099.8438,130.1719 L2100.0156,130.25 C2100.2344,129.9375 2100.4375,129.8438 2100.7344,129.8438 C2101.0313,129.8438 2101.3125,129.9844 2101.4688,130.25 C2101.5625,130.4063 2101.5781,130.5313 2101.5781,130.9688 L2101.5781,132.3906 C2101.5781,132.8125 2101.5469,133 2101.4375,133.1563 C2101.2656,133.375 2101,133.5156 2100.7344,133.5156 C2100.5156,133.5156 2100.2813,133.4063 2100.1406,133.2656 C2100,133.1406 2099.9688,133.0156 2099.9063,132.6094 C2099.8125,132.2031 2099.6406,131.9844 2099.1563,131.7031 C2098.6875,131.4531 2098.0781,131.2969 2097.5,131.2969 C2095.7656,131.2969 2094.5156,132.6094 2094.5156,134.3906 L2094.5156,135.4844 C2094.5156,137.1875 2095.8125,138.2813 2097.8594,138.2813 C2098.625,138.2813 2099.3125,138.1563 2099.7344,137.8906 C2099.9219,137.7969 2099.9219,137.7969 2100.375,137.3125 C2100.5625,137.125 2100.7656,137.0469 2100.9844,137.0469 C2101.4531,137.0469 2101.8438,137.4375 2101.8438,137.8906 C2101.8438,138.2813 2101.5156,138.7344 2100.9375,139.1406 C2100.1875,139.6875 2099.0313,139.9844 2097.8125,139.9844 C2094.9219,139.9844 2092.8125,138.0938 2092.8125,135.5156 L2092.8125,134.3906 C2092.8125,131.6719 2094.8125,129.5938 2097.4375,129.5938 C2098.3125,129.5938 2098.9063,129.7344 2099.8438,130.1719 Z "/><text fill="#000000" font-family="sans-serif" font-size="12" lengthAdjust="spacingAndGlyphs" textLength="47" x="2111.5" y="138.6543">SQLite3</text><line style="stroke: #A80036; stroke-width: 1.5;" x1="2083.5" x2="2160.5" y1="150.5" y2="150.5"/><line style="stroke: #A80036; stroke-width: 1.5;" x1="2083.5" x2="2160.5" y1="158.5" y2="158.5"/><rect fill="#FEFECE" filter="url(#f1)" height="48" style="stroke: #A80036; stroke-width: 1.5;" width="93" x="1954.5" y="118.5"/><ellipse cx="1969.5" cy="134.5" fill="#ADD1B2" rx="11" ry="11" style="stroke: #A80036; stroke-width: 1.0;"/><path d="M1971.8438,130.1719 L1972.0156,130.25 C1972.2344,129.9375 1972.4375,129.8438 1972.7344,129.8438 C1973.0313,129.8438 1973.3125,129.9844 1973.4688,130.25 C1973.5625,130.4063 1973.5781,130.5313 1973.5781,130.9688 L1973.5781,132.3906 C1973.5781,132.8125 1973.5469,133 1973.4375,133.1563 C1973.2656,133.375 1973,133.5156 1972.7344,133.5156 C1972.5156,133.5156 1972.2813,133.4063 1972.1406,133.2656 C1972,133.1406 1971.9688,133.0156 1971.9063,132.6094 C1971.8125,132.2031 1971.6406,131.9844 1971.1563,131.7031 C1970.6875,131.4531 1970.0781,131.2969 1969.5,131.2969 C1967.7656,131.2969 1966.5156,132.6094 1966.5156,134.3906 L1966.5156,135.4844 C1966.5156,137.1875 1967.8125,138.2813 1969.8594,138.2813 C1970.625,138.2813 1971.3125,138.1563 1971.7344,137.8906 C1971.9219,137.7969 1971.9219,137.7969 1972.375,137.3125 C1972.5625,137.125 1972.7656,137.0469 1972.9844,137.0469 C1973.4531,137.0469 1973.8438,137.4375 1973.8438,137.8906 C1973.8438,138.2813 1973.5156,138.7344 1972.9375,139.1406 C1972.1875,139.6875 1971.0313,139.9844 1969.8125,139.9844 C1966.9219,139.9844 1964.8125,138.0938 1964.8125,135.5156 L1964.8125,134.3906 C1964.8125,131.6719 1966.8125,129.5938 1969.4375,129.5938 C1970.3125,129.5938 1970.9063,129.7344 1971.8438,130.1719 Z "/><text fill="#000000" font-family="sans-serif" font-size="12" lengthAdjust="spacingAndGlyphs" textLength="61" x="1983.5" y="138.6543">Database</text><line style="stroke: #A80036; stroke-width: 1.5;" x1="1955.5" x2="2046.5" y1="150.5" y2="150.5"/><line style="stroke: #A80036; stroke-width: 1.5;" x1="1955.5" x2="2046.5" y1="158.5" y2="158.5"/><rect fill="#FEFECE" filter="url(#f1)" height="150.4375" style="stroke: #A80036; stroke-width: 1.5;" width="144" x="86" y="265"/><ellipse cx="103.7" cy="281" fill="#ADD1B2" rx="11" ry="11" style="stroke: #A80036; stroke-width: 1.0;"/><path d="M106.0438,276.6719 L106.2156,276.75 C106.4344,276.4375 106.6375,276.3438 106.9344,276.3438 C107.2313,276.3438 107.5125,276.4844 107.6688,276.75 C107.7625,276.9063 107.7781,277.0313 107.7781,277.4688 L107.7781,278.8906 C107.7781,279.3125 107.7469,279.5 107.6375,279.6563 C107.4656,279.875 107.2,280.0156 106.9344,280.0156 C106.7156,280.0156 106.4813,279.9063 106.3406,279.7656 C106.2,279.6406 106.1688,279.5156 106.1063,279.1094 C106.0125,278.7031 105.8406,278.4844 105.3563,278.2031 C104.8875,277.9531 104.2781,277.7969 103.7,277.7969 C101.9656,277.7969 100.7156,279.1094 100.7156,280.8906 L100.7156,281.9844 C100.7156,283.6875 102.0125,284.7813 104.0594,284.7813 C104.825,284.7813 105.5125,284.6563 105.9344,284.3906 C106.1219,284.2969 106.1219,284.2969 106.575,283.8125 C106.7625,283.625 106.9656,283.5469 107.1844,283.5469 C107.6531,283.5469 108.0438,283.9375 108.0438,284.3906 C108.0438,284.7813 107.7156,285.2344 107.1375,285.6406 C106.3875,286.1875 105.2313,286.4844 104.0125,286.4844 C101.1219,286.4844 99.0125,284.5938 99.0125,282.0156 L99.0125,280.8906 C99.0125,278.1719 101.0125,276.0938 103.6375,276.0938 C104.5125,276.0938 105.1063,276.2344 106.0438,276.6719 Z "/><text fill="#000000" font-family="sans-serif" font-size="12" lengthAdjust="spacingAndGlyphs" textLength="106" x="118.3" y="285.1543">ProductInventory</text><line style="stroke: #A80036; stroke-width: 1.5;" x1="87" x2="229" y1="297" y2="297"/><line style="stroke: #A80036; stroke-width: 1.5;" x1="87" x2="229" y1="305" y2="305"/><text fill="#000000" font-family="sans-serif" font-size="11" lengthAdjust="spacingAndGlyphs" textLength="79" x="92" y="319.2104">str getName()</text><text fill="#000000" font-family="sans-serif" font-size="11" lengthAdjust="spacingAndGlyphs" textLength="102" x="92" y="332.0151">void setName(str)</text><text fill="#000000" font-family="sans-serif" font-size="11" lengthAdjust="spacingAndGlyphs" textLength="109" x="92" y="344.8198">float getCostPrice()</text><text fill="#000000" font-family="sans-serif" font-size="11" lengthAdjust="spacingAndGlyphs" textLength="132" x="92" y="357.6245">void setCostPrice(float)</text><text fill="#000000" font-family="sans-serif" font-size="11" lengthAdjust="spacingAndGlyphs" textLength="108" x="92" y="370.4292">float getSalePrice()</text><text fill="#000000" font-family="sans-serif" font-size="11" lengthAdjust="spacingAndGlyphs" textLength="131" x="92" y="383.2339">void setSalePrice(flaot)</text><text fill="#000000" font-family="sans-serif" font-size="11" lengthAdjust="spacingAndGlyphs" textLength="104" x="92" y="396.0386">int getStockLevel()</text><text fill="#000000" font-family="sans-serif" font-size="11" lengthAdjust="spacingAndGlyphs" textLength="127" x="92" y="408.8433">void setStockLevel(int)</text><rect fill="#FEFECE" filter="url(#f1)" height="48" style="stroke: #A80036; stroke-width: 1.5;" width="165" x="38.5" y="520"/><ellipse cx="53.5" cy="536" fill="#ADD1B2" rx="11" ry="11" style="stroke: #A80036; stroke-width: 1.0;"/><path d="M55.8438,531.6719 L56.0156,531.75 C56.2344,531.4375 56.4375,531.3438 56.7344,531.3438 C57.0313,531.3438 57.3125,531.4844 57.4688,531.75 C57.5625,531.9063 57.5781,532.0313 57.5781,532.4688 L57.5781,533.8906 C57.5781,534.3125 57.5469,534.5 57.4375,534.6563 C57.2656,534.875 57,535.0156 56.7344,535.0156 C56.5156,535.0156 56.2813,534.9063 56.1406,534.7656 C56,534.6406 55.9688,534.5156 55.9063,534.1094 C55.8125,533.7031 55.6406,533.4844 55.1563,533.2031 C54.6875,532.9531 54.0781,532.7969 53.5,532.7969 C51.7656,532.7969 50.5156,534.1094 50.5156,535.8906 L50.5156,536.9844 C50.5156,538.6875 51.8125,539.7813 53.8594,539.7813 C54.625,539.7813 55.3125,539.6563 55.7344,539.3906 C55.9219,539.2969 55.9219,539.2969 56.375,538.8125 C56.5625,538.625 56.7656,538.5469 56.9844,538.5469 C57.4531,538.5469 57.8438,538.9375 57.8438,539.3906 C57.8438,539.7813 57.5156,540.2344 56.9375,540.6406 C56.1875,541.1875 55.0313,541.4844 53.8125,541.4844 C50.9219,541.4844 48.8125,539.5938 48.8125,537.0156 L48.8125,535.8906 C48.8125,533.1719 50.8125,531.0938 53.4375,531.0938 C54.3125,531.0938 54.9063,531.2344 55.8438,531.6719 Z "/><text fill="#000000" font-family="sans-serif" font-size="12" lengthAdjust="spacingAndGlyphs" textLength="133" x="67.5" y="540.1543">ProductInventoryItem</text><line style="stroke: #A80036; stroke-width: 1.5;" x1="39.5" x2="202.5" y1="552" y2="552"/><line style="stroke: #A80036; stroke-width: 1.5;" x1="39.5" x2="202.5" y1="560" y2="560"/><rect fill="#FEFECE" filter="url(#f1)" height="137.6328" style="stroke: #A80036; stroke-width: 1.5;" width="297" x="238.5" y="475"/><ellipse cx="350.75" cy="491" fill="#ADD1B2" rx="11" ry="11" style="stroke: #A80036; stroke-width: 1.0;"/><path d="M353.0938,486.6719 L353.2656,486.75 C353.4844,486.4375 353.6875,486.3438 353.9844,486.3438 C354.2813,486.3438 354.5625,486.4844 354.7188,486.75 C354.8125,486.9063 354.8281,487.0313 354.8281,487.4688 L354.8281,488.8906 C354.8281,489.3125 354.7969,489.5 354.6875,489.6563 C354.5156,489.875 354.25,490.0156 353.9844,490.0156 C353.7656,490.0156 353.5313,489.9063 353.3906,489.7656 C353.25,489.6406 353.2188,489.5156 353.1563,489.1094 C353.0625,488.7031 352.8906,488.4844 352.4063,488.2031 C351.9375,487.9531 351.3281,487.7969 350.75,487.7969 C349.0156,487.7969 347.7656,489.1094 347.7656,490.8906 L347.7656,491.9844 C347.7656,493.6875 349.0625,494.7813 351.1094,494.7813 C351.875,494.7813 352.5625,494.6563 352.9844,494.3906 C353.1719,494.2969 353.1719,494.2969 353.625,493.8125 C353.8125,493.625 354.0156,493.5469 354.2344,493.5469 C354.7031,493.5469 355.0938,493.9375 355.0938,494.3906 C355.0938,494.7813 354.7656,495.2344 354.1875,495.6406 C353.4375,496.1875 352.2813,496.4844 351.0625,496.4844 C348.1719,496.4844 346.0625,494.5938 346.0625,492.0156 L346.0625,490.8906 C346.0625,488.1719 348.0625,486.0938 350.6875,486.0938 C351.5625,486.0938 352.1563,486.2344 353.0938,486.6719 Z "/><text fill="#000000" font-family="sans-serif" font-size="12" lengthAdjust="spacingAndGlyphs" textLength="64" x="371.25" y="495.1543">ItemModel</text><line style="stroke: #A80036; stroke-width: 1.5;" x1="239.5" x2="534.5" y1="507" y2="507"/><line style="stroke: #A80036; stroke-width: 1.5;" x1="239.5" x2="534.5" y1="515" y2="515"/><text fill="#000000" font-family="sans-serif" font-size="11" lengthAdjust="spacingAndGlyphs" textLength="285" x="244.5" y="529.2104">static ItemModel FromRowArray(table_model, row)</text><text fill="#000000" font-family="sans-serif" font-size="11" lengthAdjust="spacingAndGlyphs" textLength="240" x="244.5" y="542.0151">static ItemModel FromDB(table_model, pk)</text><text fill="#000000" font-family="sans-serif" font-size="11" lengthAdjust="spacingAndGlyphs" textLength="108" x="244.5" y="554.8198">int getPrimaryKey()</text><text fill="#000000" font-family="sans-serif" font-size="11" lengthAdjust="spacingAndGlyphs" textLength="105" x="244.5" y="567.6245">void insertIntoDB()</text><text fill="#000000" font-family="sans-serif" font-size="11" lengthAdjust="spacingAndGlyphs" textLength="115" x="244.5" y="580.4292">void deleteFromDB()</text><text fill="#000000" font-family="sans-serif" font-size="11" lengthAdjust="spacingAndGlyphs" textLength="138" x="244.5" y="593.2339">void pullValuesFromDB()</text><text fill="#000000" font-family="sans-serif" font-size="11" lengthAdjust="spacingAndGlyphs" textLength="131" x="244.5" y="606.0386">void pushValuesToDB()</text><rect fill="#FEFECE" filter="url(#f1)" height="60.8047" style="stroke: #A80036; stroke-width: 1.5;" width="191" x="265.5" y="309.5"/><ellipse cx="321.25" cy="325.5" fill="#ADD1B2" rx="11" ry="11" style="stroke: #A80036; stroke-width: 1.0;"/><path d="M323.5938,321.1719 L323.7656,321.25 C323.9844,320.9375 324.1875,320.8438 324.4844,320.8438 C324.7813,320.8438 325.0625,320.9844 325.2188,321.25 C325.3125,321.4063 325.3281,321.5313 325.3281,321.9688 L325.3281,323.3906 C325.3281,323.8125 325.2969,324 325.1875,324.1563 C325.0156,324.375 324.75,324.5156 324.4844,324.5156 C324.2656,324.5156 324.0313,324.4063 323.8906,324.2656 C323.75,324.1406 323.7188,324.0156 323.6563,323.6094 C323.5625,323.2031 323.3906,322.9844 322.9063,322.7031 C322.4375,322.4531 321.8281,322.2969 321.25,322.2969 C319.5156,322.2969 318.2656,323.6094 318.2656,325.3906 L318.2656,326.4844 C318.2656,328.1875 319.5625,329.2813 321.6094,329.2813 C322.375,329.2813 323.0625,329.1563 323.4844,328.8906 C323.6719,328.7969 323.6719,328.7969 324.125,328.3125 C324.3125,328.125 324.5156,328.0469 324.7344,328.0469 C325.2031,328.0469 325.5938,328.4375 325.5938,328.8906 C325.5938,329.2813 325.2656,329.7344 324.6875,330.1406 C323.9375,330.6875 322.7813,330.9844 321.5625,330.9844 C318.6719,330.9844 316.5625,329.0938 316.5625,326.5156 L316.5625,325.3906 C316.5625,322.6719 318.5625,320.5938 321.1875,320.5938 C322.0625,320.5938 322.6563,320.7344 323.5938,321.1719 Z "/><text fill="#000000" font-family="sans-serif" font-size="12" lengthAdjust="spacingAndGlyphs" textLength="71" x="341.75" y="329.6543">TableModel</text><line style="stroke: #A80036; stroke-width: 1.5;" x1="266.5" x2="455.5" y1="341.5" y2="341.5"/><line style="stroke: #A80036; stroke-width: 1.5;" x1="266.5" x2="455.5" y1="349.5" y2="349.5"/><text fill="#000000" font-family="sans-serif" font-size="11" lengthAdjust="spacingAndGlyphs" textLength="179" x="271.5" y="363.7104">ItemModel getItemByKey(int PK)</text><rect fill="#FEFECE" filter="url(#f1)" height="99.2188" style="stroke: #A80036; stroke-width: 1.5;" width="118" x="571" y="494.5"/><ellipse cx="611.65" cy="510.5" fill="#ADD1B2" rx="11" ry="11" style="stroke: #A80036; stroke-width: 1.0;"/><path d="M613.9938,506.1719 L614.1656,506.25 C614.3844,505.9375 614.5875,505.8438 614.8844,505.8438 C615.1813,505.8438 615.4625,505.9844 615.6188,506.25 C615.7125,506.4063 615.7281,506.5313 615.7281,506.9688 L615.7281,508.3906 C615.7281,508.8125 615.6969,509 615.5875,509.1563 C615.4156,509.375 615.15,509.5156 614.8844,509.5156 C614.6656,509.5156 614.4313,509.4063 614.2906,509.2656 C614.15,509.1406 614.1188,509.0156 614.0563,508.6094 C613.9625,508.2031 613.7906,507.9844 613.3063,507.7031 C612.8375,507.4531 612.2281,507.2969 611.65,507.2969 C609.9156,507.2969 608.6656,508.6094 608.6656,510.3906 L608.6656,511.4844 C608.6656,513.1875 609.9625,514.2813 612.0094,514.2813 C612.775,514.2813 613.4625,514.1563 613.8844,513.8906 C614.0719,513.7969 614.0719,513.7969 614.525,513.3125 C614.7125,513.125 614.9156,513.0469 615.1344,513.0469 C615.6031,513.0469 615.9938,513.4375 615.9938,513.8906 C615.9938,514.2813 615.6656,514.7344 615.0875,515.1406 C614.3375,515.6875 613.1813,515.9844 611.9625,515.9844 C609.0719,515.9844 606.9625,514.0938 606.9625,511.5156 L606.9625,510.3906 C606.9625,507.6719 608.9625,505.5938 611.5875,505.5938 C612.4625,505.5938 613.0563,505.7344 613.9938,506.1719 Z "/><text fill="#000000" font-family="sans-serif" font-size="12" lengthAdjust="spacingAndGlyphs" textLength="29" x="631.35" y="514.6543">User</text><line style="stroke: #A80036; stroke-width: 1.5;" x1="572" x2="688" y1="526.5" y2="526.5"/><text fill="#000000" font-family="sans-serif" font-size="11" lengthAdjust="spacingAndGlyphs" textLength="78" x="577" y="540.7104">str username</text><text fill="#000000" font-family="sans-serif" font-size="11" lengthAdjust="spacingAndGlyphs" textLength="76" x="577" y="553.5151">str password</text><line style="stroke: #A80036; stroke-width: 1.5;" x1="572" x2="688" y1="560.1094" y2="560.1094"/><text fill="#000000" font-family="sans-serif" font-size="11" lengthAdjust="spacingAndGlyphs" textLength="106" x="577" y="574.3198">str getUserName()</text><text fill="#000000" font-family="sans-serif" font-size="11" lengthAdjust="spacingAndGlyphs" textLength="102" x="577" y="587.1245">str getPassword()</text><rect fill="#FEFECE" filter="url(#f1)" height="86.4141" style="stroke: #A80036; stroke-width: 1.5;" width="197" x="491.5" y="297"/><ellipse cx="567.75" cy="313" fill="#ADD1B2" rx="11" ry="11" style="stroke: #A80036; stroke-width: 1.0;"/><path d="M570.0938,308.6719 L570.2656,308.75 C570.4844,308.4375 570.6875,308.3438 570.9844,308.3438 C571.2813,308.3438 571.5625,308.4844 571.7188,308.75 C571.8125,308.9063 571.8281,309.0313 571.8281,309.4688 L571.8281,310.8906 C571.8281,311.3125 571.7969,311.5 571.6875,311.6563 C571.5156,311.875 571.25,312.0156 570.9844,312.0156 C570.7656,312.0156 570.5313,311.9063 570.3906,311.7656 C570.25,311.6406 570.2188,311.5156 570.1563,311.1094 C570.0625,310.7031 569.8906,310.4844 569.4063,310.2031 C568.9375,309.9531 568.3281,309.7969 567.75,309.7969 C566.0156,309.7969 564.7656,311.1094 564.7656,312.8906 L564.7656,313.9844 C564.7656,315.6875 566.0625,316.7813 568.1094,316.7813 C568.875,316.7813 569.5625,316.6563 569.9844,316.3906 C570.1719,316.2969 570.1719,316.2969 570.625,315.8125 C570.8125,315.625 571.0156,315.5469 571.2344,315.5469 C571.7031,315.5469 572.0938,315.9375 572.0938,316.3906 C572.0938,316.7813 571.7656,317.2344 571.1875,317.6406 C570.4375,318.1875 569.2813,318.4844 568.0625,318.4844 C565.1719,318.4844 563.0625,316.5938 563.0625,314.0156 L563.0625,312.8906 C563.0625,310.1719 565.0625,308.0938 567.6875,308.0938 C568.5625,308.0938 569.1563,308.2344 570.0938,308.6719 Z "/><text fill="#000000" font-family="sans-serif" font-size="12" lengthAdjust="spacingAndGlyphs" textLength="36" x="588.25" y="317.1543">Users</text><line style="stroke: #A80036; stroke-width: 1.5;" x1="492.5" x2="687.5" y1="329" y2="329"/><line style="stroke: #A80036; stroke-width: 1.5;" x1="492.5" x2="687.5" y1="337" y2="337"/><text fill="#000000" font-family="sans-serif" font-size="11" lengthAdjust="spacingAndGlyphs" textLength="185" x="497.5" y="351.2104">bool login(username, password)</text><text fill="#000000" font-family="sans-serif" font-size="11" lengthAdjust="spacingAndGlyphs" textLength="97" x="497.5" y="364.0151">bool isLoggedIn()</text><text fill="#000000" font-family="sans-serif" font-size="11" lengthAdjust="spacingAndGlyphs" textLength="70" x="497.5" y="376.8198">void logout()</text><rect fill="#FEFECE" filter="url(#f1)" height="99.2188" style="stroke: #A80036; stroke-width: 1.5;" width="148" x="287" y="93"/><ellipse cx="311.9" cy="109" fill="#ADD1B2" rx="11" ry="11" style="stroke: #A80036; stroke-width: 1.0;"/><path d="M314.2438,104.6719 L314.4156,104.75 C314.6344,104.4375 314.8375,104.3438 315.1344,104.3438 C315.4313,104.3438 315.7125,104.4844 315.8688,104.75 C315.9625,104.9063 315.9781,105.0313 315.9781,105.4688 L315.9781,106.8906 C315.9781,107.3125 315.9469,107.5 315.8375,107.6563 C315.6656,107.875 315.4,108.0156 315.1344,108.0156 C314.9156,108.0156 314.6813,107.9063 314.5406,107.7656 C314.4,107.6406 314.3688,107.5156 314.3063,107.1094 C314.2125,106.7031 314.0406,106.4844 313.5563,106.2031 C313.0875,105.9531 312.4781,105.7969 311.9,105.7969 C310.1656,105.7969 308.9156,107.1094 308.9156,108.8906 L308.9156,109.9844 C308.9156,111.6875 310.2125,112.7813 312.2594,112.7813 C313.025,112.7813 313.7125,112.6563 314.1344,112.3906 C314.3219,112.2969 314.3219,112.2969 314.775,111.8125 C314.9625,111.625 315.1656,111.5469 315.3844,111.5469 C315.8531,111.5469 316.2438,111.9375 316.2438,112.3906 C316.2438,112.7813 315.9156,113.2344 315.3375,113.6406 C314.5875,114.1875 313.4313,114.4844 312.2125,114.4844 C309.3219,114.4844 307.2125,112.5938 307.2125,110.0156 L307.2125,108.8906 C307.2125,106.1719 309.2125,104.0938 311.8375,104.0938 C312.7125,104.0938 313.3063,104.2344 314.2438,104.6719 Z "/><text fill="#000000" font-family="sans-serif" font-size="12" lengthAdjust="spacingAndGlyphs" textLength="94" x="328.1" y="113.1543">PurchasedItem</text><line style="stroke: #A80036; stroke-width: 1.5;" x1="288" x2="434" y1="125" y2="125"/><line style="stroke: #A80036; stroke-width: 1.5;" x1="288" x2="434" y1="133" y2="133"/><text fill="#000000" font-family="sans-serif" font-size="11" lengthAdjust="spacingAndGlyphs" textLength="110" x="293" y="147.2104">DateTime getDate()</text><text fill="#000000" font-family="sans-serif" font-size="11" lengthAdjust="spacingAndGlyphs" textLength="133" x="293" y="160.0151">void setDate(DateTime)</text><text fill="#000000" font-family="sans-serif" font-size="11" lengthAdjust="spacingAndGlyphs" textLength="113" x="293" y="172.8198">int getID_inventory()</text><text fill="#000000" font-family="sans-serif" font-size="11" lengthAdjust="spacingAndGlyphs" textLength="136" x="293" y="185.6245">void setID_inventory(int)</text><rect fill="#FEFECE" filter="url(#f1)" height="86.4141" style="stroke: #A80036; stroke-width: 1.5;" width="436" x="1070" y="297"/><ellipse cx="1253.25" cy="313" fill="#ADD1B2" rx="11" ry="11" style="stroke: #A80036; stroke-width: 1.0;"/><path d="M1255.5938,308.6719 L1255.7656,308.75 C1255.9844,308.4375 1256.1875,308.3438 1256.4844,308.3438 C1256.7813,308.3438 1257.0625,308.4844 1257.2188,308.75 C1257.3125,308.9063 1257.3281,309.0313 1257.3281,309.4688 L1257.3281,310.8906 C1257.3281,311.3125 1257.2969,311.5 1257.1875,311.6563 C1257.0156,311.875 1256.75,312.0156 1256.4844,312.0156 C1256.2656,312.0156 1256.0313,311.9063 1255.8906,311.7656 C1255.75,311.6406 1255.7188,311.5156 1255.6563,311.1094 C1255.5625,310.7031 1255.3906,310.4844 1254.9063,310.2031 C1254.4375,309.9531 1253.8281,309.7969 1253.25,309.7969 C1251.5156,309.7969 1250.2656,311.1094 1250.2656,312.8906 L1250.2656,313.9844 C1250.2656,315.6875 1251.5625,316.7813 1253.6094,316.7813 C1254.375,316.7813 1255.0625,316.6563 1255.4844,316.3906 C1255.6719,316.2969 1255.6719,316.2969 1256.125,315.8125 C1256.3125,315.625 1256.5156,315.5469 1256.7344,315.5469 C1257.2031,315.5469 1257.5938,315.9375 1257.5938,316.3906 C1257.5938,316.7813 1257.2656,317.2344 1256.6875,317.6406 C1255.9375,318.1875 1254.7813,318.4844 1253.5625,318.4844 C1250.6719,318.4844 1248.5625,316.5938 1248.5625,314.0156 L1248.5625,312.8906 C1248.5625,310.1719 1250.5625,308.0938 1253.1875,308.0938 C1254.0625,308.0938 1254.6563,308.2344 1255.5938,308.6719 Z "/><text fill="#000000" font-family="sans-serif" font-size="12" lengthAdjust="spacingAndGlyphs" textLength="61" x="1273.75" y="317.1543">Controller</text><line style="stroke: #A80036; stroke-width: 1.5;" x1="1071" x2="1505" y1="329" y2="329"/><text fill="#000000" font-family="sans-serif" font-size="11" lengthAdjust="spacingAndGlyphs" textLength="170" x="1076" y="343.2104">url assigned to that controller</text><line style="stroke: #A80036; stroke-width: 1.0;" x1="1071" x2="1505" y1="349.8047" y2="349.8047"/><polygon fill="#FFFF44" points="1081,356.707,1085,360.707,1081,364.707,1077,360.707" style="stroke: #B38D22; stroke-width: 1.0;"/><text fill="#000000" font-family="sans-serif" font-size="11" lengthAdjust="spacingAndGlyphs" textLength="162" x="1090" y="364.0151">void requireLogin(return_uri)</text><text fill="#000000" font-family="sans-serif" font-size="11" lengthAdjust="spacingAndGlyphs" textLength="410" x="1090" y="376.8198">return_value[View or detail associated with return value] methodName()</text><polygon fill="#FBFB77" filter="url(#f1)" points="745.5,274.5,745.5,405.5625,1034.5,405.5625,1034.5,284.5,1024.5,274.5,745.5,274.5" style="stroke: #A80036; stroke-width: 1.0;"/><polygon fill="#FBFB77" points="745.5,274.5,745.5,405.5625,1034.5,405.5625,1034.5,344,1069.73,340,1034.5,336,1034.5,284.5,1024.5,274.5,745.5,274.5" style="stroke: #A80036; stroke-width: 1.0;"/><line style="stroke: #A80036; stroke-width: 1.0;" x1="1024.5" x2="1024.5" y1="274.5" y2="284.5"/><line style="stroke: #A80036; stroke-width: 1.0;" x1="1034.5" x2="1024.5" y1="284.5" y2="284.5"/><text fill="#000000" font-family="sans-serif" font-size="13" lengthAdjust="spacingAndGlyphs" textLength="268" x="751.5" y="291.5669">methodName also corresponds to the url,</text><text fill="#000000" font-family="sans-serif" font-size="13" lengthAdjust="spacingAndGlyphs" textLength="137" x="751.5" y="306.6997">so /controller/method</text><text fill="#000000" font-family="sans-serif" font-size="13" lengthAdjust="spacingAndGlyphs" textLength="0" x="755.5" y="321.8325"/><text fill="#000000" font-family="sans-serif" font-size="13" lengthAdjust="spacingAndGlyphs" textLength="146" x="751.5" y="336.9653">return values could be:</text><text fill="#000000" font-family="sans-serif" font-size="13" lengthAdjust="spacingAndGlyphs" textLength="38" x="755.5" y="352.0981">- html</text><text fill="#000000" font-family="sans-serif" font-size="13" lengthAdjust="spacingAndGlyphs" textLength="30" x="755.5" y="367.231">- css</text><text fill="#000000" font-family="sans-serif" font-size="13" lengthAdjust="spacingAndGlyphs" textLength="70" x="755.5" y="382.3638">- javascript</text><text fill="#000000" font-family="sans-serif" font-size="13" lengthAdjust="spacingAndGlyphs" textLength="77" x="755.5" y="397.4966">- redirection</text><rect fill="#FEFECE" filter="url(#f1)" height="86.4141" style="stroke: #A80036; stroke-width: 1.5;" width="310" x="887" y="501"/><ellipse cx="990.75" cy="517" fill="#ADD1B2" rx="11" ry="11" style="stroke: #A80036; stroke-width: 1.0;"/><path d="M993.0938,512.6719 L993.2656,512.75 C993.4844,512.4375 993.6875,512.3438 993.9844,512.3438 C994.2813,512.3438 994.5625,512.4844 994.7188,512.75 C994.8125,512.9063 994.8281,513.0313 994.8281,513.4688 L994.8281,514.8906 C994.8281,515.3125 994.7969,515.5 994.6875,515.6563 C994.5156,515.875 994.25,516.0156 993.9844,516.0156 C993.7656,516.0156 993.5313,515.9063 993.3906,515.7656 C993.25,515.6406 993.2188,515.5156 993.1563,515.1094 C993.0625,514.7031 992.8906,514.4844 992.4063,514.2031 C991.9375,513.9531 991.3281,513.7969 990.75,513.7969 C989.0156,513.7969 987.7656,515.1094 987.7656,516.8906 L987.7656,517.9844 C987.7656,519.6875 989.0625,520.7813 991.1094,520.7813 C991.875,520.7813 992.5625,520.6563 992.9844,520.3906 C993.1719,520.2969 993.1719,520.2969 993.625,519.8125 C993.8125,519.625 994.0156,519.5469 994.2344,519.5469 C994.7031,519.5469 995.0938,519.9375 995.0938,520.3906 C995.0938,520.7813 994.7656,521.2344 994.1875,521.6406 C993.4375,522.1875 992.2813,522.4844 991.0625,522.4844 C988.1719,522.4844 986.0625,520.5938 986.0625,518.0156 L986.0625,516.8906 C986.0625,514.1719 988.0625,512.0938 990.6875,512.0938 C991.5625,512.0938 992.1563,512.2344 993.0938,512.6719 Z "/><text fill="#000000" font-family="sans-serif" font-size="12" lengthAdjust="spacingAndGlyphs" textLength="94" x="1011.25" y="521.1543">LoginController</text><line style="stroke: #A80036; stroke-width: 1.5;" x1="888" x2="1196" y1="533" y2="533"/><text fill="#000000" font-family="sans-serif" font-size="11" lengthAdjust="spacingAndGlyphs" textLength="67" x="893" y="547.2104">url = /login/</text><line style="stroke: #A80036; stroke-width: 1.0;" x1="888" x2="1196" y1="553.8047" y2="553.8047"/><text fill="#000000" font-family="sans-serif" font-size="11" lengthAdjust="spacingAndGlyphs" textLength="298" x="893" y="568.0151">html[Login or redirection on POST from form] login()</text><text fill="#000000" font-family="sans-serif" font-size="11" lengthAdjust="spacingAndGlyphs" textLength="108" x="893" y="580.8198">redirection logout()</text><rect fill="#FEFECE" filter="url(#f1)" height="112.0234" style="stroke: #A80036; stroke-width: 1.5;" width="390" x="1232" y="488"/><ellipse cx="1363.75" cy="504" fill="#ADD1B2" rx="11" ry="11" style="stroke: #A80036; stroke-width: 1.0;"/><path d="M1366.0938,499.6719 L1366.2656,499.75 C1366.4844,499.4375 1366.6875,499.3438 1366.9844,499.3438 C1367.2813,499.3438 1367.5625,499.4844 1367.7188,499.75 C1367.8125,499.9063 1367.8281,500.0313 1367.8281,500.4688 L1367.8281,501.8906 C1367.8281,502.3125 1367.7969,502.5 1367.6875,502.6563 C1367.5156,502.875 1367.25,503.0156 1366.9844,503.0156 C1366.7656,503.0156 1366.5313,502.9063 1366.3906,502.7656 C1366.25,502.6406 1366.2188,502.5156 1366.1563,502.1094 C1366.0625,501.7031 1365.8906,501.4844 1365.4063,501.2031 C1364.9375,500.9531 1364.3281,500.7969 1363.75,500.7969 C1362.0156,500.7969 1360.7656,502.1094 1360.7656,503.8906 L1360.7656,504.9844 C1360.7656,506.6875 1362.0625,507.7813 1364.1094,507.7813 C1364.875,507.7813 1365.5625,507.6563 1365.9844,507.3906 C1366.1719,507.2969 1366.1719,507.2969 1366.625,506.8125 C1366.8125,506.625 1367.0156,506.5469 1367.2344,506.5469 C1367.7031,506.5469 1368.0938,506.9375 1368.0938,507.3906 C1368.0938,507.7813 1367.7656,508.2344 1367.1875,508.6406 C1366.4375,509.1875 1365.2813,509.4844 1364.0625,509.4844 C1361.1719,509.4844 1359.0625,507.5938 1359.0625,505.0156 L1359.0625,503.8906 C1359.0625,501.1719 1361.0625,499.0938 1363.6875,499.0938 C1364.5625,499.0938 1365.1563,499.2344 1366.0938,499.6719 Z "/><text fill="#000000" font-family="sans-serif" font-size="12" lengthAdjust="spacingAndGlyphs" textLength="118" x="1384.25" y="508.1543">InventoryController</text><line style="stroke: #A80036; stroke-width: 1.5;" x1="1233" x2="1621" y1="520" y2="520"/><text fill="#000000" font-family="sans-serif" font-size="11" lengthAdjust="spacingAndGlyphs" textLength="92" x="1238" y="534.2104">url = /inventory/</text><line style="stroke: #A80036; stroke-width: 1.0;" x1="1233" x2="1621" y1="540.8047" y2="540.8047"/><text fill="#000000" font-family="sans-serif" font-size="11" lengthAdjust="spacingAndGlyphs" textLength="378" x="1238" y="555.0151">html[NewInventoryItem] or redirect[on POST from form] NewItem()</text><text fill="#000000" font-family="sans-serif" font-size="11" lengthAdjust="spacingAndGlyphs" textLength="375" x="1238" y="567.8198">html[NewInventoryItem] or redirect[on POST from form] EditItem()</text><text fill="#000000" font-family="sans-serif" font-size="11" lengthAdjust="spacingAndGlyphs" textLength="231" x="1238" y="580.6245">html[InventoryItemTable] ViewInventory()</text><text fill="#000000" font-family="sans-serif" font-size="11" lengthAdjust="spacingAndGlyphs" textLength="117" x="1238" y="593.4292">redirect DeleteItem()</text><rect fill="#FEFECE" filter="url(#f1)" height="73.6094" style="stroke: #A80036; stroke-width: 1.5;" width="219" x="1541.5" y="303"/><ellipse cx="1595.25" cy="319" fill="#ADD1B2" rx="11" ry="11" style="stroke: #A80036; stroke-width: 1.0;"/><path d="M1597.5938,314.6719 L1597.7656,314.75 C1597.9844,314.4375 1598.1875,314.3438 1598.4844,314.3438 C1598.7813,314.3438 1599.0625,314.4844 1599.2188,314.75 C1599.3125,314.9063 1599.3281,315.0313 1599.3281,315.4688 L1599.3281,316.8906 C1599.3281,317.3125 1599.2969,317.5 1599.1875,317.6563 C1599.0156,317.875 1598.75,318.0156 1598.4844,318.0156 C1598.2656,318.0156 1598.0313,317.9063 1597.8906,317.7656 C1597.75,317.6406 1597.7188,317.5156 1597.6563,317.1094 C1597.5625,316.7031 1597.3906,316.4844 1596.9063,316.2031 C1596.4375,315.9531 1595.8281,315.7969 1595.25,315.7969 C1593.5156,315.7969 1592.2656,317.1094 1592.2656,318.8906 L1592.2656,319.9844 C1592.2656,321.6875 1593.5625,322.7813 1595.6094,322.7813 C1596.375,322.7813 1597.0625,322.6563 1597.4844,322.3906 C1597.6719,322.2969 1597.6719,322.2969 1598.125,321.8125 C1598.3125,321.625 1598.5156,321.5469 1598.7344,321.5469 C1599.2031,321.5469 1599.5938,321.9375 1599.5938,322.3906 C1599.5938,322.7813 1599.2656,323.2344 1598.6875,323.6406 C1597.9375,324.1875 1596.7813,324.4844 1595.5625,324.4844 C1592.6719,324.4844 1590.5625,322.5938 1590.5625,320.0156 L1590.5625,318.8906 C1590.5625,316.1719 1592.5625,314.0938 1595.1875,314.0938 C1596.0625,314.0938 1596.6563,314.2344 1597.5938,314.6719 Z "/><text fill="#000000" font-family="sans-serif" font-size="12" lengthAdjust="spacingAndGlyphs" textLength="103" x="1615.75" y="323.1543">ReportController</text><line style="stroke: #A80036; stroke-width: 1.5;" x1="1542.5" x2="1759.5" y1="335" y2="335"/><text fill="#000000" font-family="sans-serif" font-size="11" lengthAdjust="spacingAndGlyphs" textLength="75" x="1547.5" y="349.2104">url = /report/</text><line style="stroke: #A80036; stroke-width: 1.0;" x1="1542.5" x2="1759.5" y1="355.8047" y2="355.8047"/><text fill="#000000" font-family="sans-serif" font-size="11" lengthAdjust="spacingAndGlyphs" textLength="207" x="1547.5" y="370.0151">html[StockReport] ViewStockReport()</text><rect fill="#FEFECE" filter="url(#f1)" height="124.8281" style="stroke: #A80036; stroke-width: 1.5;" width="277" x="1149.5" y="80"/><ellipse cx="1215.25" cy="96" fill="#ADD1B2" rx="11" ry="11" style="stroke: #A80036; stroke-width: 1.0;"/><path d="M1217.5938,91.6719 L1217.7656,91.75 C1217.9844,91.4375 1218.1875,91.3438 1218.4844,91.3438 C1218.7813,91.3438 1219.0625,91.4844 1219.2188,91.75 C1219.3125,91.9063 1219.3281,92.0313 1219.3281,92.4688 L1219.3281,93.8906 C1219.3281,94.3125 1219.2969,94.5 1219.1875,94.6563 C1219.0156,94.875 1218.75,95.0156 1218.4844,95.0156 C1218.2656,95.0156 1218.0313,94.9063 1217.8906,94.7656 C1217.75,94.6406 1217.7188,94.5156 1217.6563,94.1094 C1217.5625,93.7031 1217.3906,93.4844 1216.9063,93.2031 C1216.4375,92.9531 1215.8281,92.7969 1215.25,92.7969 C1213.5156,92.7969 1212.2656,94.1094 1212.2656,95.8906 L1212.2656,96.9844 C1212.2656,98.6875 1213.5625,99.7813 1215.6094,99.7813 C1216.375,99.7813 1217.0625,99.6563 1217.4844,99.3906 C1217.6719,99.2969 1217.6719,99.2969 1218.125,98.8125 C1218.3125,98.625 1218.5156,98.5469 1218.7344,98.5469 C1219.2031,98.5469 1219.5938,98.9375 1219.5938,99.3906 C1219.5938,99.7813 1219.2656,100.2344 1218.6875,100.6406 C1217.9375,101.1875 1216.7813,101.4844 1215.5625,101.4844 C1212.6719,101.4844 1210.5625,99.5938 1210.5625,97.0156 L1210.5625,95.8906 C1210.5625,93.1719 1212.5625,91.0938 1215.1875,91.0938 C1216.0625,91.0938 1216.6563,91.2344 1217.5938,91.6719 Z "/><text fill="#000000" font-family="sans-serif" font-size="12" lengthAdjust="spacingAndGlyphs" textLength="137" x="1235.75" y="100.1543">SalesReportController</text><line style="stroke: #A80036; stroke-width: 1.5;" x1="1150.5" x2="1425.5" y1="112" y2="112"/><text fill="#000000" font-family="sans-serif" font-size="11" lengthAdjust="spacingAndGlyphs" textLength="106" x="1155.5" y="126.2104">url = /salesreport/</text><line style="stroke: #A80036; stroke-width: 1.5;" x1="1150.5" x2="1425.5" y1="132.8047" y2="132.8047"/><text fill="#000000" font-family="sans-serif" font-size="11" lengthAdjust="spacingAndGlyphs" textLength="265" x="1155.5" y="147.0151">html[SalesIncomeReport] SalesIncomeReport()</text><text fill="#000000" font-family="sans-serif" font-size="11" lengthAdjust="spacingAndGlyphs" textLength="183" x="1155.5" y="159.8198">html[SalesReport] SalesReport()</text><text fill="#000000" font-family="sans-serif" font-size="11" lengthAdjust="spacingAndGlyphs" textLength="245" x="1155.5" y="172.6245">html[SalesStockReport] SalesStockReport()</text><text fill="#000000" font-family="sans-serif" font-size="11" lengthAdjust="spacingAndGlyphs" textLength="223" x="1155.5" y="185.4292">html[MostSoldReport] MostSoldReport()</text><text fill="#000000" font-family="sans-serif" font-size="11" lengthAdjust="spacingAndGlyphs" textLength="231" x="1155.5" y="198.2339">html[LeastSoldReport] LeastSoldReport()</text><rect fill="#FEFECE" filter="url(#f1)" height="48" style="stroke: #A80036; stroke-width: 1.5;" width="62" x="2312" y="688"/><ellipse cx="2327" cy="704" fill="#ADD1B2" rx="11" ry="11" style="stroke: #A80036; stroke-width: 1.0;"/><path d="M2329.3438,699.6719 L2329.5156,699.75 C2329.7344,699.4375 2329.9375,699.3438 2330.2344,699.3438 C2330.5313,699.3438 2330.8125,699.4844 2330.9688,699.75 C2331.0625,699.9063 2331.0781,700.0313 2331.0781,700.4688 L2331.0781,701.8906 C2331.0781,702.3125 2331.0469,702.5 2330.9375,702.6563 C2330.7656,702.875 2330.5,703.0156 2330.2344,703.0156 C2330.0156,703.0156 2329.7813,702.9063 2329.6406,702.7656 C2329.5,702.6406 2329.4688,702.5156 2329.4063,702.1094 C2329.3125,701.7031 2329.1406,701.4844 2328.6563,701.2031 C2328.1875,700.9531 2327.5781,700.7969 2327,700.7969 C2325.2656,700.7969 2324.0156,702.1094 2324.0156,703.8906 L2324.0156,704.9844 C2324.0156,706.6875 2325.3125,707.7813 2327.3594,707.7813 C2328.125,707.7813 2328.8125,707.6563 2329.2344,707.3906 C2329.4219,707.2969 2329.4219,707.2969 2329.875,706.8125 C2330.0625,706.625 2330.2656,706.5469 2330.4844,706.5469 C2330.9531,706.5469 2331.3438,706.9375 2331.3438,707.3906 C2331.3438,707.7813 2331.0156,708.2344 2330.4375,708.6406 C2329.6875,709.1875 2328.5313,709.4844 2327.3125,709.4844 C2324.4219,709.4844 2322.3125,707.5938 2322.3125,705.0156 L2322.3125,703.8906 C2322.3125,701.1719 2324.3125,699.0938 2326.9375,699.0938 C2327.8125,699.0938 2328.4063,699.2344 2329.3438,699.6719 Z "/><text fill="#000000" font-family="sans-serif" font-size="12" lengthAdjust="spacingAndGlyphs" textLength="30" x="2341" y="708.1543">login</text><line style="stroke: #A80036; stroke-width: 1.5;" x1="2313" x2="2373" y1="720" y2="720"/><line style="stroke: #A80036; stroke-width: 1.5;" x1="2313" x2="2373" y1="728" y2="728"/><rect fill="#FEFECE" filter="url(#f1)" height="48" style="stroke: #A80036; stroke-width: 1.5;" width="142" x="3757" y="520"/><ellipse cx="3772" cy="536" fill="#ADD1B2" rx="11" ry="11" style="stroke: #A80036; stroke-width: 1.0;"/><path d="M3774.3438,531.6719 L3774.5156,531.75 C3774.7344,531.4375 3774.9375,531.3438 3775.2344,531.3438 C3775.5313,531.3438 3775.8125,531.4844 3775.9688,531.75 C3776.0625,531.9063 3776.0781,532.0313 3776.0781,532.4688 L3776.0781,533.8906 C3776.0781,534.3125 3776.0469,534.5 3775.9375,534.6563 C3775.7656,534.875 3775.5,535.0156 3775.2344,535.0156 C3775.0156,535.0156 3774.7813,534.9063 3774.6406,534.7656 C3774.5,534.6406 3774.4688,534.5156 3774.4063,534.1094 C3774.3125,533.7031 3774.1406,533.4844 3773.6563,533.2031 C3773.1875,532.9531 3772.5781,532.7969 3772,532.7969 C3770.2656,532.7969 3769.0156,534.1094 3769.0156,535.8906 L3769.0156,536.9844 C3769.0156,538.6875 3770.3125,539.7813 3772.3594,539.7813 C3773.125,539.7813 3773.8125,539.6563 3774.2344,539.3906 C3774.4219,539.2969 3774.4219,539.2969 3774.875,538.8125 C3775.0625,538.625 3775.2656,538.5469 3775.4844,538.5469 C3775.9531,538.5469 3776.3438,538.9375 3776.3438,539.3906 C3776.3438,539.7813 3776.0156,540.2344 3775.4375,540.6406 C3774.6875,541.1875 3773.5313,541.4844 3772.3125,541.4844 C3769.4219,541.4844 3767.3125,539.5938 3767.3125,537.0156 L3767.3125,535.8906 C3767.3125,533.1719 3769.3125,531.0938 3771.9375,531.0938 C3772.8125,531.0938 3773.4063,531.2344 3774.3438,531.6719 Z "/><text fill="#000000" font-family="sans-serif" font-size="12" lengthAdjust="spacingAndGlyphs" textLength="110" x="3786" y="540.1543">new_stock_report</text><line style="stroke: #A80036; stroke-width: 1.5;" x1="3758" x2="3898" y1="552" y2="552"/><line style="stroke: #A80036; stroke-width: 1.5;" x1="3758" x2="3898" y1="560" y2="560"/><rect fill="#FEFECE" filter="url(#f1)" height="48" style="stroke: #A80036; stroke-width: 1.5;" width="111" x="3610.5" y="520"/><ellipse cx="3625.5" cy="536" fill="#ADD1B2" rx="11" ry="11" style="stroke: #A80036; stroke-width: 1.0;"/><path d="M3627.8438,531.6719 L3628.0156,531.75 C3628.2344,531.4375 3628.4375,531.3438 3628.7344,531.3438 C3629.0313,531.3438 3629.3125,531.4844 3629.4688,531.75 C3629.5625,531.9063 3629.5781,532.0313 3629.5781,532.4688 L3629.5781,533.8906 C3629.5781,534.3125 3629.5469,534.5 3629.4375,534.6563 C3629.2656,534.875 3629,535.0156 3628.7344,535.0156 C3628.5156,535.0156 3628.2813,534.9063 3628.1406,534.7656 C3628,534.6406 3627.9688,534.5156 3627.9063,534.1094 C3627.8125,533.7031 3627.6406,533.4844 3627.1563,533.2031 C3626.6875,532.9531 3626.0781,532.7969 3625.5,532.7969 C3623.7656,532.7969 3622.5156,534.1094 3622.5156,535.8906 L3622.5156,536.9844 C3622.5156,538.6875 3623.8125,539.7813 3625.8594,539.7813 C3626.625,539.7813 3627.3125,539.6563 3627.7344,539.3906 C3627.9219,539.2969 3627.9219,539.2969 3628.375,538.8125 C3628.5625,538.625 3628.7656,538.5469 3628.9844,538.5469 C3629.4531,538.5469 3629.8438,538.9375 3629.8438,539.3906 C3629.8438,539.7813 3629.5156,540.2344 3628.9375,540.6406 C3628.1875,541.1875 3627.0313,541.4844 3625.8125,541.4844 C3622.9219,541.4844 3620.8125,539.5938 3620.8125,537.0156 L3620.8125,535.8906 C3620.8125,533.1719 3622.8125,531.0938 3625.4375,531.0938 C3626.3125,531.0938 3626.9063,531.2344 3627.8438,531.6719 Z "/><text fill="#000000" font-family="sans-serif" font-size="12" lengthAdjust="spacingAndGlyphs" textLength="79" x="3639.5" y="540.1543">stock_report</text><line style="stroke: #A80036; stroke-width: 1.5;" x1="3611.5" x2="3720.5" y1="552" y2="552"/><line style="stroke: #A80036; stroke-width: 1.5;" x1="3611.5" x2="3720.5" y1="560" y2="560"/><rect fill="#FEFECE" filter="url(#f1)" height="48" style="stroke: #A80036; stroke-width: 1.5;" width="140" x="3435" y="520"/><ellipse cx="3450" cy="536" fill="#ADD1B2" rx="11" ry="11" style="stroke: #A80036; stroke-width: 1.0;"/><path d="M3452.3438,531.6719 L3452.5156,531.75 C3452.7344,531.4375 3452.9375,531.3438 3453.2344,531.3438 C3453.5313,531.3438 3453.8125,531.4844 3453.9688,531.75 C3454.0625,531.9063 3454.0781,532.0313 3454.0781,532.4688 L3454.0781,533.8906 C3454.0781,534.3125 3454.0469,534.5 3453.9375,534.6563 C3453.7656,534.875 3453.5,535.0156 3453.2344,535.0156 C3453.0156,535.0156 3452.7813,534.9063 3452.6406,534.7656 C3452.5,534.6406 3452.4688,534.5156 3452.4063,534.1094 C3452.3125,533.7031 3452.1406,533.4844 3451.6563,533.2031 C3451.1875,532.9531 3450.5781,532.7969 3450,532.7969 C3448.2656,532.7969 3447.0156,534.1094 3447.0156,535.8906 L3447.0156,536.9844 C3447.0156,538.6875 3448.3125,539.7813 3450.3594,539.7813 C3451.125,539.7813 3451.8125,539.6563 3452.2344,539.3906 C3452.4219,539.2969 3452.4219,539.2969 3452.875,538.8125 C3453.0625,538.625 3453.2656,538.5469 3453.4844,538.5469 C3453.9531,538.5469 3454.3438,538.9375 3454.3438,539.3906 C3454.3438,539.7813 3454.0156,540.2344 3453.4375,540.6406 C3452.6875,541.1875 3451.5313,541.4844 3450.3125,541.4844 C3447.4219,541.4844 3445.3125,539.5938 3445.3125,537.0156 L3445.3125,535.8906 C3445.3125,533.1719 3447.3125,531.0938 3449.9375,531.0938 C3450.8125,531.0938 3451.4063,531.2344 3452.3438,531.6719 Z "/><text fill="#000000" font-family="sans-serif" font-size="12" lengthAdjust="spacingAndGlyphs" textLength="108" x="3464" y="540.1543">most_sold_report</text><line style="stroke: #A80036; stroke-width: 1.5;" x1="3436" x2="3574" y1="552" y2="552"/><line style="stroke: #A80036; stroke-width: 1.5;" x1="3436" x2="3574" y1="560" y2="560"/><rect fill="#FEFECE" filter="url(#f1)" height="48" style="stroke: #A80036; stroke-width: 1.5;" width="140" x="3260" y="520"/><ellipse cx="3275" cy="536" fill="#ADD1B2" rx="11" ry="11" style="stroke: #A80036; stroke-width: 1.0;"/><path d="M3277.3438,531.6719 L3277.5156,531.75 C3277.7344,531.4375 3277.9375,531.3438 3278.2344,531.3438 C3278.5313,531.3438 3278.8125,531.4844 3278.9688,531.75 C3279.0625,531.9063 3279.0781,532.0313 3279.0781,532.4688 L3279.0781,533.8906 C3279.0781,534.3125 3279.0469,534.5 3278.9375,534.6563 C3278.7656,534.875 3278.5,535.0156 3278.2344,535.0156 C3278.0156,535.0156 3277.7813,534.9063 3277.6406,534.7656 C3277.5,534.6406 3277.4688,534.5156 3277.4063,534.1094 C3277.3125,533.7031 3277.1406,533.4844 3276.6563,533.2031 C3276.1875,532.9531 3275.5781,532.7969 3275,532.7969 C3273.2656,532.7969 3272.0156,534.1094 3272.0156,535.8906 L3272.0156,536.9844 C3272.0156,538.6875 3273.3125,539.7813 3275.3594,539.7813 C3276.125,539.7813 3276.8125,539.6563 3277.2344,539.3906 C3277.4219,539.2969 3277.4219,539.2969 3277.875,538.8125 C3278.0625,538.625 3278.2656,538.5469 3278.4844,538.5469 C3278.9531,538.5469 3279.3438,538.9375 3279.3438,539.3906 C3279.3438,539.7813 3279.0156,540.2344 3278.4375,540.6406 C3277.6875,541.1875 3276.5313,541.4844 3275.3125,541.4844 C3272.4219,541.4844 3270.3125,539.5938 3270.3125,537.0156 L3270.3125,535.8906 C3270.3125,533.1719 3272.3125,531.0938 3274.9375,531.0938 C3275.8125,531.0938 3276.4063,531.2344 3277.3438,531.6719 Z "/><text fill="#000000" font-family="sans-serif" font-size="12" lengthAdjust="spacingAndGlyphs" textLength="108" x="3289" y="540.1543">least_sold_report</text><line style="stroke: #A80036; stroke-width: 1.5;" x1="3261" x2="3399" y1="552" y2="552"/><line style="stroke: #A80036; stroke-width: 1.5;" x1="3261" x2="3399" y1="560" y2="560"/><rect fill="#FEFECE" filter="url(#f1)" height="48" style="stroke: #A80036; stroke-width: 1.5;" width="122" x="3103" y="520"/><ellipse cx="3118" cy="536" fill="#ADD1B2" rx="11" ry="11" style="stroke: #A80036; stroke-width: 1.0;"/><path d="M3120.3438,531.6719 L3120.5156,531.75 C3120.7344,531.4375 3120.9375,531.3438 3121.2344,531.3438 C3121.5313,531.3438 3121.8125,531.4844 3121.9688,531.75 C3122.0625,531.9063 3122.0781,532.0313 3122.0781,532.4688 L3122.0781,533.8906 C3122.0781,534.3125 3122.0469,534.5 3121.9375,534.6563 C3121.7656,534.875 3121.5,535.0156 3121.2344,535.0156 C3121.0156,535.0156 3120.7813,534.9063 3120.6406,534.7656 C3120.5,534.6406 3120.4688,534.5156 3120.4063,534.1094 C3120.3125,533.7031 3120.1406,533.4844 3119.6563,533.2031 C3119.1875,532.9531 3118.5781,532.7969 3118,532.7969 C3116.2656,532.7969 3115.0156,534.1094 3115.0156,535.8906 L3115.0156,536.9844 C3115.0156,538.6875 3116.3125,539.7813 3118.3594,539.7813 C3119.125,539.7813 3119.8125,539.6563 3120.2344,539.3906 C3120.4219,539.2969 3120.4219,539.2969 3120.875,538.8125 C3121.0625,538.625 3121.2656,538.5469 3121.4844,538.5469 C3121.9531,538.5469 3122.3438,538.9375 3122.3438,539.3906 C3122.3438,539.7813 3122.0156,540.2344 3121.4375,540.6406 C3120.6875,541.1875 3119.5313,541.4844 3118.3125,541.4844 C3115.4219,541.4844 3113.3125,539.5938 3113.3125,537.0156 L3113.3125,535.8906 C3113.3125,533.1719 3115.3125,531.0938 3117.9375,531.0938 C3118.8125,531.0938 3119.4063,531.2344 3120.3438,531.6719 Z "/><text fill="#000000" font-family="sans-serif" font-size="12" lengthAdjust="spacingAndGlyphs" textLength="90" x="3132" y="540.1543">income_report</text><line style="stroke: #A80036; stroke-width: 1.5;" x1="3104" x2="3224" y1="552" y2="552"/><line style="stroke: #A80036; stroke-width: 1.5;" x1="3104" x2="3224" y1="560" y2="560"/><rect fill="#FEFECE" filter="url(#f1)" height="48" style="stroke: #A80036; stroke-width: 1.5;" width="150" x="2918" y="520"/><ellipse cx="2933" cy="536" fill="#ADD1B2" rx="11" ry="11" style="stroke: #A80036; stroke-width: 1.0;"/><path d="M2935.3438,531.6719 L2935.5156,531.75 C2935.7344,531.4375 2935.9375,531.3438 2936.2344,531.3438 C2936.5313,531.3438 2936.8125,531.4844 2936.9688,531.75 C2937.0625,531.9063 2937.0781,532.0313 2937.0781,532.4688 L2937.0781,533.8906 C2937.0781,534.3125 2937.0469,534.5 2936.9375,534.6563 C2936.7656,534.875 2936.5,535.0156 2936.2344,535.0156 C2936.0156,535.0156 2935.7813,534.9063 2935.6406,534.7656 C2935.5,534.6406 2935.4688,534.5156 2935.4063,534.1094 C2935.3125,533.7031 2935.1406,533.4844 2934.6563,533.2031 C2934.1875,532.9531 2933.5781,532.7969 2933,532.7969 C2931.2656,532.7969 2930.0156,534.1094 2930.0156,535.8906 L2930.0156,536.9844 C2930.0156,538.6875 2931.3125,539.7813 2933.3594,539.7813 C2934.125,539.7813 2934.8125,539.6563 2935.2344,539.3906 C2935.4219,539.2969 2935.4219,539.2969 2935.875,538.8125 C2936.0625,538.625 2936.2656,538.5469 2936.4844,538.5469 C2936.9531,538.5469 2937.3438,538.9375 2937.3438,539.3906 C2937.3438,539.7813 2937.0156,540.2344 2936.4375,540.6406 C2935.6875,541.1875 2934.5313,541.4844 2933.3125,541.4844 C2930.4219,541.4844 2928.3125,539.5938 2928.3125,537.0156 L2928.3125,535.8906 C2928.3125,533.1719 2930.3125,531.0938 2932.9375,531.0938 C2933.8125,531.0938 2934.4063,531.2344 2935.3438,531.6719 Z "/><text fill="#000000" font-family="sans-serif" font-size="12" lengthAdjust="spacingAndGlyphs" textLength="118" x="2947" y="540.1543">sales_stock_report</text><line style="stroke: #A80036; stroke-width: 1.5;" x1="2919" x2="3067" y1="552" y2="552"/><line style="stroke: #A80036; stroke-width: 1.5;" x1="2919" x2="3067" y1="560" y2="560"/><rect fill="#FEFECE" filter="url(#f1)" height="48" style="stroke: #A80036; stroke-width: 1.5;" width="110" x="2773" y="520"/><ellipse cx="2788" cy="536" fill="#ADD1B2" rx="11" ry="11" style="stroke: #A80036; stroke-width: 1.0;"/><path d="M2790.3438,531.6719 L2790.5156,531.75 C2790.7344,531.4375 2790.9375,531.3438 2791.2344,531.3438 C2791.5313,531.3438 2791.8125,531.4844 2791.9688,531.75 C2792.0625,531.9063 2792.0781,532.0313 2792.0781,532.4688 L2792.0781,533.8906 C2792.0781,534.3125 2792.0469,534.5 2791.9375,534.6563 C2791.7656,534.875 2791.5,535.0156 2791.2344,535.0156 C2791.0156,535.0156 2790.7813,534.9063 2790.6406,534.7656 C2790.5,534.6406 2790.4688,534.5156 2790.4063,534.1094 C2790.3125,533.7031 2790.1406,533.4844 2789.6563,533.2031 C2789.1875,532.9531 2788.5781,532.7969 2788,532.7969 C2786.2656,532.7969 2785.0156,534.1094 2785.0156,535.8906 L2785.0156,536.9844 C2785.0156,538.6875 2786.3125,539.7813 2788.3594,539.7813 C2789.125,539.7813 2789.8125,539.6563 2790.2344,539.3906 C2790.4219,539.2969 2790.4219,539.2969 2790.875,538.8125 C2791.0625,538.625 2791.2656,538.5469 2791.4844,538.5469 C2791.9531,538.5469 2792.3438,538.9375 2792.3438,539.3906 C2792.3438,539.7813 2792.0156,540.2344 2791.4375,540.6406 C2790.6875,541.1875 2789.5313,541.4844 2788.3125,541.4844 C2785.4219,541.4844 2783.3125,539.5938 2783.3125,537.0156 L2783.3125,535.8906 C2783.3125,533.1719 2785.3125,531.0938 2787.9375,531.0938 C2788.8125,531.0938 2789.4063,531.2344 2790.3438,531.6719 Z "/><text fill="#000000" font-family="sans-serif" font-size="12" lengthAdjust="spacingAndGlyphs" textLength="78" x="2802" y="540.1543">sales_report</text><line style="stroke: #A80036; stroke-width: 1.5;" x1="2774" x2="2882" y1="552" y2="552"/><line style="stroke: #A80036; stroke-width: 1.5;" x1="2774" x2="2882" y1="560" y2="560"/><rect fill="#FEFECE" filter="url(#f1)" height="48" style="stroke: #A80036; stroke-width: 1.5;" width="152" x="2619" y="688"/><ellipse cx="2634" cy="704" fill="#ADD1B2" rx="11" ry="11" style="stroke: #A80036; stroke-width: 1.0;"/><path d="M2636.3438,699.6719 L2636.5156,699.75 C2636.7344,699.4375 2636.9375,699.3438 2637.2344,699.3438 C2637.5313,699.3438 2637.8125,699.4844 2637.9688,699.75 C2638.0625,699.9063 2638.0781,700.0313 2638.0781,700.4688 L2638.0781,701.8906 C2638.0781,702.3125 2638.0469,702.5 2637.9375,702.6563 C2637.7656,702.875 2637.5,703.0156 2637.2344,703.0156 C2637.0156,703.0156 2636.7813,702.9063 2636.6406,702.7656 C2636.5,702.6406 2636.4688,702.5156 2636.4063,702.1094 C2636.3125,701.7031 2636.1406,701.4844 2635.6563,701.2031 C2635.1875,700.9531 2634.5781,700.7969 2634,700.7969 C2632.2656,700.7969 2631.0156,702.1094 2631.0156,703.8906 L2631.0156,704.9844 C2631.0156,706.6875 2632.3125,707.7813 2634.3594,707.7813 C2635.125,707.7813 2635.8125,707.6563 2636.2344,707.3906 C2636.4219,707.2969 2636.4219,707.2969 2636.875,706.8125 C2637.0625,706.625 2637.2656,706.5469 2637.4844,706.5469 C2637.9531,706.5469 2638.3438,706.9375 2638.3438,707.3906 C2638.3438,707.7813 2638.0156,708.2344 2637.4375,708.6406 C2636.6875,709.1875 2635.5313,709.4844 2634.3125,709.4844 C2631.4219,709.4844 2629.3125,707.5938 2629.3125,705.0156 L2629.3125,703.8906 C2629.3125,701.1719 2631.3125,699.0938 2633.9375,699.0938 C2634.8125,699.0938 2635.4063,699.2344 2636.3438,699.6719 Z "/><text fill="#000000" font-family="sans-serif" font-size="12" lengthAdjust="spacingAndGlyphs" textLength="120" x="2648" y="708.1543">edit_inventory_item</text><line style="stroke: #A80036; stroke-width: 1.5;" x1="2620" x2="2770" y1="720" y2="720"/><line style="stroke: #A80036; stroke-width: 1.5;" x1="2620" x2="2770" y1="728" y2="728"/><rect fill="#FEFECE" filter="url(#f1)" height="48" style="stroke: #A80036; stroke-width: 1.5;" width="160" x="2806" y="688"/><ellipse cx="2821" cy="704" fill="#ADD1B2" rx="11" ry="11" style="stroke: #A80036; stroke-width: 1.0;"/><path d="M2823.3438,699.6719 L2823.5156,699.75 C2823.7344,699.4375 2823.9375,699.3438 2824.2344,699.3438 C2824.5313,699.3438 2824.8125,699.4844 2824.9688,699.75 C2825.0625,699.9063 2825.0781,700.0313 2825.0781,700.4688 L2825.0781,701.8906 C2825.0781,702.3125 2825.0469,702.5 2824.9375,702.6563 C2824.7656,702.875 2824.5,703.0156 2824.2344,703.0156 C2824.0156,703.0156 2823.7813,702.9063 2823.6406,702.7656 C2823.5,702.6406 2823.4688,702.5156 2823.4063,702.1094 C2823.3125,701.7031 2823.1406,701.4844 2822.6563,701.2031 C2822.1875,700.9531 2821.5781,700.7969 2821,700.7969 C2819.2656,700.7969 2818.0156,702.1094 2818.0156,703.8906 L2818.0156,704.9844 C2818.0156,706.6875 2819.3125,707.7813 2821.3594,707.7813 C2822.125,707.7813 2822.8125,707.6563 2823.2344,707.3906 C2823.4219,707.2969 2823.4219,707.2969 2823.875,706.8125 C2824.0625,706.625 2824.2656,706.5469 2824.4844,706.5469 C2824.9531,706.5469 2825.3438,706.9375 2825.3438,707.3906 C2825.3438,707.7813 2825.0156,708.2344 2824.4375,708.6406 C2823.6875,709.1875 2822.5313,709.4844 2821.3125,709.4844 C2818.4219,709.4844 2816.3125,707.5938 2816.3125,705.0156 L2816.3125,703.8906 C2816.3125,701.1719 2818.3125,699.0938 2820.9375,699.0938 C2821.8125,699.0938 2822.4063,699.2344 2823.3438,699.6719 Z "/><text fill="#000000" font-family="sans-serif" font-size="12" lengthAdjust="spacingAndGlyphs" textLength="128" x="2835" y="708.1543">inventory_item_table</text><line style="stroke: #A80036; stroke-width: 1.5;" x1="2807" x2="2965" y1="720" y2="720"/><line style="stroke: #A80036; stroke-width: 1.5;" x1="2807" x2="2965" y1="728" y2="728"/><rect fill="#FEFECE" filter="url(#f1)" height="48" style="stroke: #A80036; stroke-width: 1.5;" width="153" x="2430.5" y="688"/><ellipse cx="2445.5" cy="704" fill="#ADD1B2" rx="11" ry="11" style="stroke: #A80036; stroke-width: 1.0;"/><path d="M2447.8438,699.6719 L2448.0156,699.75 C2448.2344,699.4375 2448.4375,699.3438 2448.7344,699.3438 C2449.0313,699.3438 2449.3125,699.4844 2449.4688,699.75 C2449.5625,699.9063 2449.5781,700.0313 2449.5781,700.4688 L2449.5781,701.8906 C2449.5781,702.3125 2449.5469,702.5 2449.4375,702.6563 C2449.2656,702.875 2449,703.0156 2448.7344,703.0156 C2448.5156,703.0156 2448.2813,702.9063 2448.1406,702.7656 C2448,702.6406 2447.9688,702.5156 2447.9063,702.1094 C2447.8125,701.7031 2447.6406,701.4844 2447.1563,701.2031 C2446.6875,700.9531 2446.0781,700.7969 2445.5,700.7969 C2443.7656,700.7969 2442.5156,702.1094 2442.5156,703.8906 L2442.5156,704.9844 C2442.5156,706.6875 2443.8125,707.7813 2445.8594,707.7813 C2446.625,707.7813 2447.3125,707.6563 2447.7344,707.3906 C2447.9219,707.2969 2447.9219,707.2969 2448.375,706.8125 C2448.5625,706.625 2448.7656,706.5469 2448.9844,706.5469 C2449.4531,706.5469 2449.8438,706.9375 2449.8438,707.3906 C2449.8438,707.7813 2449.5156,708.2344 2448.9375,708.6406 C2448.1875,709.1875 2447.0313,709.4844 2445.8125,709.4844 C2442.9219,709.4844 2440.8125,707.5938 2440.8125,705.0156 L2440.8125,703.8906 C2440.8125,701.1719 2442.8125,699.0938 2445.4375,699.0938 C2446.3125,699.0938 2446.9063,699.2344 2447.8438,699.6719 Z "/><text fill="#000000" font-family="sans-serif" font-size="12" lengthAdjust="spacingAndGlyphs" textLength="121" x="2459.5" y="708.1543">new_inventory_item</text><line style="stroke: #A80036; stroke-width: 1.5;" x1="2431.5" x2="2582.5" y1="720" y2="720"/><line style="stroke: #A80036; stroke-width: 1.5;" x1="2431.5" x2="2582.5" y1="728" y2="728"/><rect fill="#FEFECE" filter="url(#f1)" height="48" style="stroke: #A80036; stroke-width: 1.5;" width="65" x="2622.5" y="118.5"/><ellipse cx="2637.5" cy="134.5" fill="#ADD1B2" rx="11" ry="11" style="stroke: #A80036; stroke-width: 1.0;"/><path d="M2639.8438,130.1719 L2640.0156,130.25 C2640.2344,129.9375 2640.4375,129.8438 2640.7344,129.8438 C2641.0313,129.8438 2641.3125,129.9844 2641.4688,130.25 C2641.5625,130.4063 2641.5781,130.5313 2641.5781,130.9688 L2641.5781,132.3906 C2641.5781,132.8125 2641.5469,133 2641.4375,133.1563 C2641.2656,133.375 2641,133.5156 2640.7344,133.5156 C2640.5156,133.5156 2640.2813,133.4063 2640.1406,133.2656 C2640,133.1406 2639.9688,133.0156 2639.9063,132.6094 C2639.8125,132.2031 2639.6406,131.9844 2639.1563,131.7031 C2638.6875,131.4531 2638.0781,131.2969 2637.5,131.2969 C2635.7656,131.2969 2634.5156,132.6094 2634.5156,134.3906 L2634.5156,135.4844 C2634.5156,137.1875 2635.8125,138.2813 2637.8594,138.2813 C2638.625,138.2813 2639.3125,138.1563 2639.7344,137.8906 C2639.9219,137.7969 2639.9219,137.7969 2640.375,137.3125 C2640.5625,137.125 2640.7656,137.0469 2640.9844,137.0469 C2641.4531,137.0469 2641.8438,137.4375 2641.8438,137.8906 C2641.8438,138.2813 2641.5156,138.7344 2640.9375,139.1406 C2640.1875,139.6875 2639.0313,139.9844 2637.8125,139.9844 C2634.9219,139.9844 2632.8125,138.0938 2632.8125,135.5156 L2632.8125,134.3906 C2632.8125,131.6719 2634.8125,129.5938 2637.4375,129.5938 C2638.3125,129.5938 2638.9063,129.7344 2639.8438,130.1719 Z "/><text fill="#000000" font-family="sans-serif" font-size="12" lengthAdjust="spacingAndGlyphs" textLength="33" x="2651.5" y="138.6543">index</text><line style="stroke: #A80036; stroke-width: 1.5;" x1="2623.5" x2="2686.5" y1="150.5" y2="150.5"/><line style="stroke: #A80036; stroke-width: 1.5;" x1="2623.5" x2="2686.5" y1="158.5" y2="158.5"/><rect fill="#FEFECE" filter="url(#f1)" height="48" style="stroke: #A80036; stroke-width: 1.5;" width="89" x="2242.5" y="520"/><ellipse cx="2257.5" cy="536" fill="#ADD1B2" rx="11" ry="11" style="stroke: #A80036; stroke-width: 1.0;"/><path d="M2259.8438,531.6719 L2260.0156,531.75 C2260.2344,531.4375 2260.4375,531.3438 2260.7344,531.3438 C2261.0313,531.3438 2261.3125,531.4844 2261.4688,531.75 C2261.5625,531.9063 2261.5781,532.0313 2261.5781,532.4688 L2261.5781,533.8906 C2261.5781,534.3125 2261.5469,534.5 2261.4375,534.6563 C2261.2656,534.875 2261,535.0156 2260.7344,535.0156 C2260.5156,535.0156 2260.2813,534.9063 2260.1406,534.7656 C2260,534.6406 2259.9688,534.5156 2259.9063,534.1094 C2259.8125,533.7031 2259.6406,533.4844 2259.1563,533.2031 C2258.6875,532.9531 2258.0781,532.7969 2257.5,532.7969 C2255.7656,532.7969 2254.5156,534.1094 2254.5156,535.8906 L2254.5156,536.9844 C2254.5156,538.6875 2255.8125,539.7813 2257.8594,539.7813 C2258.625,539.7813 2259.3125,539.6563 2259.7344,539.3906 C2259.9219,539.2969 2259.9219,539.2969 2260.375,538.8125 C2260.5625,538.625 2260.7656,538.5469 2260.9844,538.5469 C2261.4531,538.5469 2261.8438,538.9375 2261.8438,539.3906 C2261.8438,539.7813 2261.5156,540.2344 2260.9375,540.6406 C2260.1875,541.1875 2259.0313,541.4844 2257.8125,541.4844 C2254.9219,541.4844 2252.8125,539.5938 2252.8125,537.0156 L2252.8125,535.8906 C2252.8125,533.1719 2254.8125,531.0938 2257.4375,531.0938 C2258.3125,531.0938 2258.9063,531.2344 2259.8438,531.6719 Z "/><text fill="#000000" font-family="sans-serif" font-size="12" lengthAdjust="spacingAndGlyphs" textLength="57" x="2271.5" y="540.1543">edit_item</text><line style="stroke: #A80036; stroke-width: 1.5;" x1="2243.5" x2="2330.5" y1="552" y2="552"/><line style="stroke: #A80036; stroke-width: 1.5;" x1="2243.5" x2="2330.5" y1="560" y2="560"/><rect fill="#FEFECE" filter="url(#f1)" height="48" style="stroke: #A80036; stroke-width: 1.5;" width="93" x="2366.5" y="520"/><ellipse cx="2381.5" cy="536" fill="#ADD1B2" rx="11" ry="11" style="stroke: #A80036; stroke-width: 1.0;"/><path d="M2383.8438,531.6719 L2384.0156,531.75 C2384.2344,531.4375 2384.4375,531.3438 2384.7344,531.3438 C2385.0313,531.3438 2385.3125,531.4844 2385.4688,531.75 C2385.5625,531.9063 2385.5781,532.0313 2385.5781,532.4688 L2385.5781,533.8906 C2385.5781,534.3125 2385.5469,534.5 2385.4375,534.6563 C2385.2656,534.875 2385,535.0156 2384.7344,535.0156 C2384.5156,535.0156 2384.2813,534.9063 2384.1406,534.7656 C2384,534.6406 2383.9688,534.5156 2383.9063,534.1094 C2383.8125,533.7031 2383.6406,533.4844 2383.1563,533.2031 C2382.6875,532.9531 2382.0781,532.7969 2381.5,532.7969 C2379.7656,532.7969 2378.5156,534.1094 2378.5156,535.8906 L2378.5156,536.9844 C2378.5156,538.6875 2379.8125,539.7813 2381.8594,539.7813 C2382.625,539.7813 2383.3125,539.6563 2383.7344,539.3906 C2383.9219,539.2969 2383.9219,539.2969 2384.375,538.8125 C2384.5625,538.625 2384.7656,538.5469 2384.9844,538.5469 C2385.4531,538.5469 2385.8438,538.9375 2385.8438,539.3906 C2385.8438,539.7813 2385.5156,540.2344 2384.9375,540.6406 C2384.1875,541.1875 2383.0313,541.4844 2381.8125,541.4844 C2378.9219,541.4844 2376.8125,539.5938 2376.8125,537.0156 L2376.8125,535.8906 C2376.8125,533.1719 2378.8125,531.0938 2381.4375,531.0938 C2382.3125,531.0938 2382.9063,531.2344 2383.8438,531.6719 Z "/><text fill="#000000" font-family="sans-serif" font-size="12" lengthAdjust="spacingAndGlyphs" textLength="61" x="2395.5" y="540.1543">item_form</text><line style="stroke: #A80036; stroke-width: 1.5;" x1="2367.5" x2="2458.5" y1="552" y2="552"/><line style="stroke: #A80036; stroke-width: 1.5;" x1="2367.5" x2="2458.5" y1="560" y2="560"/><rect fill="#FEFECE" filter="url(#f1)" height="48" style="stroke: #A80036; stroke-width: 1.5;" width="97" x="2494.5" y="520"/><ellipse cx="2509.5" cy="536" fill="#ADD1B2" rx="11" ry="11" style="stroke: #A80036; stroke-width: 1.0;"/><path d="M2511.8438,531.6719 L2512.0156,531.75 C2512.2344,531.4375 2512.4375,531.3438 2512.7344,531.3438 C2513.0313,531.3438 2513.3125,531.4844 2513.4688,531.75 C2513.5625,531.9063 2513.5781,532.0313 2513.5781,532.4688 L2513.5781,533.8906 C2513.5781,534.3125 2513.5469,534.5 2513.4375,534.6563 C2513.2656,534.875 2513,535.0156 2512.7344,535.0156 C2512.5156,535.0156 2512.2813,534.9063 2512.1406,534.7656 C2512,534.6406 2511.9688,534.5156 2511.9063,534.1094 C2511.8125,533.7031 2511.6406,533.4844 2511.1563,533.2031 C2510.6875,532.9531 2510.0781,532.7969 2509.5,532.7969 C2507.7656,532.7969 2506.5156,534.1094 2506.5156,535.8906 L2506.5156,536.9844 C2506.5156,538.6875 2507.8125,539.7813 2509.8594,539.7813 C2510.625,539.7813 2511.3125,539.6563 2511.7344,539.3906 C2511.9219,539.2969 2511.9219,539.2969 2512.375,538.8125 C2512.5625,538.625 2512.7656,538.5469 2512.9844,538.5469 C2513.4531,538.5469 2513.8438,538.9375 2513.8438,539.3906 C2513.8438,539.7813 2513.5156,540.2344 2512.9375,540.6406 C2512.1875,541.1875 2511.0313,541.4844 2509.8125,541.4844 C2506.9219,541.4844 2504.8125,539.5938 2504.8125,537.0156 L2504.8125,535.8906 C2504.8125,533.1719 2506.8125,531.0938 2509.4375,531.0938 C2510.3125,531.0938 2510.9063,531.2344 2511.8438,531.6719 Z "/><text fill="#000000" font-family="sans-serif" font-size="12" lengthAdjust="spacingAndGlyphs" textLength="65" x="2523.5" y="540.1543">item_table</text><line style="stroke: #A80036; stroke-width: 1.5;" x1="2495.5" x2="2590.5" y1="552" y2="552"/><line style="stroke: #A80036; stroke-width: 1.5;" x1="2495.5" x2="2590.5" y1="560" y2="560"/><rect fill="#FEFECE" filter="url(#f1)" height="48" style="stroke: #A80036; stroke-width: 1.5;" width="90" x="2627" y="520"/><ellipse cx="2642" cy="536" fill="#ADD1B2" rx="11" ry="11" style="stroke: #A80036; stroke-width: 1.0;"/><path d="M2644.3438,531.6719 L2644.5156,531.75 C2644.7344,531.4375 2644.9375,531.3438 2645.2344,531.3438 C2645.5313,531.3438 2645.8125,531.4844 2645.9688,531.75 C2646.0625,531.9063 2646.0781,532.0313 2646.0781,532.4688 L2646.0781,533.8906 C2646.0781,534.3125 2646.0469,534.5 2645.9375,534.6563 C2645.7656,534.875 2645.5,535.0156 2645.2344,535.0156 C2645.0156,535.0156 2644.7813,534.9063 2644.6406,534.7656 C2644.5,534.6406 2644.4688,534.5156 2644.4063,534.1094 C2644.3125,533.7031 2644.1406,533.4844 2643.6563,533.2031 C2643.1875,532.9531 2642.5781,532.7969 2642,532.7969 C2640.2656,532.7969 2639.0156,534.1094 2639.0156,535.8906 L2639.0156,536.9844 C2639.0156,538.6875 2640.3125,539.7813 2642.3594,539.7813 C2643.125,539.7813 2643.8125,539.6563 2644.2344,539.3906 C2644.4219,539.2969 2644.4219,539.2969 2644.875,538.8125 C2645.0625,538.625 2645.2656,538.5469 2645.4844,538.5469 C2645.9531,538.5469 2646.3438,538.9375 2646.3438,539.3906 C2646.3438,539.7813 2646.0156,540.2344 2645.4375,540.6406 C2644.6875,541.1875 2643.5313,541.4844 2642.3125,541.4844 C2639.4219,541.4844 2637.3125,539.5938 2637.3125,537.0156 L2637.3125,535.8906 C2637.3125,533.1719 2639.3125,531.0938 2641.9375,531.0938 C2642.8125,531.0938 2643.4063,531.2344 2644.3438,531.6719 Z "/><text fill="#000000" font-family="sans-serif" font-size="12" lengthAdjust="spacingAndGlyphs" textLength="58" x="2656" y="540.1543">new_item</text><line style="stroke: #A80036; stroke-width: 1.5;" x1="2628" x2="2716" y1="552" y2="552"/><line style="stroke: #A80036; stroke-width: 1.5;" x1="2628" x2="2716" y1="560" y2="560"/><rect fill="#FEFECE" filter="url(#f1)" height="48" style="stroke: #A80036; stroke-width: 1.5;" width="124" x="2593" y="316"/><ellipse cx="2608" cy="332" fill="#ADD1B2" rx="11" ry="11" style="stroke: #A80036; stroke-width: 1.0;"/><path d="M2610.3438,327.6719 L2610.5156,327.75 C2610.7344,327.4375 2610.9375,327.3438 2611.2344,327.3438 C2611.5313,327.3438 2611.8125,327.4844 2611.9688,327.75 C2612.0625,327.9063 2612.0781,328.0313 2612.0781,328.4688 L2612.0781,329.8906 C2612.0781,330.3125 2612.0469,330.5 2611.9375,330.6563 C2611.7656,330.875 2611.5,331.0156 2611.2344,331.0156 C2611.0156,331.0156 2610.7813,330.9063 2610.6406,330.7656 C2610.5,330.6406 2610.4688,330.5156 2610.4063,330.1094 C2610.3125,329.7031 2610.1406,329.4844 2609.6563,329.2031 C2609.1875,328.9531 2608.5781,328.7969 2608,328.7969 C2606.2656,328.7969 2605.0156,330.1094 2605.0156,331.8906 L2605.0156,332.9844 C2605.0156,334.6875 2606.3125,335.7813 2608.3594,335.7813 C2609.125,335.7813 2609.8125,335.6563 2610.2344,335.3906 C2610.4219,335.2969 2610.4219,335.2969 2610.875,334.8125 C2611.0625,334.625 2611.2656,334.5469 2611.4844,334.5469 C2611.9531,334.5469 2612.3438,334.9375 2612.3438,335.3906 C2612.3438,335.7813 2612.0156,336.2344 2611.4375,336.6406 C2610.6875,337.1875 2609.5313,337.4844 2608.3125,337.4844 C2605.4219,337.4844 2603.3125,335.5938 2603.3125,333.0156 L2603.3125,331.8906 C2603.3125,329.1719 2605.3125,327.0938 2607.9375,327.0938 C2608.8125,327.0938 2609.4063,327.2344 2610.3438,327.6719 Z "/><text fill="#000000" font-family="sans-serif" font-size="12" lengthAdjust="spacingAndGlyphs" textLength="92" x="2622" y="336.1543">website_layout</text><line style="stroke: #A80036; stroke-width: 1.5;" x1="2594" x2="2716" y1="348" y2="348"/><line style="stroke: #A80036; stroke-width: 1.5;" x1="2594" x2="2716" y1="356" y2="356"/><rect fill="#FEFECE" filter="url(#f1)" height="48" style="stroke: #A80036; stroke-width: 1.5;" width="126" x="1793" y="118.5"/><ellipse cx="1808" cy="134.5" fill="#ADD1B2" rx="11" ry="11" style="stroke: #A80036; stroke-width: 1.0;"/><path d="M1810.3438,130.1719 L1810.5156,130.25 C1810.7344,129.9375 1810.9375,129.8438 1811.2344,129.8438 C1811.5313,129.8438 1811.8125,129.9844 1811.9688,130.25 C1812.0625,130.4063 1812.0781,130.5313 1812.0781,130.9688 L1812.0781,132.3906 C1812.0781,132.8125 1812.0469,133 1811.9375,133.1563 C1811.7656,133.375 1811.5,133.5156 1811.2344,133.5156 C1811.0156,133.5156 1810.7813,133.4063 1810.6406,133.2656 C1810.5,133.1406 1810.4688,133.0156 1810.4063,132.6094 C1810.3125,132.2031 1810.1406,131.9844 1809.6563,131.7031 C1809.1875,131.4531 1808.5781,131.2969 1808,131.2969 C1806.2656,131.2969 1805.0156,132.6094 1805.0156,134.3906 L1805.0156,135.4844 C1805.0156,137.1875 1806.3125,138.2813 1808.3594,138.2813 C1809.125,138.2813 1809.8125,138.1563 1810.2344,137.8906 C1810.4219,137.7969 1810.4219,137.7969 1810.875,137.3125 C1811.0625,137.125 1811.2656,137.0469 1811.4844,137.0469 C1811.9531,137.0469 1812.3438,137.4375 1812.3438,137.8906 C1812.3438,138.2813 1812.0156,138.7344 1811.4375,139.1406 C1810.6875,139.6875 1809.5313,139.9844 1808.3125,139.9844 C1805.4219,139.9844 1803.3125,138.0938 1803.3125,135.5156 L1803.3125,134.3906 C1803.3125,131.6719 1805.3125,129.5938 1807.9375,129.5938 C1808.8125,129.5938 1809.4063,129.7344 1810.3438,130.1719 Z "/><text fill="#000000" font-family="sans-serif" font-size="12" lengthAdjust="spacingAndGlyphs" textLength="94" x="1822" y="138.6543">FrontController</text><line style="stroke: #A80036; stroke-width: 1.5;" x1="1794" x2="1918" y1="150.5" y2="150.5"/><line style="stroke: #A80036; stroke-width: 1.5;" x1="1794" x2="1918" y1="158.5" y2="158.5"/><path d="M230.16,340 C235.211,340 240.262,340 245.313,340 " fill="none" style="stroke: #A80036; stroke-width: 1.0;"/><polygon fill="none" points="245.426,333,265.426,340,245.426,347,245.426,333" style="stroke: #A80036; stroke-width: 1.0;"/><path d="M361,192.077 C361,221.652 361,259.346 361,289.15 " fill="none" style="stroke: #A80036; stroke-width: 1.0;"/><polygon fill="none" points="368,289.228,361,309.228,354,289.228,368,289.228" style="stroke: #A80036; stroke-width: 1.0;"/><path d="M476.731,340 C481.6,340 486.469,340 491.338,340 " fill="none" style="stroke: #A80036; stroke-width: 1.0;"/><polygon fill="none" points="476.715,347,456.715,340,476.715,333,476.715,347" style="stroke: #A80036; stroke-width: 1.0;"/><path d="M203.605,544 C208.491,544 213.377,544 218.263,544 " fill="none" style="stroke: #A80036; stroke-width: 1.0;"/><polygon fill="none" points="218.35,537,238.35,544,218.35,551,218.35,537" style="stroke: #A80036; stroke-width: 1.0;"/><path d="M555.752,544 C560.825,544 565.898,544 570.97,544 " fill="none" style="stroke: #A80036; stroke-width: 1.0;"/><polygon fill="none" points="555.553,551,535.553,544,555.553,537,555.553,551" style="stroke: #A80036; stroke-width: 1.0;"/><path d="M355.883,384.151 C357.132,410.453 361.044,444.652 366.052,474.577 " fill="none" style="stroke: #A80036; stroke-width: 1.0;"/><polygon fill="#A80036" points="355.476,370.806,351.6605,376.925,355.8413,382.8004,359.6568,376.6815,355.476,370.806" style="stroke: #A80036; stroke-width: 1.0;"/><path d="M374.747,370.806 C380.82,394.727 386.415,429.489 389.786,461.526 " fill="none" style="stroke: #A80036; stroke-width: 1.0;"/><polygon fill="#FFFFFF" points="391.048,474.577,394.4519,468.2198,389.8929,462.6327,386.489,468.9899,391.048,474.577" style="stroke: #A80036; stroke-width: 1.0;"/><path d="M1288,205.089 C1288,227.969 1288,253.925 1288,276.854 " fill="none" style="stroke: #A80036; stroke-width: 1.0;"/><polygon fill="none" points="1295,276.885,1288,296.885,1281,276.885,1295,276.885" style="stroke: #A80036; stroke-width: 1.0;"/><path d="M1526.2,340 C1531.27,340 1536.34,340 1541.41,340 " fill="none" style="stroke: #A80036; stroke-width: 1.0;"/><polygon fill="none" points="1526.01,347,1506.01,340,1526.01,333,1526.01,347" style="stroke: #A80036; stroke-width: 1.0;"/><path d="M1328.48,399.834 C1347.55,427.541 1370.17,460.408 1388.92,487.659 " fill="none" style="stroke: #A80036; stroke-width: 1.0;"/><polygon fill="none" points="1322.71,403.79,1317.14,383.346,1334.24,395.854,1322.71,403.79" style="stroke: #A80036; stroke-width: 1.0;"/><path d="M1221.01,396.012 C1180.73,429.081 1130.27,470.514 1093.2,500.954 " fill="none" style="stroke: #A80036; stroke-width: 1.0;"/><polygon fill="none" points="1216.83,390.382,1236.73,383.1,1225.72,401.202,1216.83,390.382" style="stroke: #A80036; stroke-width: 1.0;"/><path d="M2658.65,384.373 C2662.14,425.854 2667.27,486.824 2670.05,519.788 " fill="none" style="stroke: #A80036; stroke-width: 1.0;"/><polygon fill="none" points="2651.65,384.689,2656.95,364.172,2665.6,383.514,2651.65,384.689" style="stroke: #A80036; stroke-width: 1.0;"/><path d="M2573.55,366.153 C2508.94,388.489 2418.3,425.303 2349,475 C2331.6,487.476 2315.43,505.522 2303.97,519.889 " fill="none" style="stroke: #A80036; stroke-width: 1.0;"/><polygon fill="none" points="2571.52,359.449,2592.71,359.687,2576,372.714,2571.52,359.449" style="stroke: #A80036; stroke-width: 1.0;"/><path d="M2632.37,381.818 C2609.36,423.313 2574.53,486.141 2555.87,519.788 " fill="none" style="stroke: #A80036; stroke-width: 1.0;"/><polygon fill="none" points="2626.33,378.269,2642.15,364.172,2638.58,385.058,2626.33,378.269" style="stroke: #A80036; stroke-width: 1.0;"/><path d="M2604.06,375.832 C2567.45,401.688 2517.61,438.625 2477,475 C2461.42,488.954 2445.29,506.112 2433.12,519.701 " fill="none" style="stroke: #A80036; stroke-width: 1.0;"/><polygon fill="none" points="2600.46,369.804,2620.86,364.08,2608.48,381.277,2600.46,369.804" style="stroke: #A80036; stroke-width: 1.0;"/><path d="M2655,166.694 C2655,198.441 2655,256.019 2655,295.826 " fill="none" style="stroke: #A80036; stroke-width: 1.0;"/><polygon fill="none" points="2662,295.836,2655,315.836,2648,295.836,2662,295.836" style="stroke: #A80036; stroke-width: 1.0;"/><path d="M2737.27,346.427 C2936.91,360.597 3441.77,402.708 3593,475 C3614.72,485.383 3634.38,504.539 3647.8,519.879 " fill="none" style="stroke: #A80036; stroke-width: 1.0;"/><polygon fill="none" points="2736.71,353.405,2717.25,345.027,2737.69,339.439,2736.71,353.405" style="stroke: #A80036; stroke-width: 1.0;"/><path d="M2737.19,345.587 C2957.5,358.758 3556.82,400.6 3739,475 C3764.02,485.219 3788.11,504.388 3804.9,519.775 " fill="none" style="stroke: #A80036; stroke-width: 1.0;"/><polygon fill="none" points="2736.64,352.566,2717.08,344.402,2737.46,338.591,2736.64,352.566" style="stroke: #A80036; stroke-width: 1.0;"/><path d="M2737.08,342.511 C2881.08,347.915 3185.96,371.756 3418,475 C3442.17,485.754 3465.56,504.674 3481.99,519.831 " fill="none" style="stroke: #A80036; stroke-width: 1.0;"/><polygon fill="none" points="2736.78,349.505,2717.03,341.841,2737.25,335.513,2736.78,349.505" style="stroke: #A80036; stroke-width: 1.0;"/><path d="M2737.11,348.288 C2854.27,361.171 3073.96,394.643 3243,475 C3266.72,486.276 3289.97,504.957 3306.46,519.889 " fill="none" style="stroke: #A80036; stroke-width: 1.0;"/><polygon fill="none" points="2736.3,355.242,2717.14,346.185,2737.77,341.319,2736.3,355.242" style="stroke: #A80036; stroke-width: 1.0;"/><path d="M2688.05,379.591 C2723.54,421.034 2778.78,485.533 2808.12,519.788 " fill="none" style="stroke: #A80036; stroke-width: 1.0;"/><polygon fill="none" points="2682.54,383.916,2674.85,364.172,2693.17,374.809,2682.54,383.916" style="stroke: #A80036; stroke-width: 1.0;"/><path d="M2736.74,355.839 C2826.56,374.488 2973.06,411.94 3086,475 C3107.18,486.823 3127.71,505.087 3142.39,519.71 " fill="none" style="stroke: #A80036; stroke-width: 1.0;"/><polygon fill="none" points="2735.32,362.693,2717.1,351.873,2738.09,348.97,2735.32,362.693" style="stroke: #A80036; stroke-width: 1.0;"/><path d="M2719.79,373.188 C2770.23,398.976 2841.42,437.008 2901,475 C2922.77,488.882 2946.15,506.201 2963.9,519.886 " fill="none" style="stroke: #A80036; stroke-width: 1.0;"/><polygon fill="none" points="2716.55,379.391,2701.88,364.097,2722.88,366.907,2716.55,379.391" style="stroke: #A80036; stroke-width: 1.0;"/><path d="M2436.15,585.886 C2454.33,617.98 2478.97,661.503 2493.89,687.847 " fill="none" style="stroke: #A80036; stroke-width: 1.0;"/><polygon fill="none" points="2429.83,588.934,2426.07,568.082,2442.02,582.036,2429.83,588.934" style="stroke: #A80036; stroke-width: 1.0;"/><path d="M2430.98,585.949 C2441.52,604.856 2456.79,625.598 2477,637 C2501.05,650.569 2574.95,635.836 2601,645 C2626.96,654.132 2652.25,672.598 2670.04,687.68 " fill="none" style="stroke: #A80036; stroke-width: 1.0;"/><polygon fill="none" points="2424.72,589.082,2422,568.068,2437.23,582.799,2424.72,589.082" style="stroke: #A80036; stroke-width: 1.0;"/><path d="M2395.38,586.793 C2381.88,618.796 2363.77,661.75 2352.76,687.847 " fill="none" style="stroke: #A80036; stroke-width: 1.0;"/><polygon fill="none" points="2389.05,583.79,2403.27,568.082,2401.95,589.23,2389.05,583.79" style="stroke: #A80036; stroke-width: 1.0;"/><path d="M2737.19,343.501 C3004.44,352.469 3836.1,387.265 3915,475 C3963.14,528.536 3964.05,584.294 3915,637 C3850.82,705.9564 3197.22,711.5527 2966.29,711.3572 " fill="none" style="stroke: #A80036; stroke-width: 1.0;"/><polygon fill="none" points="2736.87,350.494,2717.11,342.841,2737.33,336.502,2736.87,350.494" style="stroke: #A80036; stroke-width: 1.0;"/></g></svg>