<?xml version="1.0" encoding="UTF-8" standalone="yes"?><svg xmlns="http://www.w3.org/2000/svg" xmlns:xlink="http://www.w3.org/1999/xlink" height="561px" style="width:4107px;height:561px;" version="1.1" viewBox="0 0 4107 561" width="4107px"><defs><filter height="300%" id="f1" width="300%" x="-1" y="-1"><feGaussianBlur result="blurOut" stdDeviation="2.0"/><feColorMatrix in="blurOut" result="blurOut2" type="matrix" values="0 0 0 0 0 0 0 0 0 0 0 0 0 0 0 0 0 0 .4 0"/><feOffset dx="4.0" dy="4.0" in="blurOut2" result="blurOut3"/><feBlend in="SourceGraphic" in2="blurOut3" mode="normal"/></filter></defs><g><polygon fill="#FFFFFF" filter="url(#f1)" points="114,71,205,71,212,93.2969,1124,93.2969,1124,446.5,114,446.5,114,71" style="stroke: #000000; stroke-width: 2.0;"/><line style="stroke: #000000; stroke-width: 2.0;" x1="114" x2="212" y1="93.2969" y2="93.2969"/><text fill="#000000" font-family="sans-serif" font-size="14" font-weight="bold" lengthAdjust="spacingAndGlyphs" textLength="85" x="118" y="85.9951">User Login</text><polygon fill="#FFFFFF" filter="url(#f1)" points="1148,82.5,1234,82.5,1241,104.7969,2028,104.7969,2028,460,1148,460,1148,82.5" style="stroke: #000000; stroke-width: 2.0;"/><line style="stroke: #000000; stroke-width: 2.0;" x1="1148" x2="1241" y1="104.7969" y2="104.7969"/><text fill="#000000" font-family="sans-serif" font-size="14" font-weight="bold" lengthAdjust="spacingAndGlyphs" textLength="80" x="1152" y="97.4951">Unit Tests</text><polygon fill="#FFFFFF" filter="url(#f1)" points="2052,82.5,2167,82.5,2174,104.7969,2970,104.7969,2970,554,2052,554,2052,82.5" style="stroke: #000000; stroke-width: 2.0;"/><line style="stroke: #000000; stroke-width: 2.0;" x1="2052" x2="2174" y1="104.7969" y2="104.7969"/><text fill="#000000" font-family="sans-serif" font-size="14" font-weight="bold" lengthAdjust="spacingAndGlyphs" textLength="109" x="2056" y="97.4951">Sales Reports</text><polygon fill="#FFFFFF" filter="url(#f1)" points="2994,82.5,3072,82.5,3079,104.7969,3560,104.7969,3560,321.5,2994,321.5,2994,82.5" style="stroke: #000000; stroke-width: 2.0;"/><line style="stroke: #000000; stroke-width: 2.0;" x1="2994" x2="3079" y1="104.7969" y2="104.7969"/><text fill="#000000" font-family="sans-serif" font-size="14" font-weight="bold" lengthAdjust="spacingAndGlyphs" textLength="72" x="2998" y="97.4951">Sales API</text><polygon fill="#FFFFFF" filter="url(#f1)" points="3584,82.5,3778,82.5,3785,104.7969,4100,104.7969,4100,448.5,3584,448.5,3584,82.5" style="stroke: #000000; stroke-width: 2.0;"/><line style="stroke: #000000; stroke-width: 2.0;" x1="3584" x2="3785" y1="104.7969" y2="104.7969"/><text fill="#000000" font-family="sans-serif" font-size="14" font-weight="bold" lengthAdjust="spacingAndGlyphs" textLength="188" x="3588" y="97.4951">Report Database Tables</text><rect fill="#FEFECE" filter="url(#f1)" height="60.8906" style="stroke: #A80036; stroke-width: 1.5;" width="85" x="643.5" y="106"/><text fill="#000000" font-family="sans-serif" font-size="12" lengthAdjust="spacingAndGlyphs" textLength="66" x="653" y="119.1387">User Login</text><line style="stroke: #A80036; stroke-width: 1.5;" x1="644.5" x2="727.5" y1="123.9688" y2="123.9688"/><text fill="#000000" font-family="sans-serif" font-size="10" lengthAdjust="spacingAndGlyphs" textLength="73" x="649.5" y="137.251">User Login and</text><text fill="#000000" font-family="sans-serif" font-size="10" lengthAdjust="spacingAndGlyphs" textLength="69" x="649.5" y="148.8916">authentication</text><text fill="#000000" font-family="sans-serif" font-size="10" font-weight="bold" lengthAdjust="spacingAndGlyphs" textLength="50" x="649.5" y="160.5322">10 Hours</text><rect fill="#FEFECE" filter="url(#f1)" height="60.8906" style="stroke: #A80036; stroke-width: 1.5;" width="161" x="130.5" y="244.5"/><text fill="#000000" font-family="sans-serif" font-size="12" lengthAdjust="spacingAndGlyphs" textLength="147" x="137.5" y="257.6387">Class/Sequence Design</text><line style="stroke: #A80036; stroke-width: 1.5;" x1="131.5" x2="290.5" y1="262.4688" y2="262.4688"/><text fill="#000000" font-family="sans-serif" font-size="10" lengthAdjust="spacingAndGlyphs" textLength="130" x="136.5" y="275.751">create design diagrams for</text><text fill="#000000" font-family="sans-serif" font-size="10" lengthAdjust="spacingAndGlyphs" textLength="137" x="136.5" y="287.3916">the user login/authentication</text><text fill="#000000" font-family="sans-serif" font-size="10" lengthAdjust="spacingAndGlyphs" textLength="36" x="136.5" y="299.0322">system</text><rect fill="#FEFECE" filter="url(#f1)" height="84.1719" style="stroke: #A80036; stroke-width: 1.5;" width="185" x="326.5" y="233"/><text fill="#000000" font-family="sans-serif" font-size="12" lengthAdjust="spacingAndGlyphs" textLength="171" x="333.5" y="246.1387">Check Models Implemented</text><line style="stroke: #A80036; stroke-width: 1.5;" x1="327.5" x2="510.5" y1="250.9688" y2="250.9688"/><text fill="#000000" font-family="sans-serif" font-size="10" lengthAdjust="spacingAndGlyphs" textLength="107" x="332.5" y="264.251">check that the models</text><text fill="#000000" font-family="sans-serif" font-size="10" lengthAdjust="spacingAndGlyphs" textLength="49" x="332.5" y="275.8916">if required</text><text fill="#000000" font-family="sans-serif" font-size="10" lengthAdjust="spacingAndGlyphs" textLength="118" x="332.5" y="287.5322">have been implemented</text><text fill="#000000" font-family="sans-serif" font-size="10" lengthAdjust="spacingAndGlyphs" textLength="121" x="332.5" y="299.1729">properly, and finish them</text><text fill="#000000" font-family="sans-serif" font-size="10" lengthAdjust="spacingAndGlyphs" textLength="49" x="332.5" y="310.8135">if required</text><rect fill="#FEFECE" filter="url(#f1)" height="33.9688" style="stroke: #A80036; stroke-width: 1.5;" width="112" x="546" y="258"/><text fill="#000000" font-family="sans-serif" font-size="12" lengthAdjust="spacingAndGlyphs" textLength="98" x="553" y="271.1387">Login Controller</text><line style="stroke: #A80036; stroke-width: 1.5;" x1="547" x2="657" y1="275.9688" y2="275.9688"/><rect fill="#FEFECE" filter="url(#f1)" height="33.9688" style="stroke: #A80036; stroke-width: 1.5;" width="108" x="479" y="396.5"/><text fill="#000000" font-family="sans-serif" font-size="12" lengthAdjust="spacingAndGlyphs" textLength="94" x="486" y="409.6387">Logout Method</text><line style="stroke: #A80036; stroke-width: 1.5;" x1="480" x2="586" y1="414.4688" y2="414.4688"/><rect fill="#FEFECE" filter="url(#f1)" height="33.9688" style="stroke: #A80036; stroke-width: 1.5;" width="98" x="622" y="396.5"/><text fill="#000000" font-family="sans-serif" font-size="12" lengthAdjust="spacingAndGlyphs" textLength="84" x="629" y="409.6387">Login Method</text><line style="stroke: #A80036; stroke-width: 1.5;" x1="623" x2="719" y1="414.4688" y2="414.4688"/><rect fill="#FEFECE" filter="url(#f1)" height="49.25" style="stroke: #A80036; stroke-width: 1.5;" width="152" x="693" y="250.5"/><text fill="#000000" font-family="sans-serif" font-size="12" lengthAdjust="spacingAndGlyphs" textLength="101" x="718.5" y="263.6387">Login Page View</text><line style="stroke: #A80036; stroke-width: 1.5;" x1="694" x2="844" y1="268.4688" y2="268.4688"/><text fill="#000000" font-family="sans-serif" font-size="10" lengthAdjust="spacingAndGlyphs" textLength="140" x="699" y="281.751">A login page with a password</text><text fill="#000000" font-family="sans-serif" font-size="10" lengthAdjust="spacingAndGlyphs" textLength="100" x="699" y="293.3916">and username form.</text><rect fill="#FEFECE" filter="url(#f1)" height="84.1719" style="stroke: #A80036; stroke-width: 1.5;" width="227" x="880.5" y="233"/><text fill="#000000" font-family="sans-serif" font-size="12" lengthAdjust="spacingAndGlyphs" textLength="143" x="922.5" y="246.1387">Page View Permissions</text><line style="stroke: #A80036; stroke-width: 1.5;" x1="881.5" x2="1106.5" y1="250.9688" y2="250.9688"/><text fill="#000000" font-family="sans-serif" font-size="10" lengthAdjust="spacingAndGlyphs" textLength="209" x="886.5" y="264.251">Implement permissions in all the controllers</text><text fill="#000000" font-family="sans-serif" font-size="10" lengthAdjust="spacingAndGlyphs" textLength="215" x="886.5" y="275.8916">to restrict access to views only to authorized</text><text fill="#000000" font-family="sans-serif" font-size="10" lengthAdjust="spacingAndGlyphs" textLength="117" x="886.5" y="287.5322">users who are logged in.</text><text fill="#000000" font-family="sans-serif" font-size="10" lengthAdjust="spacingAndGlyphs" textLength="140" x="886.5" y="299.1729">Redirect to login if the user is</text><text fill="#000000" font-family="sans-serif" font-size="10" lengthAdjust="spacingAndGlyphs" textLength="65" x="886.5" y="310.8135">not logged in.</text><rect fill="#FEFECE" filter="url(#f1)" height="37.6094" style="stroke: #A80036; stroke-width: 1.5;" width="77" x="1799.5" y="117.5"/><text fill="#000000" font-family="sans-serif" font-size="12" lengthAdjust="spacingAndGlyphs" textLength="63" x="1806.5" y="130.6387">Unit Tests</text><line style="stroke: #A80036; stroke-width: 1.5;" x1="1800.5" x2="1875.5" y1="135.4688" y2="135.4688"/><text fill="#000000" font-family="sans-serif" font-size="10" font-weight="bold" lengthAdjust="spacingAndGlyphs" textLength="50" x="1805.5" y="148.751">20 Hours</text><rect fill="#FEFECE" filter="url(#f1)" height="60.8906" style="stroke: #A80036; stroke-width: 1.5;" width="132" x="1417" y="244.5"/><text fill="#000000" font-family="sans-serif" font-size="12" lengthAdjust="spacingAndGlyphs" textLength="99" x="1433.5" y="257.6387">Write Unit Tests</text><line style="stroke: #A80036; stroke-width: 1.5;" x1="1418" x2="1548" y1="262.4688" y2="262.4688"/><text fill="#000000" font-family="sans-serif" font-size="10" lengthAdjust="spacingAndGlyphs" textLength="108" x="1423" y="275.751">write the unit tests for</text><text fill="#000000" font-family="sans-serif" font-size="10" lengthAdjust="spacingAndGlyphs" textLength="120" x="1423" y="287.3916">each class. Aiming to get</text><text fill="#000000" font-family="sans-serif" font-size="10" lengthAdjust="spacingAndGlyphs" textLength="96" x="1423" y="299.0322">80% code coverage</text><rect fill="#FEFECE" filter="url(#f1)" height="33.9688" style="stroke: #A80036; stroke-width: 1.5;" width="142" x="1164" y="396.5"/><text fill="#000000" font-family="sans-serif" font-size="12" lengthAdjust="spacingAndGlyphs" textLength="128" x="1171" y="409.6387">Database Unit Tests</text><line style="stroke: #A80036; stroke-width: 1.5;" x1="1165" x2="1305" y1="414.4688" y2="414.4688"/><rect fill="#FEFECE" filter="url(#f1)" height="33.9688" style="stroke: #A80036; stroke-width: 1.5;" width="118" x="1341" y="396.5"/><text fill="#000000" font-family="sans-serif" font-size="12" lengthAdjust="spacingAndGlyphs" textLength="104" x="1348" y="409.6387">Model Unit Tests</text><line style="stroke: #A80036; stroke-width: 1.5;" x1="1342" x2="1458" y1="414.4688" y2="414.4688"/><rect fill="#FEFECE" filter="url(#f1)" height="33.9688" style="stroke: #A80036; stroke-width: 1.5;" width="142" x="1494" y="396.5"/><text fill="#000000" font-family="sans-serif" font-size="12" lengthAdjust="spacingAndGlyphs" textLength="128" x="1501" y="409.6387">Controller Unit Tests</text><line style="stroke: #A80036; stroke-width: 1.5;" x1="1495" x2="1635" y1="414.4688" y2="414.4688"/><rect fill="#FEFECE" filter="url(#f1)" height="33.9688" style="stroke: #A80036; stroke-width: 1.5;" width="64" x="1806" y="258"/><text fill="#000000" font-family="sans-serif" font-size="12" lengthAdjust="spacingAndGlyphs" textLength="50" x="1813" y="271.1387">Prepare</text><line style="stroke: #A80036; stroke-width: 1.5;" x1="1807" x2="1869" y1="275.9688" y2="275.9688"/><rect fill="#FEFECE" filter="url(#f1)" height="60.8906" style="stroke: #A80036; stroke-width: 1.5;" width="145" x="1671.5" y="383"/><text fill="#000000" font-family="sans-serif" font-size="12" lengthAdjust="spacingAndGlyphs" textLength="130" x="1679" y="396.1387">Research and Select</text><line style="stroke: #A80036; stroke-width: 1.5;" x1="1672.5" x2="1815.5" y1="400.9688" y2="400.9688"/><text fill="#000000" font-family="sans-serif" font-size="10" lengthAdjust="spacingAndGlyphs" textLength="133" x="1677.5" y="414.251">Research and select a good</text><text fill="#000000" font-family="sans-serif" font-size="10" lengthAdjust="spacingAndGlyphs" textLength="115" x="1677.5" y="425.8916">unit test system for our</text><text fill="#000000" font-family="sans-serif" font-size="10" lengthAdjust="spacingAndGlyphs" textLength="32" x="1677.5" y="437.5322">needs.</text><rect fill="#FEFECE" filter="url(#f1)" height="33.9688" style="stroke: #A80036; stroke-width: 1.5;" width="160" x="1852" y="396.5"/><text fill="#000000" font-family="sans-serif" font-size="12" lengthAdjust="spacingAndGlyphs" textLength="146" x="1859" y="409.6387">Install Unit Test System</text><line style="stroke: #A80036; stroke-width: 1.5;" x1="1853" x2="2011" y1="414.4688" y2="414.4688"/><rect fill="#FEFECE" filter="url(#f1)" height="37.6094" style="stroke: #A80036; stroke-width: 1.5;" width="101" x="2400.5" y="117.5"/><text fill="#000000" font-family="sans-serif" font-size="12" lengthAdjust="spacingAndGlyphs" textLength="87" x="2407.5" y="130.6387">Sales Reports</text><line style="stroke: #A80036; stroke-width: 1.5;" x1="2401.5" x2="2500.5" y1="135.4688" y2="135.4688"/><text fill="#000000" font-family="sans-serif" font-size="10" font-weight="bold" lengthAdjust="spacingAndGlyphs" textLength="50" x="2406.5" y="148.751">30 Hours</text><rect fill="#FEFECE" filter="url(#f1)" height="95.8125" style="stroke: #A80036; stroke-width: 1.5;" width="251" x="2068.5" y="227"/><text fill="#000000" font-family="sans-serif" font-size="12" lengthAdjust="spacingAndGlyphs" textLength="141" x="2123.5" y="240.1387">Preconfigured Reports</text><line style="stroke: #A80036; stroke-width: 1.5;" x1="2069.5" x2="2318.5" y1="244.9688" y2="244.9688"/><rect fill="none" height="6" style="stroke: #C82930; stroke-width: 1.0;" width="6" x="2076.5" y="253.2891"/><text fill="#000000" font-family="sans-serif" font-size="10" lengthAdjust="spacingAndGlyphs" textLength="166" x="2088.5" y="258.251">What has sold most for the month</text><rect fill="none" height="6" style="stroke: #C82930; stroke-width: 1.0;" width="6" x="2076.5" y="264.9297"/><text fill="#000000" font-family="sans-serif" font-size="10" lengthAdjust="spacingAndGlyphs" textLength="164" x="2088.5" y="269.8916">What has sold least for the month</text><rect fill="none" height="6" style="stroke: #C82930; stroke-width: 1.0;" width="6" x="2076.5" y="276.5703"/><text fill="#000000" font-family="sans-serif" font-size="10" lengthAdjust="spacingAndGlyphs" textLength="105" x="2088.5" y="281.5322">Graph Sales Per Time</text><rect fill="none" height="6" style="stroke: #C82930; stroke-width: 1.0;" width="6" x="2076.5" y="288.2109"/><text fill="#000000" font-family="sans-serif" font-size="10" lengthAdjust="spacingAndGlyphs" textLength="144" x="2088.5" y="293.1729">Graph Sales Income Per Time</text><rect fill="none" height="6" style="stroke: #C82930; stroke-width: 1.0;" width="6" x="2076.5" y="299.8516"/><text fill="#000000" font-family="sans-serif" font-size="10" lengthAdjust="spacingAndGlyphs" textLength="225" x="2088.5" y="304.8135">Graph Sales for current month. with prediction</text><rect fill="none" height="6" style="stroke: #C82930; stroke-width: 1.0;" width="6" x="2076.5" y="311.4922"/><text fill="#000000" font-family="sans-serif" font-size="10" lengthAdjust="spacingAndGlyphs" textLength="212" x="2088.5" y="316.4541">Graph Number of stock of an item per Time</text><rect fill="#FEFECE" filter="url(#f1)" height="49.25" style="stroke: #A80036; stroke-width: 1.5;" width="193" x="2354.5" y="250.5"/><text fill="#000000" font-family="sans-serif" font-size="12" lengthAdjust="spacingAndGlyphs" textLength="97" x="2402.5" y="263.6387">Menu Bar Items</text><line style="stroke: #A80036; stroke-width: 1.5;" x1="2355.5" x2="2546.5" y1="268.4688" y2="268.4688"/><text fill="#000000" font-family="sans-serif" font-size="10" lengthAdjust="spacingAndGlyphs" textLength="181" x="2360.5" y="281.751">Put the new sales report functionality</text><text fill="#000000" font-family="sans-serif" font-size="10" lengthAdjust="spacingAndGlyphs" textLength="84" x="2360.5" y="293.3916">on the menu bar.</text><rect fill="#FEFECE" filter="url(#f1)" height="49.25" style="stroke: #A80036; stroke-width: 1.5;" width="193" x="2097.5" y="389"/><text fill="#000000" font-family="sans-serif" font-size="12" lengthAdjust="spacingAndGlyphs" textLength="119" x="2134.5" y="402.1387">Sales Report Views</text><line style="stroke: #A80036; stroke-width: 1.5;" x1="2098.5" x2="2289.5" y1="406.9688" y2="406.9688"/><text fill="#000000" font-family="sans-serif" font-size="10" lengthAdjust="spacingAndGlyphs" textLength="181" x="2103.5" y="420.251">Write the views for the Preconfigured</text><text fill="#000000" font-family="sans-serif" font-size="10" lengthAdjust="spacingAndGlyphs" textLength="62" x="2103.5" y="431.8916">sales reports</text><rect fill="#FEFECE" filter="url(#f1)" height="33.9688" style="stroke: #A80036; stroke-width: 1.5;" width="241" x="2073.5" y="504"/><text fill="#000000" font-family="sans-serif" font-size="12" lengthAdjust="spacingAndGlyphs" textLength="227" x="2080.5" y="517.1387">Select and Implement Graph System</text><line style="stroke: #A80036; stroke-width: 1.5;" x1="2074.5" x2="2313.5" y1="521.9688" y2="521.9688"/><rect fill="#FEFECE" filter="url(#f1)" height="49.25" style="stroke: #A80036; stroke-width: 1.5;" width="189" x="2582.5" y="250.5"/><text fill="#000000" font-family="sans-serif" font-size="12" lengthAdjust="spacingAndGlyphs" textLength="61" x="2646.5" y="263.6387">Controller</text><line style="stroke: #A80036; stroke-width: 1.5;" x1="2583.5" x2="2770.5" y1="268.4688" y2="268.4688"/><text fill="#000000" font-family="sans-serif" font-size="10" lengthAdjust="spacingAndGlyphs" textLength="177" x="2588.5" y="281.751">Implement the sales reports into the</text><text fill="#000000" font-family="sans-serif" font-size="10" lengthAdjust="spacingAndGlyphs" textLength="101" x="2588.5" y="293.3916">report_controller.php</text><rect fill="#FEFECE" filter="url(#f1)" height="72.5313" style="stroke: #A80036; stroke-width: 1.5;" width="147" x="2806.5" y="238.5"/><text fill="#000000" font-family="sans-serif" font-size="12" lengthAdjust="spacingAndGlyphs" textLength="81" x="2839.5" y="251.6387">CSV Exporter</text><line style="stroke: #A80036; stroke-width: 1.5;" x1="2807.5" x2="2952.5" y1="256.4688" y2="256.4688"/><text fill="#000000" font-family="sans-serif" font-size="10" lengthAdjust="spacingAndGlyphs" textLength="125" x="2812.5" y="269.751">implement the csv export</text><text fill="#000000" font-family="sans-serif" font-size="10" lengthAdjust="spacingAndGlyphs" textLength="132" x="2812.5" y="281.3916">functionality into the report</text><text fill="#000000" font-family="sans-serif" font-size="10" lengthAdjust="spacingAndGlyphs" textLength="135" x="2812.5" y="293.0322">controller, and create a new</text><text fill="#000000" font-family="sans-serif" font-size="10" lengthAdjust="spacingAndGlyphs" textLength="51" x="2812.5" y="304.6729">view for it.</text><rect fill="#FEFECE" filter="url(#f1)" height="33.9688" style="stroke: #A80036; stroke-width: 1.5;" width="181" x="2772.5" y="396.5"/><text fill="#000000" font-family="sans-serif" font-size="12" lengthAdjust="spacingAndGlyphs" textLength="167" x="2779.5" y="409.6387">CSV Report Download View</text><line style="stroke: #A80036; stroke-width: 1.5;" x1="2773.5" x2="2952.5" y1="414.4688" y2="414.4688"/><rect fill="#FEFECE" filter="url(#f1)" height="37.6094" style="stroke: #A80036; stroke-width: 1.5;" width="71" x="3139.5" y="117.5"/><text fill="#000000" font-family="sans-serif" font-size="12" lengthAdjust="spacingAndGlyphs" textLength="57" x="3146.5" y="130.6387">Sales API</text><line style="stroke: #A80036; stroke-width: 1.5;" x1="3140.5" x2="3209.5" y1="135.4688" y2="135.4688"/><text fill="#000000" font-family="sans-serif" font-size="10" font-weight="bold" lengthAdjust="spacingAndGlyphs" textLength="43" x="3145.5" y="148.751">6 Hours</text><rect fill="#FEFECE" filter="url(#f1)" height="49.25" style="stroke: #A80036; stroke-width: 1.5;" width="150" x="3010" y="250.5"/><text fill="#000000" font-family="sans-serif" font-size="12" lengthAdjust="spacingAndGlyphs" textLength="111" x="3029.5" y="263.6387">JSON Data Format</text><line style="stroke: #A80036; stroke-width: 1.5;" x1="3011" x2="3159" y1="268.4688" y2="268.4688"/><text fill="#000000" font-family="sans-serif" font-size="10" lengthAdjust="spacingAndGlyphs" textLength="138" x="3016" y="281.751">Design/Specify the json data</text><text fill="#000000" font-family="sans-serif" font-size="10" lengthAdjust="spacingAndGlyphs" textLength="122" x="3016" y="293.3916">format for the REST API.</text><rect fill="#FEFECE" filter="url(#f1)" height="49.25" style="stroke: #A80036; stroke-width: 1.5;" width="140" x="3195" y="250.5"/><text fill="#000000" font-family="sans-serif" font-size="12" lengthAdjust="spacingAndGlyphs" textLength="61" x="3234.5" y="263.6387">Controller</text><line style="stroke: #A80036; stroke-width: 1.5;" x1="3196" x2="3334" y1="268.4688" y2="268.4688"/><text fill="#000000" font-family="sans-serif" font-size="10" lengthAdjust="spacingAndGlyphs" textLength="128" x="3201" y="281.751">Write the controller for the</text><text fill="#000000" font-family="sans-serif" font-size="10" lengthAdjust="spacingAndGlyphs" textLength="47" x="3201" y="293.3916">sales API.</text><rect fill="#FEFECE" filter="url(#f1)" height="60.8906" style="stroke: #A80036; stroke-width: 1.5;" width="173" x="3370.5" y="244.5"/><text fill="#000000" font-family="sans-serif" font-size="12" lengthAdjust="spacingAndGlyphs" textLength="67" x="3423.5" y="257.6387">Test Script</text><line style="stroke: #A80036; stroke-width: 1.5;" x1="3371.5" x2="3542.5" y1="262.4688" y2="262.4688"/><text fill="#000000" font-family="sans-serif" font-size="10" lengthAdjust="spacingAndGlyphs" textLength="137" x="3376.5" y="275.751">Write a script to test the api,</text><text fill="#000000" font-family="sans-serif" font-size="10" lengthAdjust="spacingAndGlyphs" textLength="161" x="3376.5" y="287.3916">pretending to be the point of sale</text><text fill="#000000" font-family="sans-serif" font-size="10" lengthAdjust="spacingAndGlyphs" textLength="46" x="3376.5" y="299.0322">software.</text><rect fill="#FEFECE" filter="url(#f1)" height="37.6094" style="stroke: #A80036; stroke-width: 1.5;" width="166" x="3658" y="117.5"/><text fill="#000000" font-family="sans-serif" font-size="12" lengthAdjust="spacingAndGlyphs" textLength="152" x="3665" y="130.6387">Report Database Tables</text><line style="stroke: #A80036; stroke-width: 1.5;" x1="3659" x2="3823" y1="135.4688" y2="135.4688"/><text fill="#000000" font-family="sans-serif" font-size="10" font-weight="bold" lengthAdjust="spacingAndGlyphs" textLength="43" x="3664" y="148.751">6 Hours</text><rect fill="#FEFECE" filter="url(#f1)" height="37.6094" style="stroke: #A80036; stroke-width: 1.5;" width="58" x="3600" y="256"/><text fill="#000000" font-family="sans-serif" font-size="12" lengthAdjust="spacingAndGlyphs" textLength="44" x="3607" y="269.1387">Models</text><line style="stroke: #A80036; stroke-width: 1.5;" x1="3601" x2="3657" y1="273.9688" y2="273.9688"/><text fill="#000000" font-family="sans-serif" font-size="10" font-weight="bold" lengthAdjust="spacingAndGlyphs" textLength="43" x="3606" y="287.251">4 Hours</text><rect fill="#FEFECE" filter="url(#f1)" height="60.8906" style="stroke: #A80036; stroke-width: 1.5;" width="214" x="3693" y="244.5"/><text fill="#000000" font-family="sans-serif" font-size="12" lengthAdjust="spacingAndGlyphs" textLength="81" x="3759.5" y="257.6387">Table Design</text><line style="stroke: #A80036; stroke-width: 1.5;" x1="3694" x2="3906" y1="262.4688" y2="262.4688"/><text fill="#000000" font-family="sans-serif" font-size="10" lengthAdjust="spacingAndGlyphs" textLength="202" x="3699" y="275.751">Updated database and class diagrams for</text><text fill="#000000" font-family="sans-serif" font-size="10" lengthAdjust="spacingAndGlyphs" textLength="200" x="3699" y="287.3916">changes to be made to the database and</text><text fill="#000000" font-family="sans-serif" font-size="10" lengthAdjust="spacingAndGlyphs" textLength="57" x="3699" y="299.0322">the models.</text><rect fill="#FEFECE" filter="url(#f1)" height="49.25" style="stroke: #A80036; stroke-width: 1.5;" width="141" x="3942.5" y="250.5"/><text fill="#000000" font-family="sans-serif" font-size="12" lengthAdjust="spacingAndGlyphs" textLength="64" x="3981" y="263.6387">New Table</text><line style="stroke: #A80036; stroke-width: 1.5;" x1="3943.5" x2="4082.5" y1="268.4688" y2="268.4688"/><text fill="#000000" font-family="sans-serif" font-size="10" lengthAdjust="spacingAndGlyphs" textLength="129" x="3948.5" y="281.751">New table in database.php</text><text fill="#000000" font-family="sans-serif" font-size="10" font-weight="bold" lengthAdjust="spacingAndGlyphs" textLength="43" x="3948.5" y="293.3916">2 Hours</text><rect fill="#FEFECE" filter="url(#f1)" height="37.6094" style="stroke: #A80036; stroke-width: 1.5;" width="183" x="3900.5" y="394.5"/><text fill="#000000" font-family="sans-serif" font-size="12" lengthAdjust="spacingAndGlyphs" textLength="80" x="3952" y="407.6387">Sample Data</text><line style="stroke: #A80036; stroke-width: 1.5;" x1="3901.5" x2="4082.5" y1="412.4688" y2="412.4688"/><text fill="#000000" font-family="sans-serif" font-size="10" lengthAdjust="spacingAndGlyphs" textLength="171" x="3906.5" y="425.751">Insert sample data in database.php</text><rect fill="#FEFECE" filter="url(#f1)" height="37.6094" style="stroke: #A80036; stroke-width: 1.5;" width="63" x="2112.5" y="8"/><text fill="#000000" font-family="sans-serif" font-size="12" lengthAdjust="spacingAndGlyphs" textLength="49" x="2119.5" y="21.1387">Sprint 2</text><line style="stroke: #A80036; stroke-width: 1.5;" x1="2113.5" x2="2174.5" y1="25.9688" y2="25.9688"/><text fill="#000000" font-family="sans-serif" font-size="10" font-weight="bold" lengthAdjust="spacingAndGlyphs" textLength="50" x="2118.5" y="39.251">80 Hours</text><rect fill="#FEFECE" filter="url(#f1)" height="37.6094" style="stroke: #A80036; stroke-width: 1.5;" width="92" x="6" y="117.5"/><text fill="#000000" font-family="sans-serif" font-size="12" lengthAdjust="spacingAndGlyphs" textLength="78" x="13" y="130.6387">User Manual</text><line style="stroke: #A80036; stroke-width: 1.5;" x1="7" x2="97" y1="135.4688" y2="135.4688"/><text fill="#000000" font-family="sans-serif" font-size="10" font-weight="bold" lengthAdjust="spacingAndGlyphs" textLength="43" x="12" y="148.751">3 Hours</text><path d="M643.31,144.553 C572.522,156.925 426.955,185.257 309,227 C296.83,231.307 284.165,236.669 272.139,242.214 " fill="none" style="stroke: #A80036; stroke-width: 1.0;"/><polygon fill="#A80036" points="267.386,244.43,277.2332,244.252,271.9176,242.3171,273.8525,237.0014,267.386,244.43" style="stroke: #A80036; stroke-width: 1.0;"/><path d="M643.398,159.28 C605.958,178.42 550.353,206.847 503.864,230.615 " fill="none" style="stroke: #A80036; stroke-width: 1.0;"/><polygon fill="#A80036" points="499.394,232.9,509.2282,232.3636,503.8457,230.6235,505.5858,225.2409,499.394,232.9" style="stroke: #A80036; stroke-width: 1.0;"/><path d="M667.773,167.118 C651.76,193.141 628.871,230.335 614.748,253.284 " fill="none" style="stroke: #A80036; stroke-width: 1.0;"/><polygon fill="#A80036" points="612.045,257.677,620.1692,252.1095,614.666,253.4191,613.3565,247.9159,612.045,257.677" style="stroke: #A80036; stroke-width: 1.0;"/><path d="M704.01,167.118 C718.224,190.494 737.919,222.885 751.894,245.868 " fill="none" style="stroke: #A80036; stroke-width: 1.0;"/><polygon fill="#A80036" points="754.609,250.333,753.3525,240.5646,752.012,246.0604,746.5163,244.7198,754.609,250.333" style="stroke: #A80036; stroke-width: 1.0;"/><path d="M728.503,156.336 C771.68,175.472 840.062,205.777 896.612,230.839 " fill="none" style="stroke: #A80036; stroke-width: 1.0;"/><polygon fill="#A80036" points="901.353,232.94,894.7452,225.6368,896.7817,230.9143,891.5041,232.9509,901.353,232.94" style="stroke: #A80036; stroke-width: 1.0;"/><path d="M593.814,292.194 C581.26,317.028 557.263,364.501 543.464,391.8 " fill="none" style="stroke: #A80036; stroke-width: 1.0;"/><polygon fill="#A80036" points="541.176,396.327,548.8058,390.0991,543.4315,391.8646,541.6659,386.4903,541.176,396.327" style="stroke: #A80036; stroke-width: 1.0;"/><path d="M610.186,292.194 C622.74,317.028 646.737,364.501 660.536,391.8 " fill="none" style="stroke: #A80036; stroke-width: 1.0;"/><polygon fill="#A80036" points="662.824,396.327,662.3341,386.4903,660.5685,391.8646,655.1942,390.0991,662.824,396.327" style="stroke: #A80036; stroke-width: 1.0;"/><path d="M1799.33,152.368 C1740.51,174.984 1627.62,218.393 1553.83,246.767 " fill="none" style="stroke: #A80036; stroke-width: 1.0;"/><polygon fill="#A80036" points="1549.02,248.614,1558.8565,249.1075,1553.6851,246.8148,1555.9778,241.6434,1549.02,248.614" style="stroke: #A80036; stroke-width: 1.0;"/><path d="M1838,155.626 C1838,180.782 1838,226.185 1838,252.854 " fill="none" style="stroke: #A80036; stroke-width: 1.0;"/><polygon fill="#A80036" points="1838,257.927,1842,248.927,1838,252.927,1834,248.927,1838,257.927" style="stroke: #A80036; stroke-width: 1.0;"/><path d="M1826.85,292.194 C1812.26,313.377 1786.33,351.031 1767.35,378.587 " fill="none" style="stroke: #A80036; stroke-width: 1.0;"/><polygon fill="#A80036" points="1764.37,382.918,1772.771,377.7776,1767.2075,378.8011,1766.184,373.2376,1764.37,382.918" style="stroke: #A80036; stroke-width: 1.0;"/><path d="M1849.15,292.194 C1866.32,317.131 1899.22,364.894 1917.98,392.137 " fill="none" style="stroke: #A80036; stroke-width: 1.0;"/><polygon fill="#A80036" points="1920.86,396.327,1919.046,386.6466,1918.0225,392.2101,1912.459,391.1866,1920.86,396.327" style="stroke: #A80036; stroke-width: 1.0;"/><path d="M1429.19,305.618 C1380.39,332.475 1309.98,371.232 1268.71,393.948 " fill="none" style="stroke: #A80036; stroke-width: 1.0;"/><polygon fill="#A80036" points="1264.31,396.366,1274.1228,395.5245,1268.6888,393.9524,1270.261,388.5184,1264.31,396.366" style="stroke: #A80036; stroke-width: 1.0;"/><path d="M1464.99,305.618 C1449.17,331.641 1426.55,368.835 1412.6,391.784 " fill="none" style="stroke: #A80036; stroke-width: 1.0;"/><polygon fill="#A80036" points="1409.93,396.177,1418.0249,390.567,1412.5287,391.9054,1411.1903,386.4091,1409.93,396.177" style="stroke: #A80036; stroke-width: 1.0;"/><path d="M1500.79,305.618 C1516.43,331.641 1538.77,368.835 1552.56,391.784 " fill="none" style="stroke: #A80036; stroke-width: 1.0;"/><polygon fill="#A80036" points="1555.19,396.177,1553.9847,386.4022,1552.6154,391.8908,1547.1268,390.5215,1555.19,396.177" style="stroke: #A80036; stroke-width: 1.0;"/><path d="M2451,155.626 C2451,178.47 2451,218.011 2451,245.058 " fill="none" style="stroke: #A80036; stroke-width: 1.0;"/><polygon fill="#A80036" points="2451,250.292,2455,241.292,2451,245.292,2447,241.292,2451,250.292" style="stroke: #A80036; stroke-width: 1.0;"/><path d="M2416.87,155.626 C2383.87,173.154 2332.36,200.513 2287.17,224.515 " fill="none" style="stroke: #A80036; stroke-width: 1.0;"/><polygon fill="#A80036" points="2282.54,226.975,2292.365,226.2903,2286.9568,224.6316,2288.6155,219.2233,2282.54,226.975" style="stroke: #A80036; stroke-width: 1.0;"/><path d="M2501.62,147.297 C2568.67,161.085 2690.02,188.858 2789,227 C2796.01,229.701 2803.19,232.791 2810.28,236.068 " fill="none" style="stroke: #A80036; stroke-width: 1.0;"/><polygon fill="#A80036" points="2815.18,238.363,2808.7181,230.9304,2810.6497,236.2472,2805.3329,238.1789,2815.18,238.363" style="stroke: #A80036; stroke-width: 1.0;"/><path d="M2481.01,155.626 C2520.02,179.184 2588.42,220.499 2633.22,247.556 " fill="none" style="stroke: #A80036; stroke-width: 1.0;"/><polygon fill="#A80036" points="2637.75,250.292,2632.1151,242.2144,2633.4704,247.7065,2627.9783,249.0618,2637.75,250.292" style="stroke: #A80036; stroke-width: 1.0;"/><path d="M2194,323.358 C2194,343.455 2194,366.227 2194,383.725 " fill="none" style="stroke: #A80036; stroke-width: 1.0;"/><polygon fill="#A80036" points="2194,388.977,2198,379.977,2194,383.977,2190,379.977,2194,388.977" style="stroke: #A80036; stroke-width: 1.0;"/><path d="M2875.58,311.507 C2872.44,336.704 2868.33,369.702 2865.68,391.003 " fill="none" style="stroke: #A80036; stroke-width: 1.0;"/><polygon fill="#A80036" points="2865.04,396.155,2870.1212,387.7181,2865.6577,391.1933,2862.1825,386.7298,2865.04,396.155" style="stroke: #A80036; stroke-width: 1.0;"/><path d="M2194,438.176 C2194,456.345 2194,481.2053 2194,498.7413 " fill="none" style="stroke: #A80036; stroke-width: 1.0;"/><polygon fill="#A80036" points="2194,503.9329,2198,494.9329,2194,498.9329,2190,494.9329,2194,503.9329" style="stroke: #A80036; stroke-width: 1.0;"/><path d="M3163.05,155.626 C3147.8,178.756 3121.26,219.003 3103.42,246.066 " fill="none" style="stroke: #A80036; stroke-width: 1.0;"/><polygon fill="#A80036" points="3100.63,250.292,3108.9174,244.9705,3103.3775,246.1145,3102.2334,240.5745,3100.63,250.292" style="stroke: #A80036; stroke-width: 1.0;"/><path d="M3186.95,155.626 C3202.2,178.756 3228.74,219.003 3246.58,246.066 " fill="none" style="stroke: #A80036; stroke-width: 1.0;"/><polygon fill="#A80036" points="3249.37,250.292,3247.7666,240.5745,3246.6225,246.1145,3241.0826,244.9705,3249.37,250.292" style="stroke: #A80036; stroke-width: 1.0;"/><path d="M3210.72,154.788 C3255.98,176.698 3334.88,214.888 3391.18,242.139 " fill="none" style="stroke: #A80036; stroke-width: 1.0;"/><polygon fill="#A80036" points="3395.87,244.41,3389.5027,236.8962,3391.3669,242.2371,3386.026,244.1012,3395.87,244.41" style="stroke: #A80036; stroke-width: 1.0;"/><path d="M3726.13,155.626 C3705.79,180.408 3669.34,224.839 3647.34,251.653 " fill="none" style="stroke: #A80036; stroke-width: 1.0;"/><polygon fill="#A80036" points="3643.93,255.799,3652.7286,251.3736,3647.0994,251.9318,3646.5411,246.3026,3643.93,255.799" style="stroke: #A80036; stroke-width: 1.0;"/><path d="M3748.83,155.626 C3758.04,176.927 3773.52,212.745 3785.05,239.414 " fill="none" style="stroke: #A80036; stroke-width: 1.0;"/><polygon fill="#A80036" points="3787.15,244.282,3787.2607,234.4338,3785.1708,239.6904,3779.9141,237.6005,3787.15,244.282" style="stroke: #A80036; stroke-width: 1.0;"/><path d="M3779.27,155.595 C3816.63,173.384 3875,201.499 3925,227 C3938.05,233.658 3952.09,241.049 3965.04,247.961 " fill="none" style="stroke: #A80036; stroke-width: 1.0;"/><polygon fill="#A80036" points="3969.75,250.484,3963.6993,242.713,3965.3407,248.1265,3959.9272,249.7679,3969.75,250.484" style="stroke: #A80036; stroke-width: 1.0;"/><path d="M4009.34,299.776 C4005.48,324.878 3999.43,364.195 3995.59,389.138 " fill="none" style="stroke: #A80036; stroke-width: 1.0;"/><polygon fill="#A80036" points="3994.81,394.233,4000.1313,385.9454,3995.5699,389.2911,3992.2242,384.7297,3994.81,394.233" style="stroke: #A80036; stroke-width: 1.0;"/><path d="M2112.09,27.726 C1988.04,26.954 1526.06,26.827 1148,63 C995.808,77.562 817.539,109.929 733.902,126.028 " fill="none" style="stroke: #A80036; stroke-width: 1.0;"/><polygon fill="#A80036" points="728.774,127.017,738.3687,129.2399,733.6835,126.07,736.8534,121.3847,728.774,127.017" style="stroke: #A80036; stroke-width: 1.0;"/><path d="M2112.49,28.184 C1859.07,29.711 161.207,40.76 114,63 C92.0884,73.323 74.9775,95.513 64.3335,112.642 " fill="none" style="stroke: #A80036; stroke-width: 1.0;"/><polygon fill="#A80036" points="61.5042,117.325,69.582,111.6904,64.0899,113.0455,62.7348,107.5533,61.5042,117.325" style="stroke: #A80036; stroke-width: 1.0;"/><path d="M2112.41,39.099 C2057.34,58.444 1943.72,98.359 1881.34,120.273 " fill="none" style="stroke: #A80036; stroke-width: 1.0;"/><polygon fill="#A80036" points="1876.58,121.948,1886.3971,122.7389,1881.2974,120.2908,1883.7455,115.1911,1876.58,121.948" style="stroke: #A80036; stroke-width: 1.0;"/><path d="M2175.7,39.099 C2227.58,57.268 2331.29,93.581 2395.55,116.084 " fill="none" style="stroke: #A80036; stroke-width: 1.0;"/><polygon fill="#A80036" points="2400.49,117.814,2393.3239,111.0578,2395.7725,116.1572,2390.673,118.6058,2400.49,117.814" style="stroke: #A80036; stroke-width: 1.0;"/><path d="M2175.56,28.086 C2307.29,28.64 2813.58,32.733 2970,63 C3028.94,74.406 3093.77,99.62 3134.42,117.084 " fill="none" style="stroke: #A80036; stroke-width: 1.0;"/><polygon fill="#A80036" points="3139.25,119.174,3132.5781,111.9293,3134.661,117.1887,3129.4016,119.2717,3139.25,119.174" style="stroke: #A80036; stroke-width: 1.0;"/><path d="M2175.64,28.109 C2371.99,28.873 3420.37,34.282 3560,63 C3611.09,73.508 3666.25,97.631 3702.07,115.173 " fill="none" style="stroke: #A80036; stroke-width: 1.0;"/><polygon fill="#A80036" points="3706.78,117.494,3700.4812,109.9227,3702.2968,115.2802,3696.9392,117.0958,3706.78,117.494" style="stroke: #A80036; stroke-width: 1.0;"/></g></svg>